<?xml version="1.0" encoding="utf-8"?>
<!-- Generator: Adobe Illustrator 19.2.0, SVG Export Plug-In . SVG Version: 6.00 Build 0)  -->
<svg version="1.1" id="Calque_1" xmlns="http://www.w3.org/2000/svg" xmlns:xlink="http://www.w3.org/1999/xlink" x="0px" y="0px"
	 viewBox="0 0 297.6 209.8" style="enable-background:new 0 0 297.6 209.8;" xml:space="preserve">
<style type="text/css">
	.st0{fill:#FDCE7E;}
	.st1{fill:#FFFFFF;}
	.st2{fill:#9C1C18;}
	.st3{fill:#BBAB9E;}
	.st4{fill:#1E1E1C;}
	.st5{fill:#9E6F3A;}
	.st6{fill:none;stroke:#1E1E1C;stroke-width:3;stroke-miterlimit:10;}
	.st7{fill:#A9D3CF;stroke:#FFFFFF;stroke-miterlimit:10;}
	.st8{fill:#D4EBF0;stroke:#FFFFFF;stroke-miterlimit:10;}
	.st9{fill:#7DB29E;}
	.st10{fill:#D4EBF0;}
	.st11{fill:#1D1D1B;}
	.st12{font-family:'Yikes';}
	.st13{font-size:32.141px;}
	.st14{letter-spacing:-2;}
	.st15{font-family:'StampActJumbled';}
	.st16{font-size:10px;}
	.st17{font-family:'AvenirLTStd-Roman';}
	.st18{font-size:11.9738px;}
	.st19{fill:#000100;}
	.st20{letter-spacing:-1;}
</style>
<circle id="soleil" class="st0" cx="59.8" cy="136.3" r="44.1"/>
<g id="dahu">
	<g id="dahuTitre">
		<path class="st0" d="M56.2,79.6l2.9-0.2c1.5-0.1,3,0.4,4.2,1.4c1,1,1.5,2.4,1.4,3.8c0.1,1.5-0.5,3-1.6,4.1c-1.3,1-2.9,1.5-4.6,1.4
			L56,89.9V79.6H56.2z M57.4,88.9h1.3c2.9,0.1,4.5-1.6,4.5-4.3s-1.3-4.1-4.2-4.1h-1.4v8.2L57.4,88.9z"/>
		<path class="st0" d="M68,87.3l-1.7,3L64.9,90l5.6-9.5l1.6,0.3l1.4,11l-1.4-0.3L71.7,88L68,87.3z M71.6,87l-0.4-3.2
			c-0.1-0.7-0.1-1.3-0.2-2l0,0l-0.9,1.7l-1.6,2.8L71.6,87z"/>
		<path class="st0" d="M79.9,83l-1.7,4l4.6,2l1.7-4l1.3,0.6l-4.1,9.6l-1.3-0.6l2-4.5l-4.6-2l-2,4.5L74.6,92l4.1-9.6L79.9,83z"/>
		<path class="st0" d="M90.4,88.3l-3.6,5.1c-1.3,1.9-1.1,3.3,0.1,4.1s2.7,0.6,4-1.3l3.6-5.1l1,0.9L92,97c-1.8,2.6-4,2.7-5.9,1.4
			s-2.4-3.2-0.5-5.8l3.5-5.1L90.4,88.3z"/>
		<path class="st0" d="M98.4,94.5l0.9,0.9l-6.6,6.6l3.2,3.2l-0.8,0.8l-4.1-4.2L98.4,94.5z"/>
		<path class="st0" d="M103.5,101.8l-2-2.5l0.9-0.7l4.7,6.1l-0.9,0.7l-2-2.5l-7.4,5.6l-0.8-1.1L103.5,101.8z"/>
		<path class="st0" d="M108.9,107.7l-9,5.4l-0.7-1.2l9-5.4L108.9,107.7z"/>
		<path class="st0" d="M108.6,121.2l4.1-1.8l0,0l-4.2,0.2l-5.4,0.2l-0.4-0.9l4-3.4c1.1-0.9,2.2-1.8,3.3-2.6l0,0l-4.4,1.5l-4.3,1.4
			l-0.4-1.2l10-3.2l0.6,1.6l-4.1,3.5l-2.9,2.3l0,0l3.7-0.3h5.4l0.6,1.6l-9.5,4.5l-0.5-1.2L108.6,121.2z"/>
		<path class="st0" d="M108.6,126.9l-3.4-0.6l-0.2-1.4l10.9,1.9l0.2,1.6l-9.8,5.1l-0.2-1.4l3.1-1.6L108.6,126.9z M110.2,130.1
			l2.8-1.4l1.8-0.8l0,0l-2-0.2l-3.1-0.6L110.2,130.1z"/>
		<path class="st0" d="M115.5,135.4v-3.2h1.2v7.7h-1.2v-3.2l-9.3,0.2v-1.4L115.5,135.4z"/>
		<path class="st0" d="M110.1,147l0.6-4l-3.7-0.6l-0.7,4.5l-1.1-0.2l0.9-5.8l10.4,1.6l-0.9,5.6l-1.1-0.2l0.7-4.2l-3.3-0.5l-0.6,4
			L110.1,147z"/>
	</g>
	<g id="flying">
		<path class="st1" d="M54,171.7l-0.7,4h-0.5l0.7-4H54z"/>
		<path class="st1" d="M54.6,173.7c0.1-0.3,0.1-0.5,0.1-0.8h0.4v0.5l0,0c0.2-0.3,0.6-0.5,1-0.4c0.6,0.1,1,0.7,0.9,1.3c0,0,0,0,0,0
			l-0.2,1.7h-0.4l0.2-1.7c0.1-0.4-0.1-0.8-0.4-0.9c0,0,0,0-0.1,0H56c-0.3-0.1-0.7,0.1-0.8,0.4c-0.1,0.1-0.1,0.1-0.1,0.2l-0.1,1.9
			h-0.5L54.6,173.7z"/>
		<path class="st1" d="M59.9,172.4v0.8h0.7v0.4h-0.7v1.6c0,0.3,0.1,0.6,0.4,0.6h0.3v0.4h-0.5c-0.2,0-0.4,0-0.6-0.2
			c-0.1-0.2-0.2-0.5-0.2-0.7v-1.6h-0.4v-0.4h0.4v-0.7L59.9,172.4z"/>
		<path class="st1" d="M61.1,171.9h0.5v1.8l0,0c0-0.2,0.2-0.3,0.3-0.4l0.5-0.2c0.5-0.1,1,0.3,1.1,0.9c0,0.1,0,0.2,0,0.3v1.7h-0.3
			v-1.7c0.1-0.4-0.2-0.7-0.6-0.8c0,0,0,0,0,0h-0.2c-0.4,0-0.6,0.3-0.7,0.6v2h-0.4L61.1,171.9z"/>
		<path class="st1" d="M65,174.5c0.1,0.5,0.6,0.9,1.1,0.8h0.1L67,175l0.2,0.3l-0.9,0.3c-0.7,0.2-1.4-0.2-1.6-0.9c0,0,0,0,0-0.1v-0.2
			c-0.2-0.7,0.3-1.5,1-1.7h0.1c0.7-0.1,1.3,0.3,1.4,1c0,0,0,0.1,0,0.1l0,0v0.2L65,174.5z M66.4,173.9c0-0.4-0.3-0.7-0.7-0.7h-0.1
			c-0.4,0.1-0.7,0.5-0.7,0.9L66.4,173.9z"/>
		<path class="st1" d="M69.4,175.1l-0.7-2.4h-0.4v-0.4h0.4c-0.1-0.4-0.1-0.8,0.1-1.1c0.2-0.3,0.5-0.4,0.8-0.5h0.9l1.1,4H71l-1-3.7
			h-0.4c-0.4,0.1-0.7,0.5-0.6,0.9c0,0.1,0,0.1,0.1,0.1l0,0l0.7-0.2v0.4l-0.7,0.2l0.7,2.4L69.4,175.1z"/>
		<path class="st1" d="M71.7,171.4l1.2,1.4l0.4,0.5l0,0c0-0.2,0-0.4-0.1-0.6v-1.8l0.5-0.2v2.2c0.1,0.7,0,1.4-0.3,2
			c-0.1,0.3-0.3,0.5-0.5,0.6l-0.3-0.4l0.3-0.4c0.1-0.2,0.2-0.5,0.2-0.7l0,0l-1.9-2.1L71.7,171.4z"/>
		<path class="st1" d="M74.4,169.5c0,0.2-0.1,0.3-0.2,0.4c-0.2,0-0.3-0.1-0.4-0.2c0-0.1,0-0.3,0.2-0.4l0,0
			C74.2,169.3,74.3,169.4,74.4,169.5L74.4,169.5z M75.3,173.1l-1.1-2.7l0.5-0.2l1.1,2.7L75.3,173.1z"/>
		<path class="st1" d="M75.8,170.6l-0.4-0.7l0.4-0.2l0.2,0.4l0,0c0-0.4,0.2-0.7,0.6-0.9c0.6-0.2,1.2,0.1,1.4,0.6l0.8,1.6l-0.4,0.2
			l-0.7-1.5c-0.1-0.4-0.5-0.6-0.8-0.5c0,0,0,0-0.1,0h-0.2c-0.3,0.1-0.5,0.5-0.4,0.8v0.2l0.8,1.6l-0.4,0.2L75.8,170.6z"/>
		<path class="st1" d="M80.4,167.1l0.4,0.7l0.9,1.4c0.3,0.4,0.4,0.8,0.3,1.3c-0.1,0.3-0.4,0.6-0.7,0.8l-0.9,0.3v-0.4l0.8-0.3
			c0.4-0.2,0.6-0.8,0.4-1.2h-0.2l-0.2-0.3l0,0c0,0.4-0.2,0.7-0.5,0.9c-0.6,0.3-1.4,0.1-1.7-0.5h-0.1c-0.5-0.6-0.4-1.5,0.2-2
			c0,0,0,0,0,0h0.1c0.3-0.2,0.7-0.3,1-0.1l0,0l-0.2-0.4h0.4V167.1z M80.5,168.3l-0.2-0.2c-0.3-0.2-0.6-0.3-0.9-0.1
			c-0.4,0.3-0.5,0.9-0.2,1.3h0.1c0.2,0.5,0.7,0.7,1.2,0.5c0,0,0,0,0,0h0.1c0.2-0.2,0.4-0.5,0.3-0.8v-0.3L80.5,168.3z"/>
		<path class="st1" d="M82.1,164.9l0.5,0.7l0.6-0.4l0.2,0.3l-0.6,0.4l0.9,1.2c0.2,0.3,0.4,0.4,0.7,0.2l0.2-0.2l0.3,0.3l-0.3,0.3
			l-0.6,0.2c-0.2-0.1-0.5-0.2-0.6-0.4l-0.9-1.2l-0.3,0.3l-0.2-0.3l0.3-0.3l-0.4-0.6L82.1,164.9z"/>
		<path class="st1" d="M86.8,165.8l-0.3-0.2l0,0c0,0.3-0.1,0.7-0.4,0.9c-0.3,0.3-0.8,0.4-1.1,0.1c0,0,0,0-0.1-0.1l0,0
			c-0.4-0.5-0.2-1.2,0.6-2h-0.1c-0.2-0.2-0.5-0.3-0.8-0.1h-0.1c-0.2,0.2-0.4,0.4-0.4,0.7l-0.3-0.2c0.1-0.3,0.3-0.6,0.6-0.8
			c0.4-0.4,1-0.5,1.4-0.1l0.2,0.2l0.7,0.8l0.5,0.5L86.8,165.8z M85.7,164.7c-0.4,0.4-0.8,0.9-0.5,1.3c0.1,0.2,0.3,0.3,0.5,0.2
			c0,0,0.1,0,0.1,0H86c0.2-0.2,0.3-0.5,0.2-0.8v-0.2L85.7,164.7z"/>
		<path class="st1" d="M86.4,163.4l-0.7-0.6l0.3-0.3l0.4,0.4l0,0c-0.2-0.3-0.1-0.7,0.1-1h0.1l0.3,0.3h0c-0.2,0.3-0.2,0.6,0,0.9
			l0.2,0.2l1.1,1.1l-0.4,0.4L86.4,163.4z"/>
		<path class="st1" d="M87,160.3l0.6,0.6l0.5-0.6l0.3,0.3l-0.5,0.6l1.2,1.1c0.3,0.2,0.5,0.3,0.7,0.1l0.2-0.3l0.3,0.2l-0.3,0.4
			c-0.1,0.2-0.4,0.3-0.6,0.3c-0.3,0-0.5-0.1-0.7-0.3l-1.2-1.1l-0.3,0.3l-0.3-0.3l0.3-0.3l-0.5-0.4L87,160.3z"/>
		<path class="st1" d="M88.2,158.8c0.1,0.1,0,0.3-0.1,0.4h-0.3c-0.1-0.1-0.2-0.3-0.1-0.4c0.1-0.1,0.3-0.2,0.4-0.1
			C88.1,158.7,88.2,158.7,88.2,158.8z M90.7,161.6l-2.2-1.8l0.3-0.4l2.2,1.8L90.7,161.6z"/>
		<path class="st1" d="M91.7,160.4l-2-1.4l-0.2,0.3l-0.3-0.2l0.2-0.3h-0.1c-0.3-0.2-0.5-0.5-0.6-0.9c0-0.3,0.1-0.6,0.3-0.9
			c0.2-0.3,0.4-0.5,0.7-0.6l3.3,2.4l-0.3,0.4l-3.1-2.2l-0.3,0.3c-0.2,0.3-0.2,0.7,0.1,1c0,0,0,0,0,0h0.3l0.4-0.6l0.3,0.2l-0.4,0.6
			l2,1.4L91.7,160.4z"/>
		<path class="st1" d="M92.6,156.8c0.4,0.3,1,0.2,1.3-0.2H94c0.2-0.2,0.3-0.5,0.3-0.8h0.4c0,0.3-0.1,0.6-0.3,0.9
			c-0.4,0.6-1.1,0.9-1.8,0.6h-0.2c-0.7-0.3-1-1.1-0.7-1.8h0.1c0.3-0.6,1.1-0.8,1.6-0.4c0,0,0,0,0.1,0h0.1l0.2,0.2L92.6,156.8z
			 M93,155.3c-0.3-0.2-0.7-0.2-1,0.1c0,0,0,0,0,0h-0.1c-0.2,0.4,0,0.9,0.3,1.1L93,155.3z"/>
		<path class="st1" d="M92.1,152.7l0.7,0.4l0.3-0.7l0.3,0.2l-0.3,0.7l1.4,0.7c0.3,0.2,0.6,0.2,0.7-0.1v-0.3l0.3,0.2
			c0,0.1-0.1,0.3-0.2,0.4c-0.1,0.2-0.2,0.3-0.4,0.4c-0.3,0.1-0.6,0-0.8-0.2l-1.4-0.7l-0.2,0.4l-0.3-0.2l0.2-0.4l-0.6-0.3L92.1,152.7
			z"/>
		<path class="st1" d="M93,151l0.8,0.3l0.3-0.7l0.4,0.2l-0.3,0.7l1.4,0.6c0.3,0.2,0.6,0.1,0.7-0.1v-0.3h0.4c0,0.1,0,0.3-0.1,0.4
			c-0.1,0.2-0.2,0.3-0.4,0.4h-0.8l-1.4-0.7l-0.2,0.4l-0.4-0.2l0.2-0.4l-0.6-0.3V151z"/>
		<path class="st1" d="M95.8,150.4c0.5,0.2,1,0,1.2-0.5c0,0,0,0,0,0h0.1c0.1-0.3,0.1-0.5,0.1-0.8h0.4c0,0.3-0.1,0.6-0.2,0.9
			c-0.2,0.7-0.9,1.1-1.6,0.9c0,0-0.1,0-0.1,0h-0.1c-0.8-0.1-1.3-0.9-1.1-1.6c0,0,0,0,0-0.1h0.1c0.2-0.6,0.9-0.9,1.5-0.7
			c0,0,0,0,0.1,0h0.3L95.8,150.4z M96,148.8c-0.3-0.2-0.8-0.2-1,0.2c0,0,0,0,0,0v0.2c-0.1,0.4,0.1,0.9,0.5,1.1L96,148.8z"/>
		<path class="st1" d="M95.6,146h2.5l-0.8-0.4l-1.3-0.8v-0.4h2.5l-0.8-0.4l-1.3-0.7v-0.5l2.6,1.6v0.4h-2.5l0.9,0.4l1.2,0.8v0.4
			l-3,0.2V146z"/>
		<path class="st1" d="M98,141.9c0.5,0.1,1-0.2,1.1-0.7c0,0,0-0.1,0-0.1l0,0c0-0.3,0-0.5-0.1-0.8h0.4c0.1,0.3,0.1,0.6,0.1,0.9
			c-0.1,0.7-0.7,1.3-1.4,1.2c0,0,0,0,0,0h-0.2c-0.8,0-1.4-0.6-1.4-1.4l0,0c0.1-0.7,0.7-1.1,1.4-1c0,0,0,0,0,0h0.3L98,141.9z
			 M97.8,140.3c-0.4-0.1-0.8,0-0.9,0.4c0,0.1,0,0.2-0.1,0.2c0,0.4,0.3,0.8,0.7,0.9L97.8,140.3z"/>
		<path class="st1" d="M96.1,137h0.8v-0.7h0.4v0.7h1.6c0.3,0,0.6-0.1,0.6-0.4v-0.3h0.4c0.1,0.1,0.1,0.3,0.1,0.4c0,0.2,0,0.4-0.2,0.6
			c-0.2,0.2-0.5,0.3-0.8,0.2h-1.7v0.5h-0.4v-0.4h-0.6L96.1,137z"/>
		<path class="st1" d="M97.8,135.8h-0.9v-0.4h0.6c-0.4-0.1-0.7-0.4-0.7-0.8v-0.2h0.5v0.2c0,0.4,0.3,0.7,0.7,0.7h1.8v0.5H97.8z"/>
		<path class="st1" d="M98.7,131.3h0.8v0.4H99c0.5,0.3,0.6,1,0.3,1.5c-0.2,0.3-0.5,0.5-0.9,0.5l-1.7,0.2v-0.4l1.6-0.2
			c0.6-0.1,0.9-0.3,0.8-0.7c-0.1-0.3-0.3-0.6-0.6-0.7h-0.1l-1.8,0.2v-0.5L98.7,131.3z"/>
		<path class="st1" d="M98.8,130.4c0.1-0.2,0.1-0.5,0.1-0.7c0.1-0.2-0.1-0.4-0.3-0.5c0,0-0.1,0-0.1,0h-0.1c-0.3,0.1-0.4,0.3-0.4,0.6
			c0,0.4-0.3,0.8-0.7,0.9c-0.5,0.1-0.9-0.3-1-0.8c0,0,0,0,0,0l0,0c0-0.2,0-0.5,0.1-0.7h0.4c-0.1,0.2-0.1,0.4-0.1,0.6
			c0,0.2,0.2,0.4,0.4,0.4c0.3-0.1,0.4-0.3,0.4-0.6c0-0.4,0.3-0.8,0.7-0.9c0.5-0.1,1,0.2,1.1,0.7c0,0.1,0,0.1,0,0.2
			c0,0.3,0,0.5-0.1,0.8H98.8z"/>
		<path class="st1" d="M95.1,128l0.8-0.2l-0.2-0.7h0.4l0.2,0.7l1.5-0.3c0.2,0,0.4-0.2,0.4-0.4c0,0,0-0.1,0-0.1v-0.3h0.4
			c0.1,0.1,0.2,0.3,0.2,0.4c0,0.2,0,0.4-0.1,0.6c-0.2,0.2-0.4,0.4-0.7,0.4l-1.5,0.3v0.4h-0.4v-0.4l-0.7,0.2L95.1,128z"/>
	</g>
	<path class="st2" d="M46.6,126.2c-0.1,4.2-1.3,8.3-3.6,11.8c-3.1-1.9-12.4-8.1-13.5-9.2s-2.5-2.7-0.6-5.9c-2,0.5-7.2,6.6-0.4,8.6
		c-1.7,6.2-1.6,12.8,0.3,19c0.4,0.6,0.9,1.2,1.4,1.8c-0.5-3.1-1.3-7.6,1.1-12.8l10.1,11.6c-0.8,4.1-2,8.1-3.6,11.9
		c0.3,0.6,0.8,1.1,1.2,1.6c3.5-5.8,11.3-23,10.9-35.6C49,128.2,46.6,126.2,46.6,126.2z"/>
	<path class="st3" d="M43.8,122.2c-3.2-7.1-13-19.6-17.7-21.4s-12.9-1.5-9.8,12.2c-3.3-4.7-3.6-14.2,2.9-17.6s18.4-0.7,30.7,21.2
		C47.3,120.8,44.7,122.1,43.8,122.2z"/>
	<path class="st3" d="M61.2,115c-1.9-5.4-8.9-25.8-15.6-29.3s-12,1.3-12.8,3.9s-1.4,6.7-0.2,10c-0.2-4,0.4-10.4,4.9-11.5
		s9.8,5.4,15.5,27.8C55.3,116.4,59.4,116.6,61.2,115z"/>
	<path class="st4" d="M57,136.3c-0.2,2.2-0.8,8,5.4,8.5c-2.3-2.2-2.3-5.2-1.4-8.5H57z"/>
	<g id="bouche">
		<path class="st5" d="M60.6,133l6.6-3.1c0.5-0.2,1.1,0,1.3,0.5l0.8,1.8c0.2,0.5,0,1.1-0.5,1.3l-6.6,3.1c-0.5,0.2-1.1,0-1.3-0.5
			l-0.8-1.8C59.9,133.8,60.1,133.2,60.6,133z"/>
		<path class="st1" d="M68.6,132.2c0.1,0.4-0.1,0.9-0.5,1l0,0l-5.5,2.6c-0.3,0.2-0.7,0.2-1-0.1c0-0.1-0.1-0.1-0.1-0.2l-0.5-1.2
			c-0.1-0.4,0.1-0.9,0.5-1l0,0l5.5-2.6c0.3-0.2,0.7-0.2,1,0.1c0,0.1,0.1,0.1,0.1,0.2L68.6,132.2z"/>
		<line class="st6" x1="60.8" y1="135.1" x2="68.6" y2="131.5"/>
		<line class="st6" x1="64" y1="131.7" x2="65.5" y2="134.9"/>
		<line class="st6" x1="62.8" y1="132.4" x2="64.3" y2="135.5"/>
		<line class="st6" x1="61.6" y1="132.9" x2="63" y2="136"/>
		<line class="st6" x1="66.5" y1="130.6" x2="67.9" y2="133.8"/>
		<line class="st6" x1="65.3" y1="131.2" x2="66.7" y2="134.3"/>
		<path class="st2" d="M69.3,132.2l-0.8-1.8c-0.2-0.5-0.8-0.8-1.3-0.6c0,0,0,0,0,0h-0.1l-6.5,3c-0.5,0.2-0.8,0.8-0.6,1.3
			c0,0,0,0,0,0h0.1l0.8,1.8c0.2,0.5,0.8,0.8,1.3,0.6c0,0,0,0,0,0h0.1l6.5-3C69.3,133.2,69.5,132.6,69.3,132.2
			c-0.1-0.1-0.1-0.1-0.1-0.1l0,0L69.3,132.2z M68.1,133.2l-5.5,2.6c-0.3,0.2-0.7,0.2-1-0.1c0-0.1-0.1-0.1-0.1-0.2l-0.5-1.2
			c-0.1-0.4,0.1-0.9,0.5-1l0,0l5.5-2.6c0.3-0.2,0.7-0.2,1,0.1c0,0.1,0.1,0.1,0.1,0.2l0.6,1.2C68.8,132.6,68.6,133,68.1,133.2
			L68.1,133.2L68.1,133.2z"/>
	</g>
	<path class="st2" d="M46.8,124.1c-1.2-0.5-5.7-1.4-6.9,4.1C44.3,129.6,46.8,127.1,46.8,124.1z"/>
	<path class="st2" d="M67.9,115.7c-1.1-0.7-5.4-2.3-7.4,3C64.5,120.7,67.3,118.6,67.9,115.7z"/>
	<path class="st2" d="M43.8,122.2c1.3-4.1,8-10.6,17.4-7.2c2.1,5.4,7.5,18.8,0.3,22.2S45.7,127.4,43.8,122.2z"/>
	<path class="st4" d="M47.1,121.6l-0.8-0.3c0.4-0.9,1.1-1.7,1.9-2.2l0.3,0.8C47.9,120.3,47.4,120.9,47.1,121.6z"/>
	<path class="st4" d="M57,116.7l-0.2-0.8c1-0.2,2-0.1,2.9,0.3l-0.4,0.7C58.6,116.6,57.8,116.5,57,116.7z"/>
	<path class="st4" d="M60.5,135.9L60.5,135.9l-0.1-0.4L60.5,135.9z"/>
	<path class="st4" d="M61.6,135.4v-0.2l0,0V135l0,0v-0.3H62V134h-0.5L61.6,135.4L61.6,135.4L61.6,135.4z"/>
	<g id="oeil_droit">
		<circle class="st1" cx="63" cy="123.7" r="3.7"/>
		<circle class="st4" cx="61.3" cy="125.7" r="0.7"/>
	</g>
	<g id="oeil_gauche">
		<circle class="st1" cx="49.9" cy="129" r="3.7"/>
		<circle class="st4" cx="50.8" cy="126.3" r="0.7"/>
	</g>
</g>
<g id="montagne">
	<polyline class="st7" points="156.6,238.8 132.7,216 120.2,204.7 106.9,224 86.4,189 72.4,210.7 6.6,116.4 -19,238.8 	"/>
	<polygon class="st8" points="19,154 41.3,166.1 6.6,116.4 -1.7,155.2 4.5,168.7 9.3,148 15.7,158.2 	"/>
	<polygon class="st8" points="92.8,199.9 86.4,189 79.4,199.9 83.6,196.7 87.2,204.9 89.6,199.1 	"/>
	<polygon class="st8" points="128,211.7 120.2,204.7 113.5,214.5 119.8,210.2 121.8,212.6 122.8,210.8 	"/>
</g>
<g id="edelweiss">
	<g id="tige">
		<path class="st9" d="M259.3,209.8h0.9c-1.1-16.9-4.3-23.7-6-27.4l-0.7-1.4l-0.8,0.3l0.7,1.5C255.1,186.3,258.2,193,259.3,209.8z"
			/>
		<path class="st9" d="M258.9,186.5c-0.3,3.3-0.3,6.5-0.2,9.8c-0.2,0.8-0.8,0.1-1.1-0.8C257.6,192.5,258,189.4,258.9,186.5z"/>
		<path class="st9" d="M260.4,194.9c-0.4,3.3-0.6,6.5-0.7,9.8c-0.3,0.8-0.8,0.1-1.1-0.9C258.8,200.8,259.4,197.8,260.4,194.9z"/>
		<path class="st9" d="M251.9,189.5c2.2,2.4,4.2,5,6,7.7c0.7,0.6,0.7-0.4,0.3-1.3C256.4,193.5,254.3,191.3,251.9,189.5z"/>
	</g>
	<path class="st10" d="M246.5,180.1c0.7-0.6,1.5-1.1,2.3-1.4l0.6-0.9c-1.1-0.2-2.1-0.3-3.2-0.4c-0.2-0.1,0.2-0.5,1.3-0.7
		c1.3-0.2,2.7-0.1,3.9,0.4c0.4-1.2,1-2.2,1.8-3.1c0.8-0.8,1.3-0.9,1.3-0.7s-1.3,2.1-1.4,3c-0.1,0.3-0.1,0.5-0.1,0.8
		c1.6-0.5,3.2-0.5,4.8-0.2c1.1,0.3,1.4,0.8,1.2,0.9s-2.3-0.2-3.2-0.1c0.6,0.3,1.1,0.8,1.4,1.4c-0.3,0.4-0.8,0.6-1.3,0.7
		c0.6,0.5,1.1,1,1.5,1.6c0.6,1.1,0.5,1.6,0.3,1.6c-0.8-0.9-1.7-1.7-2.6-2.4l-0.5-0.2l-0.4,0.2c0,0,0.3,1.7-0.6,2s-1.4-0.9-1.8-1.7
		l-0.4,0.9c-0.3,1.2-0.5,2.3-0.6,3.5c-0.1,0.2-0.6-0.2-0.7-1.4c-0.1-1,0-2,0.2-3c-0.9,0.5-1.8,0.9-2,0.6c-0.1-0.4-0.1-0.7,0-1.1
		c-0.8,0.4-1.6,0.8-2.3,1.2C245.8,181.6,245.7,180.9,246.5,180.1z"/>
	<path class="st1" d="M245.1,179.2c1.3-1.2,2.9-1.9,4.6-2.1l0.2,0.2l0,0l-1.3-0.7c-0.9-0.4-3.7-0.4-3.8-0.6s0.2-0.6,1.5-0.8
		c1.5-0.2,3.1-0.1,4.5,0.4c0.4-1.3,1.2-2.6,2.1-3.6c0.9-1,1.5-1,1.5-0.8c-0.6,1.1-1.2,2.3-1.7,3.5c-0.1,0.3-0.2,0.6-0.1,0.9
		c1.8-0.6,3.7-0.7,5.6-0.3c1.2,0.4,1.6,0.9,1.4,1s-2.8-0.3-3.9,0l-2.1,0.8c1.6,0.8,2.9,2,4,3.4c0.6,0.9,0.6,1.8,0.3,1.8
		s-2-2.3-3-2.8c-0.9-0.5-1.9-0.8-3-0.8c-0.6,0.6-1.1,1.4-1.4,2.2c-0.5,1-0.5,3.9-0.6,4.1s-0.6-0.2-0.8-1.6c-0.2-1.6,0.1-3.2,0.7-4.7
		l-2,0.4c-1.2,0.5-2.3,1-3.4,1.6C244,180.6,244.2,180.2,245.1,179.2z"/>
	<g>
		<ellipse transform="matrix(0.9511 -0.309 0.309 0.9511 -42.3605 86.3943)" class="st0" cx="251.6" cy="176.9" rx="0.7" ry="0.6"/>
		
			<ellipse transform="matrix(0.9507 -0.3102 0.3102 0.9507 -42.1163 87.0341)" class="st0" cx="252.6" cy="175.9" rx="0.7" ry="0.6"/>
		<ellipse transform="matrix(0.9511 -0.309 0.309 0.9511 -42.5019 86.7533)" class="st0" cx="252.6" cy="177.5" rx="0.7" ry="0.6"/>
		<ellipse transform="matrix(0.9511 -0.309 0.309 0.9511 -42.7548 86.2969)" class="st0" cx="251.1" cy="178.1" rx="0.7" ry="0.6"/>
		<ellipse transform="matrix(0.9511 -0.309 0.309 0.9511 -42.5125 85.9325)" class="st0" cx="250" cy="177.2" rx="0.6" ry="0.5"/>
		<ellipse transform="matrix(0.9511 -0.309 0.309 0.9511 -42.1369 86.0411)" class="st0" cx="250.6" cy="176" rx="0.6" ry="0.4"/>
		<ellipse transform="matrix(0.9511 -0.309 0.309 0.9511 -41.9687 86.4002)" class="st0" cx="251.8" cy="175.7" rx="0.6" ry="0.4"/>
	</g>
</g>
<text transform="matrix(1 0 0 1 49 38.2)" class="st11 st12 st13">B</text>
<text transform="matrix(1 0 0 1 65.3 38.2)" class="st11 st12 st13">o</text>
<text transform="matrix(1 0 0 1 79.6 38.2)" class="st11 st12 st13">rn</text>
<text transform="matrix(1 0 0 1 107.9 38.2)" class="st11 st12 st13">e</text>
<text transform="matrix(1 0 0 1 121.3 38.2)" class="st11 st12 st13">s </text>
<text transform="matrix(1 0 0 1 143.9 38.2)" class="st11 st12 st13">t</text>
<text transform="matrix(1 0 0 1 156.8 38.2)" class="st11 st12 st13">o </text>
<text transform="matrix(1 0 0 1 180.4 38.2)" class="st11 st12 st13 st14">C</text>
<text transform="matrix(1 0 0 1 191.6 38.2)" class="st11 st12 st13">a</text>
<text transform="matrix(1 0 0 1 208.9 38.2)" class="st11 st12 st13">t</text>
<text transform="matrix(1 0 0 1 222.1 38.2)" class="st11 st12 st13">c</text>
<text transform="matrix(1 0 0 1 235.9 38.2)" class="st11 st12 st13">h</text>
<text transform="matrix(1 0 0 1 89 57)" class="st11 st15 st16">20/21 Août 2016</text>
<text transform="matrix(1 0 0 1 113.7 74.5999)" class="st11 st17 st18">A Saint-Fer</text>
<text transform="matrix(1 0 0 1 176.7 74.5999)" class="st11 st17 st18">r</text>
<text transform="matrix(1 0 0 1 181.3 74.5999)" class="st11 st17 st18">eol</text>
<g>
	<rect x="222" y="109.8" class="st1" width="62" height="62"/>
	<rect x="225.7" y="113.5" class="st19" width="2.2" height="2.2"/>
	<rect x="227.9" y="113.5" class="st19" width="2.2" height="2.2"/>
	<rect x="230.1" y="113.5" class="st19" width="2.2" height="2.2"/>
	<rect x="232.2" y="113.5" class="st19" width="2.2" height="2.2"/>
	<rect x="234.4" y="113.5" class="st19" width="2.2" height="2.2"/>
	<rect x="236.6" y="113.5" class="st19" width="2.2" height="2.2"/>
	<rect x="238.8" y="113.5" class="st19" width="2.2" height="2.2"/>
	<rect x="243.1" y="113.5" class="st19" width="2.2" height="2.2"/>
	<rect x="245.3" y="113.5" class="st19" width="2.2" height="2.2"/>
	<rect x="249.6" y="113.5" class="st19" width="2.2" height="2.2"/>
	<rect x="256.1" y="113.5" class="st19" width="2.2" height="2.2"/>
	<rect x="258.3" y="113.5" class="st19" width="2.2" height="2.2"/>
	<rect x="260.5" y="113.5" class="st19" width="2.2" height="2.2"/>
	<rect x="264.8" y="113.5" class="st19" width="2.2" height="2.2"/>
	<rect x="267" y="113.5" class="st19" width="2.2" height="2.2"/>
	<rect x="269.1" y="113.5" class="st19" width="2.2" height="2.2"/>
	<rect x="271.3" y="113.5" class="st19" width="2.2" height="2.2"/>
	<rect x="273.5" y="113.5" class="st19" width="2.2" height="2.2"/>
	<rect x="275.6" y="113.5" class="st19" width="2.2" height="2.2"/>
	<rect x="277.8" y="113.5" class="st19" width="2.2" height="2.2"/>
	<rect x="225.7" y="115.7" class="st19" width="2.2" height="2.2"/>
	<rect x="238.8" y="115.7" class="st19" width="2.2" height="2.2"/>
	<rect x="243.1" y="115.7" class="st19" width="2.2" height="2.2"/>
	<rect x="247.4" y="115.7" class="st19" width="2.2" height="2.2"/>
	<rect x="253.9" y="115.7" class="st19" width="2.2" height="2.2"/>
	<rect x="256.1" y="115.7" class="st19" width="2.2" height="2.2"/>
	<rect x="260.5" y="115.7" class="st19" width="2.2" height="2.2"/>
	<rect x="264.8" y="115.7" class="st19" width="2.2" height="2.2"/>
	<rect x="277.8" y="115.7" class="st19" width="2.2" height="2.2"/>
	<rect x="225.7" y="117.8" class="st19" width="2.2" height="2.2"/>
	<rect x="230.1" y="117.8" class="st19" width="2.2" height="2.2"/>
	<rect x="232.2" y="117.8" class="st19" width="2.2" height="2.2"/>
	<rect x="234.4" y="117.8" class="st19" width="2.2" height="2.2"/>
	<rect x="238.8" y="117.8" class="st19" width="2.2" height="2.2"/>
	<rect x="243.1" y="117.8" class="st19" width="2.2" height="2.2"/>
	<rect x="245.3" y="117.8" class="st19" width="2.2" height="2.2"/>
	<rect x="251.8" y="117.8" class="st19" width="2.2" height="2.2"/>
	<rect x="258.3" y="117.8" class="st19" width="2.2" height="2.2"/>
	<rect x="260.5" y="117.8" class="st19" width="2.2" height="2.2"/>
	<rect x="264.8" y="117.8" class="st19" width="2.2" height="2.2"/>
	<rect x="269.1" y="117.8" class="st19" width="2.2" height="2.2"/>
	<rect x="271.3" y="117.8" class="st19" width="2.2" height="2.2"/>
	<rect x="273.5" y="117.8" class="st19" width="2.2" height="2.2"/>
	<rect x="277.8" y="117.8" class="st19" width="2.2" height="2.2"/>
	<rect x="225.7" y="120" class="st19" width="2.2" height="2.2"/>
	<rect x="230.1" y="120" class="st19" width="2.2" height="2.2"/>
	<rect x="232.2" y="120" class="st19" width="2.2" height="2.2"/>
	<rect x="234.4" y="120" class="st19" width="2.2" height="2.2"/>
	<rect x="238.8" y="120" class="st19" width="2.2" height="2.2"/>
	<rect x="243.1" y="120" class="st19" width="2.2" height="2.2"/>
	<rect x="245.3" y="120" class="st19" width="2.2" height="2.2"/>
	<rect x="247.4" y="120" class="st19" width="2.2" height="2.2"/>
	<rect x="253.9" y="120" class="st19" width="2.2" height="2.2"/>
	<rect x="256.1" y="120" class="st19" width="2.2" height="2.2"/>
	<rect x="258.3" y="120" class="st19" width="2.2" height="2.2"/>
	<rect x="260.5" y="120" class="st19" width="2.2" height="2.2"/>
	<rect x="264.8" y="120" class="st19" width="2.2" height="2.2"/>
	<rect x="269.1" y="120" class="st19" width="2.2" height="2.2"/>
	<rect x="271.3" y="120" class="st19" width="2.2" height="2.2"/>
	<rect x="273.5" y="120" class="st19" width="2.2" height="2.2"/>
	<rect x="277.8" y="120" class="st19" width="2.2" height="2.2"/>
	<rect x="225.7" y="122.2" class="st19" width="2.2" height="2.2"/>
	<rect x="230.1" y="122.2" class="st19" width="2.2" height="2.2"/>
	<rect x="232.2" y="122.2" class="st19" width="2.2" height="2.2"/>
	<rect x="234.4" y="122.2" class="st19" width="2.2" height="2.2"/>
	<rect x="238.8" y="122.2" class="st19" width="2.2" height="2.2"/>
	<rect x="245.3" y="122.2" class="st19" width="2.2" height="2.2"/>
	<rect x="249.6" y="122.2" class="st19" width="2.2" height="2.2"/>
	<rect x="253.9" y="122.2" class="st19" width="2.2" height="2.2"/>
	<rect x="258.3" y="122.2" class="st19" width="2.2" height="2.2"/>
	<rect x="260.5" y="122.2" class="st19" width="2.2" height="2.2"/>
	<rect x="264.8" y="122.2" class="st19" width="2.2" height="2.2"/>
	<rect x="269.1" y="122.2" class="st19" width="2.2" height="2.2"/>
	<rect x="271.3" y="122.2" class="st19" width="2.2" height="2.2"/>
	<rect x="273.5" y="122.2" class="st19" width="2.2" height="2.2"/>
	<rect x="277.8" y="122.2" class="st19" width="2.2" height="2.2"/>
	<rect x="225.7" y="124.3" class="st19" width="2.2" height="2.2"/>
	<rect x="238.8" y="124.3" class="st19" width="2.2" height="2.2"/>
	<rect x="243.1" y="124.3" class="st19" width="2.2" height="2.2"/>
	<rect x="245.3" y="124.3" class="st19" width="2.2" height="2.2"/>
	<rect x="247.4" y="124.3" class="st19" width="2.2" height="2.2"/>
	<rect x="253.9" y="124.3" class="st19" width="2.2" height="2.2"/>
	<rect x="264.8" y="124.3" class="st19" width="2.2" height="2.2"/>
	<rect x="277.8" y="124.3" class="st19" width="2.2" height="2.2"/>
	<rect x="225.7" y="126.5" class="st19" width="2.2" height="2.2"/>
	<rect x="227.9" y="126.5" class="st19" width="2.2" height="2.2"/>
	<rect x="230.1" y="126.5" class="st19" width="2.2" height="2.2"/>
	<rect x="232.2" y="126.5" class="st19" width="2.2" height="2.2"/>
	<rect x="234.4" y="126.5" class="st19" width="2.2" height="2.2"/>
	<rect x="236.6" y="126.5" class="st19" width="2.2" height="2.2"/>
	<rect x="238.8" y="126.5" class="st19" width="2.2" height="2.2"/>
	<rect x="243.1" y="126.5" class="st19" width="2.2" height="2.2"/>
	<rect x="247.4" y="126.5" class="st19" width="2.2" height="2.2"/>
	<rect x="251.8" y="126.5" class="st19" width="2.2" height="2.2"/>
	<rect x="256.1" y="126.5" class="st19" width="2.2" height="2.2"/>
	<rect x="260.5" y="126.5" class="st19" width="2.2" height="2.2"/>
	<rect x="264.8" y="126.5" class="st19" width="2.2" height="2.2"/>
	<rect x="267" y="126.5" class="st19" width="2.2" height="2.2"/>
	<rect x="269.1" y="126.5" class="st19" width="2.2" height="2.2"/>
	<rect x="271.3" y="126.5" class="st19" width="2.2" height="2.2"/>
	<rect x="273.5" y="126.5" class="st19" width="2.2" height="2.2"/>
	<rect x="275.6" y="126.5" class="st19" width="2.2" height="2.2"/>
	<rect x="277.8" y="126.5" class="st19" width="2.2" height="2.2"/>
	<rect x="247.4" y="128.7" class="st19" width="2.2" height="2.2"/>
	<rect x="256.1" y="128.7" class="st19" width="2.2" height="2.2"/>
	<rect x="258.3" y="128.7" class="st19" width="2.2" height="2.2"/>
	<rect x="225.7" y="130.8" class="st19" width="2.2" height="2.2"/>
	<rect x="227.9" y="130.8" class="st19" width="2.2" height="2.2"/>
	<rect x="234.4" y="130.8" class="st19" width="2.2" height="2.2"/>
	<rect x="236.6" y="130.8" class="st19" width="2.2" height="2.2"/>
	<rect x="238.8" y="130.8" class="st19" width="2.2" height="2.2"/>
	<rect x="247.4" y="130.8" class="st19" width="2.2" height="2.2"/>
	<rect x="251.8" y="130.8" class="st19" width="2.2" height="2.2"/>
	<rect x="267" y="130.8" class="st19" width="2.2" height="2.2"/>
	<rect x="271.3" y="130.8" class="st19" width="2.2" height="2.2"/>
	<rect x="273.5" y="130.8" class="st19" width="2.2" height="2.2"/>
	<rect x="275.6" y="130.8" class="st19" width="2.2" height="2.2"/>
	<rect x="277.8" y="130.8" class="st19" width="2.2" height="2.2"/>
	<rect x="225.7" y="133" class="st19" width="2.2" height="2.2"/>
	<rect x="227.9" y="133" class="st19" width="2.2" height="2.2"/>
	<rect x="230.1" y="133" class="st19" width="2.2" height="2.2"/>
	<rect x="232.2" y="133" class="st19" width="2.2" height="2.2"/>
	<rect x="240.9" y="133" class="st19" width="2.2" height="2.2"/>
	<rect x="249.6" y="133" class="st19" width="2.2" height="2.2"/>
	<rect x="256.1" y="133" class="st19" width="2.2" height="2.2"/>
	<rect x="258.3" y="133" class="st19" width="2.2" height="2.2"/>
	<rect x="260.5" y="133" class="st19" width="2.2" height="2.2"/>
	<rect x="262.6" y="133" class="st19" width="2.2" height="2.2"/>
	<rect x="269.1" y="133" class="st19" width="2.2" height="2.2"/>
	<rect x="271.3" y="133" class="st19" width="2.2" height="2.2"/>
	<rect x="275.6" y="133" class="st19" width="2.2" height="2.2"/>
	<rect x="225.7" y="135.2" class="st19" width="2.2" height="2.2"/>
	<rect x="227.9" y="135.2" class="st19" width="2.2" height="2.2"/>
	<rect x="230.1" y="135.2" class="st19" width="2.2" height="2.2"/>
	<rect x="232.2" y="135.2" class="st19" width="2.2" height="2.2"/>
	<rect x="236.6" y="135.2" class="st19" width="2.2" height="2.2"/>
	<rect x="238.8" y="135.2" class="st19" width="2.2" height="2.2"/>
	<rect x="243.1" y="135.2" class="st19" width="2.2" height="2.2"/>
	<rect x="245.3" y="135.2" class="st19" width="2.2" height="2.2"/>
	<rect x="247.4" y="135.2" class="st19" width="2.2" height="2.2"/>
	<rect x="249.6" y="135.2" class="st19" width="2.2" height="2.2"/>
	<rect x="256.1" y="135.2" class="st19" width="2.2" height="2.2"/>
	<rect x="258.3" y="135.2" class="st19" width="2.2" height="2.2"/>
	<rect x="260.5" y="135.2" class="st19" width="2.2" height="2.2"/>
	<rect x="267" y="135.2" class="st19" width="2.2" height="2.2"/>
	<rect x="269.1" y="135.2" class="st19" width="2.2" height="2.2"/>
	<rect x="271.3" y="135.2" class="st19" width="2.2" height="2.2"/>
	<rect x="273.5" y="135.2" class="st19" width="2.2" height="2.2"/>
	<rect x="225.7" y="137.4" class="st19" width="2.2" height="2.2"/>
	<rect x="227.9" y="137.4" class="st19" width="2.2" height="2.2"/>
	<rect x="232.2" y="137.4" class="st19" width="2.2" height="2.2"/>
	<rect x="236.6" y="137.4" class="st19" width="2.2" height="2.2"/>
	<rect x="240.9" y="137.4" class="st19" width="2.2" height="2.2"/>
	<rect x="245.3" y="137.4" class="st19" width="2.2" height="2.2"/>
	<rect x="251.8" y="137.4" class="st19" width="2.2" height="2.2"/>
	<rect x="267" y="137.4" class="st19" width="2.2" height="2.2"/>
	<rect x="269.1" y="137.4" class="st19" width="2.2" height="2.2"/>
	<rect x="273.5" y="137.4" class="st19" width="2.2" height="2.2"/>
	<rect x="275.6" y="137.4" class="st19" width="2.2" height="2.2"/>
	<rect x="230.1" y="139.5" class="st19" width="2.2" height="2.2"/>
	<rect x="234.4" y="139.5" class="st19" width="2.2" height="2.2"/>
	<rect x="238.8" y="139.5" class="st19" width="2.2" height="2.2"/>
	<rect x="243.1" y="139.5" class="st19" width="2.2" height="2.2"/>
	<rect x="249.6" y="139.5" class="st19" width="2.2" height="2.2"/>
	<rect x="251.8" y="139.5" class="st19" width="2.2" height="2.2"/>
	<rect x="258.3" y="139.5" class="st19" width="2.2" height="2.2"/>
	<rect x="262.6" y="139.5" class="st19" width="2.2" height="2.2"/>
	<rect x="264.8" y="139.5" class="st19" width="2.2" height="2.2"/>
	<rect x="267" y="139.5" class="st19" width="2.2" height="2.2"/>
	<rect x="271.3" y="139.5" class="st19" width="2.2" height="2.2"/>
	<rect x="273.5" y="139.5" class="st19" width="2.2" height="2.2"/>
	<rect x="275.6" y="139.5" class="st19" width="2.2" height="2.2"/>
	<rect x="277.8" y="139.5" class="st19" width="2.2" height="2.2"/>
	<rect x="225.7" y="141.7" class="st19" width="2.2" height="2.2"/>
	<rect x="230.1" y="141.7" class="st19" width="2.2" height="2.2"/>
	<rect x="236.6" y="141.7" class="st19" width="2.2" height="2.2"/>
	<rect x="243.1" y="141.7" class="st19" width="2.2" height="2.2"/>
	<rect x="247.4" y="141.7" class="st19" width="2.2" height="2.2"/>
	<rect x="249.6" y="141.7" class="st19" width="2.2" height="2.2"/>
	<rect x="251.8" y="141.7" class="st19" width="2.2" height="2.2"/>
	<rect x="253.9" y="141.7" class="st19" width="2.2" height="2.2"/>
	<rect x="258.3" y="141.7" class="st19" width="2.2" height="2.2"/>
	<rect x="262.6" y="141.7" class="st19" width="2.2" height="2.2"/>
	<rect x="269.1" y="141.7" class="st19" width="2.2" height="2.2"/>
	<rect x="275.6" y="141.7" class="st19" width="2.2" height="2.2"/>
	<rect x="230.1" y="143.9" class="st19" width="2.2" height="2.2"/>
	<rect x="238.8" y="143.9" class="st19" width="2.2" height="2.2"/>
	<rect x="249.6" y="143.9" class="st19" width="2.2" height="2.2"/>
	<rect x="251.8" y="143.9" class="st19" width="2.2" height="2.2"/>
	<rect x="256.1" y="143.9" class="st19" width="2.2" height="2.2"/>
	<rect x="258.3" y="143.9" class="st19" width="2.2" height="2.2"/>
	<rect x="262.6" y="143.9" class="st19" width="2.2" height="2.2"/>
	<rect x="271.3" y="143.9" class="st19" width="2.2" height="2.2"/>
	<rect x="273.5" y="143.9" class="st19" width="2.2" height="2.2"/>
	<rect x="234.4" y="146" class="st19" width="2.2" height="2.2"/>
	<rect x="243.1" y="146" class="st19" width="2.2" height="2.2"/>
	<rect x="245.3" y="146" class="st19" width="2.2" height="2.2"/>
	<rect x="249.6" y="146" class="st19" width="2.2" height="2.2"/>
	<rect x="251.8" y="146" class="st19" width="2.2" height="2.2"/>
	<rect x="258.3" y="146" class="st19" width="2.2" height="2.2"/>
	<rect x="260.5" y="146" class="st19" width="2.2" height="2.2"/>
	<rect x="262.6" y="146" class="st19" width="2.2" height="2.2"/>
	<rect x="264.8" y="146" class="st19" width="2.2" height="2.2"/>
	<rect x="267" y="146" class="st19" width="2.2" height="2.2"/>
	<rect x="271.3" y="146" class="st19" width="2.2" height="2.2"/>
	<rect x="273.5" y="146" class="st19" width="2.2" height="2.2"/>
	<rect x="275.6" y="146" class="st19" width="2.2" height="2.2"/>
	<rect x="225.7" y="148.2" class="st19" width="2.2" height="2.2"/>
	<rect x="227.9" y="148.2" class="st19" width="2.2" height="2.2"/>
	<rect x="232.2" y="148.2" class="st19" width="2.2" height="2.2"/>
	<rect x="234.4" y="148.2" class="st19" width="2.2" height="2.2"/>
	<rect x="238.8" y="148.2" class="st19" width="2.2" height="2.2"/>
	<rect x="245.3" y="148.2" class="st19" width="2.2" height="2.2"/>
	<rect x="251.8" y="148.2" class="st19" width="2.2" height="2.2"/>
	<rect x="258.3" y="148.2" class="st19" width="2.2" height="2.2"/>
	<rect x="260.5" y="148.2" class="st19" width="2.2" height="2.2"/>
	<rect x="262.6" y="148.2" class="st19" width="2.2" height="2.2"/>
	<rect x="264.8" y="148.2" class="st19" width="2.2" height="2.2"/>
	<rect x="267" y="148.2" class="st19" width="2.2" height="2.2"/>
	<rect x="269.1" y="148.2" class="st19" width="2.2" height="2.2"/>
	<rect x="271.3" y="148.2" class="st19" width="2.2" height="2.2"/>
	<rect x="273.5" y="148.2" class="st19" width="2.2" height="2.2"/>
	<rect x="243.1" y="150.4" class="st19" width="2.2" height="2.2"/>
	<rect x="247.4" y="150.4" class="st19" width="2.2" height="2.2"/>
	<rect x="249.6" y="150.4" class="st19" width="2.2" height="2.2"/>
	<rect x="256.1" y="150.4" class="st19" width="2.2" height="2.2"/>
	<rect x="260.5" y="150.4" class="st19" width="2.2" height="2.2"/>
	<rect x="269.1" y="150.4" class="st19" width="2.2" height="2.2"/>
	<rect x="273.5" y="150.4" class="st19" width="2.2" height="2.2"/>
	<rect x="225.7" y="152.5" class="st19" width="2.2" height="2.2"/>
	<rect x="227.9" y="152.5" class="st19" width="2.2" height="2.2"/>
	<rect x="230.1" y="152.5" class="st19" width="2.2" height="2.2"/>
	<rect x="232.2" y="152.5" class="st19" width="2.2" height="2.2"/>
	<rect x="234.4" y="152.5" class="st19" width="2.2" height="2.2"/>
	<rect x="236.6" y="152.5" class="st19" width="2.2" height="2.2"/>
	<rect x="238.8" y="152.5" class="st19" width="2.2" height="2.2"/>
	<rect x="247.4" y="152.5" class="st19" width="2.2" height="2.2"/>
	<rect x="249.6" y="152.5" class="st19" width="2.2" height="2.2"/>
	<rect x="260.5" y="152.5" class="st19" width="2.2" height="2.2"/>
	<rect x="264.8" y="152.5" class="st19" width="2.2" height="2.2"/>
	<rect x="269.1" y="152.5" class="st19" width="2.2" height="2.2"/>
	<rect x="271.3" y="152.5" class="st19" width="2.2" height="2.2"/>
	<rect x="225.7" y="154.7" class="st19" width="2.2" height="2.2"/>
	<rect x="238.8" y="154.7" class="st19" width="2.2" height="2.2"/>
	<rect x="243.1" y="154.7" class="st19" width="2.2" height="2.2"/>
	<rect x="249.6" y="154.7" class="st19" width="2.2" height="2.2"/>
	<rect x="251.8" y="154.7" class="st19" width="2.2" height="2.2"/>
	<rect x="256.1" y="154.7" class="st19" width="2.2" height="2.2"/>
	<rect x="260.5" y="154.7" class="st19" width="2.2" height="2.2"/>
	<rect x="269.1" y="154.7" class="st19" width="2.2" height="2.2"/>
	<rect x="271.3" y="154.7" class="st19" width="2.2" height="2.2"/>
	<rect x="273.5" y="154.7" class="st19" width="2.2" height="2.2"/>
	<rect x="275.6" y="154.7" class="st19" width="2.2" height="2.2"/>
	<rect x="277.8" y="154.7" class="st19" width="2.2" height="2.2"/>
	<rect x="225.7" y="156.9" class="st19" width="2.2" height="2.2"/>
	<rect x="230.1" y="156.9" class="st19" width="2.2" height="2.2"/>
	<rect x="232.2" y="156.9" class="st19" width="2.2" height="2.2"/>
	<rect x="234.4" y="156.9" class="st19" width="2.2" height="2.2"/>
	<rect x="238.8" y="156.9" class="st19" width="2.2" height="2.2"/>
	<rect x="243.1" y="156.9" class="st19" width="2.2" height="2.2"/>
	<rect x="245.3" y="156.9" class="st19" width="2.2" height="2.2"/>
	<rect x="260.5" y="156.9" class="st19" width="2.2" height="2.2"/>
	<rect x="262.6" y="156.9" class="st19" width="2.2" height="2.2"/>
	<rect x="264.8" y="156.9" class="st19" width="2.2" height="2.2"/>
	<rect x="267" y="156.9" class="st19" width="2.2" height="2.2"/>
	<rect x="269.1" y="156.9" class="st19" width="2.2" height="2.2"/>
	<rect x="273.5" y="156.9" class="st19" width="2.2" height="2.2"/>
	<rect x="275.6" y="156.9" class="st19" width="2.2" height="2.2"/>
	<rect x="225.7" y="159.1" class="st19" width="2.2" height="2.2"/>
	<rect x="230.1" y="159.1" class="st19" width="2.2" height="2.2"/>
	<rect x="232.2" y="159.1" class="st19" width="2.2" height="2.2"/>
	<rect x="234.4" y="159.1" class="st19" width="2.2" height="2.2"/>
	<rect x="238.8" y="159.1" class="st19" width="2.2" height="2.2"/>
	<rect x="245.3" y="159.1" class="st19" width="2.2" height="2.2"/>
	<rect x="247.4" y="159.1" class="st19" width="2.2" height="2.2"/>
	<rect x="249.6" y="159.1" class="st19" width="2.2" height="2.2"/>
	<rect x="256.1" y="159.1" class="st19" width="2.2" height="2.2"/>
	<rect x="258.3" y="159.1" class="st19" width="2.2" height="2.2"/>
	<rect x="260.5" y="159.1" class="st19" width="2.2" height="2.2"/>
	<rect x="262.6" y="159.1" class="st19" width="2.2" height="2.2"/>
	<rect x="264.8" y="159.1" class="st19" width="2.2" height="2.2"/>
	<rect x="271.3" y="159.1" class="st19" width="2.2" height="2.2"/>
	<rect x="273.5" y="159.1" class="st19" width="2.2" height="2.2"/>
	<rect x="275.6" y="159.1" class="st19" width="2.2" height="2.2"/>
	<rect x="277.8" y="159.1" class="st19" width="2.2" height="2.2"/>
	<rect x="225.7" y="161.2" class="st19" width="2.2" height="2.2"/>
	<rect x="230.1" y="161.2" class="st19" width="2.2" height="2.2"/>
	<rect x="232.2" y="161.2" class="st19" width="2.2" height="2.2"/>
	<rect x="234.4" y="161.2" class="st19" width="2.2" height="2.2"/>
	<rect x="238.8" y="161.2" class="st19" width="2.2" height="2.2"/>
	<rect x="247.4" y="161.2" class="st19" width="2.2" height="2.2"/>
	<rect x="249.6" y="161.2" class="st19" width="2.2" height="2.2"/>
	<rect x="251.8" y="161.2" class="st19" width="2.2" height="2.2"/>
	<rect x="256.1" y="161.2" class="st19" width="2.2" height="2.2"/>
	<rect x="262.6" y="161.2" class="st19" width="2.2" height="2.2"/>
	<rect x="264.8" y="161.2" class="st19" width="2.2" height="2.2"/>
	<rect x="267" y="161.2" class="st19" width="2.2" height="2.2"/>
	<rect x="275.6" y="161.2" class="st19" width="2.2" height="2.2"/>
	<rect x="225.7" y="163.4" class="st19" width="2.2" height="2.2"/>
	<rect x="238.8" y="163.4" class="st19" width="2.2" height="2.2"/>
	<rect x="243.1" y="163.4" class="st19" width="2.2" height="2.2"/>
	<rect x="245.3" y="163.4" class="st19" width="2.2" height="2.2"/>
	<rect x="247.4" y="163.4" class="st19" width="2.2" height="2.2"/>
	<rect x="249.6" y="163.4" class="st19" width="2.2" height="2.2"/>
	<rect x="256.1" y="163.4" class="st19" width="2.2" height="2.2"/>
	<rect x="258.3" y="163.4" class="st19" width="2.2" height="2.2"/>
	<rect x="264.8" y="163.4" class="st19" width="2.2" height="2.2"/>
	<rect x="267" y="163.4" class="st19" width="2.2" height="2.2"/>
	<rect x="269.1" y="163.4" class="st19" width="2.2" height="2.2"/>
	<rect x="271.3" y="163.4" class="st19" width="2.2" height="2.2"/>
	<rect x="273.5" y="163.4" class="st19" width="2.2" height="2.2"/>
	<rect x="275.6" y="163.4" class="st19" width="2.2" height="2.2"/>
	<rect x="225.7" y="165.6" class="st19" width="2.2" height="2.2"/>
	<rect x="227.9" y="165.6" class="st19" width="2.2" height="2.2"/>
	<rect x="230.1" y="165.6" class="st19" width="2.2" height="2.2"/>
	<rect x="232.2" y="165.6" class="st19" width="2.2" height="2.2"/>
	<rect x="234.4" y="165.6" class="st19" width="2.2" height="2.2"/>
	<rect x="236.6" y="165.6" class="st19" width="2.2" height="2.2"/>
	<rect x="238.8" y="165.6" class="st19" width="2.2" height="2.2"/>
	<rect x="243.1" y="165.6" class="st19" width="2.2" height="2.2"/>
	<rect x="247.4" y="165.6" class="st19" width="2.2" height="2.2"/>
	<rect x="251.8" y="165.6" class="st19" width="2.2" height="2.2"/>
	<rect x="258.3" y="165.6" class="st19" width="2.2" height="2.2"/>
	<rect x="273.5" y="165.6" class="st19" width="2.2" height="2.2"/>
	<rect x="275.6" y="165.6" class="st19" width="2.2" height="2.2"/>
	<rect x="277.8" y="165.6" class="st19" width="2.2" height="2.2"/>
</g>
<text transform="matrix(1 0 0 1 128 171.9)" class="st11 st17 st16">Inscris-toi vite :</text>
<text transform="matrix(1 0 0 1 128 183.9)" class="st11 st17 st16">http://tou</text>
<text transform="matrix(1 0 0 1 175.2 183.9)" class="st11 st17 st16">r</text>
<text transform="matrix(1 0 0 1 179.4 183.9)" class="st11 st17 st16">noi.dahultimate.com</text>
<text transform="matrix(1 0 0 1 130.2 123)" class="st11 st17 st16">Le p</text>
<text transform="matrix(1 0 0 1 150.6 123)" class="st11 st17 st16">r</text>
<text transform="matrix(1 0 0 1 154.5 123)" class="st11 st17 st16">emier tou</text>
<text transform="matrix(1 0 0 1 200.2 123)" class="st11 st17 st16">r</text>
<text transform="matrix(1 0 0 1 204.4 123)" class="st11 st17 st16">noi </text>
<text transform="matrix(1 0 0 1 133.5 135)" class="st11 st17 st16">de la </text>
<text transform="matrix(1 0 0 1 159.5 135)" class="st11 st17 st16 st20">Y</text>
<text transform="matrix(1 0 0 1 164.8 135)" class="st11 st17 st16">aute, 100%</text>
<text transform="matrix(1 0 0 1 150.4 147)" class="st11 st17 st16">Savoya</text>
<text transform="matrix(1 0 0 1 184.1 147)" class="st11 st17 st16">r</text>
<text transform="matrix(1 0 0 1 188 147)" class="st11 st17 st16">d !</text>
</svg>
