<svg id="Calque_2" data-name="Calque 2" xmlns="http://www.w3.org/2000/svg" xmlns:xlink="http://www.w3.org/1999/xlink" viewBox="0 0 76.7 57.7">
  <defs>
    <clipPath id="clip-path" transform="translate(0 0)">
      <rect width="76.7" height="57.67" style="fill: none"/>
    </clipPath>
  </defs>
  <title>dahuLogo</title>
  <g>
    <g style="clip-path: url(#clip-path)">
      <path d="M33.4,1.2v1c1.9,0,5.5-.4,7,0.2H40.3a8.9,8.9,0,0,0-5.4,7.2c1.9-1.5,3.3-3.4,5.9-4.3s6-.7,8.5-0.2c6.2,1.1,8.9,2.2,11.9,6.6a13,13,0,0,1,1.9,3.7H63c-2.3-1.7-4.5-3.9-7.2-5.1-6.6-2.8-15.8-2.3-21.3.9-2.5,1.5-5.4,3.5-5.4,7.4v1.7c1.1-5.6,11-8.4,18.5-6.8A27.1,27.1,0,0,1,56,17c1.8,1.1,5.6,3.5,4.9,6.4-1.6,1.2-3.6,2.2-4.8,3.8l-3.4,5.9-2.1,2.1-1.4,2.2-3.7.9a54.1,54.1,0,0,1-12.1,1.1v6.2a55.5,55.5,0,0,0,14.2-1.2l4.1-1.1,2.5-.9,13.9,8L68,43.8,69.6,45h0.1l2.1-1.7,3.1-.2,1.7-3.4-4.2-8.8v-4l-0.8-.4C73.7,13.7,63.6,2.3,53.4.3c-4.2-.8-8,0.6-11,1.4l-3-.3a37.1,37.1,0,0,0-6.1-.1h0Z" transform="translate(0 0)" style="fill: #9a141c;fill-rule: evenodd"/>
      <path d="M13.7,5.9L10.3,7.7c-3.7,2.3-7.2,5.5-9,9.7-4.3,9.7,2.6,17.1,8.2,21a16.7,16.7,0,0,0,4.2,2.4c0-1.6.4-5.6-.1-6.7a9.9,9.9,0,0,1-2.6-1.7C7.9,30.1,3,25.1,4.6,18.7c1.1-4.4,5.3-9.4,9.2-11a4,4,0,0,0-.1-1.9h0Z" transform="translate(0 0)" style="fill: #9a141c;fill-rule: evenodd"/>
    </g>
    <path d="M9.7,26.4l-0.6.5v0.3a1.3,1.3,0,0,0,1.1.7L9.4,29a2.3,2.3,0,0,0,1.2-1.2H10.4a1.1,1.1,0,0,1-1.2-.6l0.4-.3c1-.5,2.1.4,2.7,0.7H12.2c-0.8.6-1.7,0.8-2.2,1.6h1.5a1.3,1.3,0,0,0-.2.9,4,4,0,0,0,2,1h0.1a3.4,3.4,0,0,1-1-.5h0.1a1,1,0,0,0,1,0l-0.2-.5H12.4l-0.4.5a1,1,0,0,1-.6-0.4,1.4,1.4,0,0,0,.1-0.8H11.4l-1.1-.2,0.2-.3h0.2a2.6,2.6,0,0,0,3.2-.3,0.7,0.7,0,0,0-.3-0.7,2.7,2.7,0,0,0-1.2-.2c-0.9-.3-1.3-1.1-2.7-1.1h0Z" transform="translate(0 0)" style="fill: #9a141c;fill-rule: evenodd"/>
    <path d="M12.9,27.7h0.7l0.2,0.4c-0.3,1.1-2.1.9-2.9,0.4h0.1l1.8-.8h0Z" transform="translate(0 0)" style="fill: #fff;fill-rule: evenodd"/>
    <path d="M68.7,29.2h1.1v1.1h1.1v1.1H69.9v1.1H68.7V31.4H67.7V30.3h1.1V29.2h0Z" transform="translate(0 0)" style="fill: #fff;fill-rule: evenodd"/>
    <path d="M16.4,30.1l-1.6,1.7-0.6-.2h0l0.3,0.4-0.6.9a1.3,1.3,0,0,0,1.6,1.2l0.4-.2a2.2,2.2,0,0,0-.5-1.6l0.6,0.2A1.5,1.5,0,0,0,17.9,34l-0.7,1.4h0.4l0.9-1.8a2.8,2.8,0,0,1-1.1.3H17.2l0.4-.7H17.3l-0.4.6c-0.7-.4-0.5-0.5-0.3-1.2s2.2,0,3-.9V31a2.3,2.3,0,0,0-3.1,1.5,3.3,3.3,0,0,1-1.3-.6l1.5-1.7H16.4Z" transform="translate(0 0)" style="fill: #9a141c;fill-rule: evenodd"/>
    <path d="M12.9,30.3l0.4,0.2-0.2.2H12.5l0.4-.2h0Z" transform="translate(0 0)" style="fill: #fff;fill-rule: evenodd"/>
    <path d="M18.5,30.9l0.9,0.2v0.4c-0.5.8-1.4,0.8-2.6,0.7s1-.9,1.6-1.2h0Z" transform="translate(0 0)" style="fill: #fff;fill-rule: evenodd"/>
    <path d="M14.7,32.1c0.7,0.1,1.5,1.3,1.1,2H15.6a1.4,1.4,0,0,1-1.2-.6c-0.4-.5.1-1.1,0.3-1.4h0Z" transform="translate(0 0)" style="fill: #fff;fill-rule: evenodd"/>
    <path d="M19.1,32.8a0.5,0.5,0,0,0,.1.4h0.3V32.8H19.1Z" transform="translate(0 0)" style="fill: #9a141c;fill-rule: evenodd"/>
    <path d="M19,33.6l-0.3.9h0.1L19.5,35l0.7-.4a1.1,1.1,0,0,0,.1.8,4.2,4.2,0,0,0,2,.1v0.7c-0.7.2-1.7,0-2.1,0.6V37l0.7,0.5a3.8,3.8,0,0,0,1.9-1.2c-0.7,0-.3-0.7-0.1-1.1a2.4,2.4,0,0,1-1.4.2H21V35.1a2.9,2.9,0,0,1,1.6-.2H22.5a3.2,3.2,0,0,0-1.5,0,0.6,0.6,0,0,0-.2.6,0.7,0.7,0,0,1-.6-0.4l0.3-.9H20.4l-0.7.5V33.8H19.6l-0.2.7H19a3,3,0,0,1-.1-1.1h0Z" transform="translate(0 0)" style="fill: #9a141c;fill-rule: evenodd"/>
    <path d="M25.1,33.8c-0.4.6-.5,1.5-1.3,1.7h0.5a1.5,1.5,0,0,0,.2.9H25a0.8,0.8,0,0,1-.4-0.3V35.8a2.9,2.9,0,0,0,1.5,0H24.8a3.4,3.4,0,0,0,.6-1.7H25.1Z" transform="translate(0 0)" style="fill: #9a141c;fill-rule: evenodd"/>
    <path d="M33.2,37H31.8l0.6-2.1H32.1L31.5,37H31c0.1,0.3.1,0.3,0.4,0.3s0.4,2.1,1.9,1.7l0.2-.3V38.1a2.3,2.3,0,0,0-1.1-.9h0.9c0,0.3,0,.3.2,0.4a3.2,3.2,0,0,0,2.1-.2h0V37.3a0.8,0.8,0,0,1-1.1.2,1.4,1.4,0,0,0,.9-0.6h0.3L36,37.6h0.4l0.2-.2H36.2V36.8H37l0.2,0.6a0.8,0.8,0,0,0,.7-0.1H37.3V36.7l0.9-.2h0a0.7,0.7,0,0,0,0,.7,1,1,0,0,0,1.4-.4c-0.4.1-.7,0.6-1.1,0.2a0.8,0.8,0,0,0,.7-0.7V36.3c-0.6,0-1,.1-1.6.1a5.2,5.2,0,0,0-.1-1.6H37.1v0.2a6.8,6.8,0,0,0-.2,1.6H36.1a3.1,3.1,0,0,0,.1-1.7H35.8a7,7,0,0,0-.2,1.8,2.9,2.9,0,0,0-1.2,0,0.8,0.8,0,0,0-.2.9H33.7l-0.2-.5a0.8,0.8,0,0,0,0-.6,2.2,2.2,0,0,0,2.2-2.1l-0.3-.3c-1.5-.4-2.2,1.7-2.1,2.8h0Z" transform="translate(0 0)" style="fill: #9a141c;fill-rule: evenodd"/>
    <path d="M35,34.2l0.4,0.2c0,1.3-1.1,1.6-2.1,1.9A2.2,2.2,0,0,1,35,34.2h0Z" transform="translate(0 0)" style="fill: #fff;fill-rule: evenodd"/>
    <path d="M24.9,34.4h0.2a1.5,1.5,0,0,1-.6,1V35.1l0.4-.7h0Z" transform="translate(0 0)" style="fill: #9a141c;fill-rule: evenodd"/>
    <path d="M30.3,36.6a2.2,2.2,0,0,0,.1,1,0.8,0.8,0,0,0,.7-0.2H30.5V36.6c0.3,0,.4,0,0.5-0.2H29.7a7,7,0,0,0,.3-1.8c-0.7.2-.6,1.1-0.8,1.8H28.7a0.8,0.8,0,0,0-.4-0.4c0.2-.1.2-0.1,0.1-0.3H28.3c-0.6.3-.5,1.1-1.1,1.3V36.5a2.7,2.7,0,0,1-1.9.2V36.5h0.1a12.4,12.4,0,0,0,1.7-.2h0a2.5,2.5,0,0,0-1.9.3v0.3l0.2,0.2a4.3,4.3,0,0,0,1.7-.2,0.6,0.6,0,0,0,.2.6c0.3-.2.5-0.6,0.9-0.9h0.3a1.5,1.5,0,0,0-.1.9h0l0.2-.5h0.5a1,1,0,0,0,.4.9h0.6a0.7,0.7,0,0,1-.6-0.4V36.6h0.8Z" transform="translate(0 0)" style="fill: #9a141c;fill-rule: evenodd"/>
    <path d="M29.7,35.2a0.9,0.9,0,0,1-.3,1.1H29.3V35.9a1.7,1.7,0,0,1,.4-0.7h0Z" transform="translate(0 0)" style="fill: #fff;fill-rule: evenodd"/>
    <path d="M37.1,35.3h0.3l-0.2.9H37a1.7,1.7,0,0,1,.1-1.1h0Z" transform="translate(0 0)" style="fill: #fff;fill-rule: evenodd"/>
    <path d="M35.9,35.4h0.2v0.4l-0.2.7H35.8a2,2,0,0,1,.1-1.1h0Z" transform="translate(0 0)" style="fill: #fff;fill-rule: evenodd"/>
    <path d="M30.3,35.7a0.5,0.5,0,0,0-.1.4h0.4V35.8H30.3Z" transform="translate(0 0)" style="fill: #9a141c;fill-rule: evenodd"/>
    <path d="M38.7,36.4H39v0.2a0.7,0.7,0,0,1-.6.4V36.8l0.4-.4h0Z" transform="translate(0 0)" style="fill: #fff;fill-rule: evenodd"/>
    <path d="M21.2,36.6h0.7a1,1,0,0,1-1.1.6,0.7,0.7,0,0,1-.6-0.2c0.1-.2,0-0.1.2-0.2l0.8-.2h0Z" transform="translate(0 0)" style="fill: #fff;fill-rule: evenodd"/>
    <path d="M35,36.7h0.1a0.4,0.4,0,0,1-.1.4H34.5l0.2-.4H35Z" transform="translate(0 0)" style="fill: #fff;fill-rule: evenodd"/>
    <path d="M31.6,37.3a2.3,2.3,0,0,1,1.9,1.1l-0.2.4a2.5,2.5,0,0,1-1.4.1l-0.3-.4a1.9,1.9,0,0,1,.1-1.1h0Z" transform="translate(0 0)" style="fill: #fff;fill-rule: evenodd"/>
    <path d="M33.4,46v1.5h-1v1.3h1.1c0,1.7-.4,4.8.2,5.9s3.1-.5,3.2-2.3L35.5,52a7.3,7.3,0,0,1-.6,2.1V53.9c-0.5-1.1-.3-3.6-0.2-5h1.8V47.5H34.6V46H33.4Z" transform="translate(0 0)" style="fill: #9a141c;fill-rule: evenodd"/>
    <path d="M54.4,46v1.5H53.4v1.2h1.1c0,1.7-.4,4.8.2,5.9s3.1-.5,3.2-2.3L56.5,52a7.3,7.3,0,0,1-.6,2.1V53.9c-0.5-1.1-.3-3.6-0.2-5h1.8V47.5H55.6V46H54.4Z" transform="translate(0 0)" style="fill: #9a141c;fill-rule: evenodd"/>
    <path d="M3.3,46.4v9.9a6,6,0,0,0,3.5-.4c1.5-.9,2.5-4.5,1.5-6.8s-2.6-2.7-5-2.7h0Z" transform="translate(0 0)" style="fill: #9a141c;fill-rule: evenodd"/>
    <path d="M26.8,47.2l-2,.4c0.3,2.3,1,7.3-1.5,7.5l-0.5-.3a19.2,19.2,0,0,1,.2-5.2L20.9,49c0.1,2.9-.8,5.9,1.6,6.8a4,4,0,0,0,1.9.2c2.4-.6,1.5-3.4,1.9-6l0.4-2.8h0Z" transform="translate(0 0)" style="fill: #9a141c;fill-rule: evenodd"/>
    <path d="M39.6,47.3c0,3.1-.2,6.1-0.2,8.9h1.7a16.2,16.2,0,0,0,.1-3.4C41.1,51.8,40.6,50,41,49l1.6,4.7h2.2L46,49.9c0.7,1.7,0,6-.3,7.6h2.4c-1-2.8.3-7.4-.6-10.2H44.8c0,1.2-.3,3.1-1.1,3.7l-1-3.6-3.1-.2h0Z" transform="translate(0 0)" style="fill: #9a141c;fill-rule: evenodd"/>
    <path d="M13.8,55.3c0.1-2.2.4-5.8-.6-7.1S9.4,48.2,9,49.6h1.4a4.1,4.1,0,0,1,.9-1.1h0.3a4,4,0,0,1,.6,2.6H12.2c-1.9-.8-3.4,1.2-2.6,3.1s2.4,1.1,4.1.9h0Z" transform="translate(0 0)" style="fill: #9a141c;fill-rule: evenodd"/>
    <path d="M52.9,55.3c0.1-2.2.4-5.8-.6-7.1s-3.7-.1-4.2,1.4h1.4a4.1,4.1,0,0,1,.9-1.1h0.3a4,4,0,0,1,.6,2.6H51.4c-1.9-.8-3.4,1.2-2.6,3.1s2.4,1.1,4.1.9h0Z" transform="translate(0 0)" style="fill: #9a141c;fill-rule: evenodd"/>
    <path d="M27.5,47.8v7.2l4,0.4,0.2-1.6H28.7v-6H27.5Z" transform="translate(0 0)" style="fill: #9a141c;fill-rule: evenodd"/>
    <path d="M38,47.9a2.4,2.4,0,0,0-.5.7v0.2a0.6,0.6,0,0,0,.4.4,0.7,0.7,0,0,0,.8-0.3V48.2l-0.2-.3H38Z" transform="translate(0 0)" style="fill: #9a141c;fill-rule: evenodd"/>
    <path d="M17.9,47.9v2.3a6.6,6.6,0,0,1-2.4-.2l0.3-1.9H14.4l-0.2,8.1h1.9V52.3h1.7v3.6h2.1c0-2.8.2-5.5,0.3-8.1H17.9Z" transform="translate(0 0)" style="fill: #9a141c;fill-rule: evenodd"/>
    <path d="M60.2,50.9h3.1c0.1-3.3-3.8-3.9-4.6-1.3s3.4,6,4.7,2.3H61.8v0.9a1.7,1.7,0,0,1-.9.4c-0.7-.3-0.7-1.3-0.7-2.2h0Z" transform="translate(0 0)" style="fill: #9a141c;fill-rule: evenodd"/>
    <path d="M4.9,48.2c3.1-.1,2.9,6.3-0.1,6.7L4.4,48.4H4.9Z" transform="translate(0 0)" style="fill: #fff;fill-rule: evenodd"/>
    <path d="M61.4,50H59.6a1,1,0,0,1,.4-1.1c0.7-.7,1.5.2,1.5,1.1h0Z" transform="translate(0 0)" style="fill: #fff;fill-rule: evenodd"/>
    <path d="M37.5,53.7h1.4l-0.3-4.2a1.8,1.8,0,0,0-1.1.1c-0.4,1-.1,2.9-0.1,4.1h0Z" transform="translate(0 0)" style="fill: #9a141c;fill-rule: evenodd"/>
    <path d="M11.4,52.2L12,52.4h0.1a4.1,4.1,0,0,1-.2,1.9H11.8a0.7,0.7,0,0,1-.7-0.1,3.2,3.2,0,0,1-.1-1.7l0.4-.2h0Z" transform="translate(0 0)" style="fill: #fff;fill-rule: evenodd"/>
    <path d="M50.6,52.2l0.6,0.2h0.1a4.1,4.1,0,0,1-.2,1.9H50.9a0.7,0.7,0,0,1-.7-0.1,3.2,3.2,0,0,1-.1-1.7l0.4-.2h0Z" transform="translate(0 0)" style="fill: #fff;fill-rule: evenodd"/>
  </g>
</svg>
