<svg id="Calque_1" data-name="Calque 1" xmlns="http://www.w3.org/2000/svg" viewBox="0 0 297.6 209.8">
  <title>dahuFlyer</title>
  <circle id="soleil" cx="59.8" cy="136.3" r="44.1" style="fill: #fdce7e"/>
  <g id="dahu">
    <g id="dahuTitre">
      <path d="M56.2,79.6l2.9-.2a6.1,6.1,0,0,1,4.2,1.4,4.8,4.8,0,0,1,1.4,3.8,5.5,5.5,0,0,1-1.6,4.1,6.7,6.7,0,0,1-4.6,1.4l-2.5-.2V79.6Zm1.2,9.3h1.3c2.9,0.1,4.5-1.6,4.5-4.3s-1.3-4.1-4.2-4.1H57.6v8.2Z" style="fill: #fdce7e"/>
      <path d="M68,87.3l-1.7,3L64.9,90l5.6-9.5,1.6,0.3,1.4,11-1.4-.3L71.7,88Zm3.6-.3-0.4-3.2c-0.1-.7-0.1-1.3-0.2-2H71l-0.9,1.7-1.6,2.8Z" style="fill: #fdce7e"/>
      <path d="M79.9,83l-1.7,4,4.6,2,1.7-4,1.3,0.6-4.1,9.6-1.3-.6,2-4.5-4.6-2-2,4.5-1.2-.6,4.1-9.6Z" style="fill: #fdce7e"/>
      <path d="M90.4,88.3l-3.6,5.1c-1.3,1.9-1.1,3.3.1,4.1s2.7,0.6,4-1.3l3.6-5.1L95.5,92,92,97c-1.8,2.6-4,2.7-5.9,1.4s-2.4-3.2-.5-5.8l3.5-5.1Z" style="fill: #fdce7e"/>
      <path d="M98.4,94.5l0.9,0.9L92.7,102l3.2,3.2-0.8.8L91,101.8Z" style="fill: #fdce7e"/>
      <path d="M103.5,101.8l-2-2.5,0.9-.7,4.7,6.1-0.9.7-2-2.5-7.4,5.6-0.8-1.1Z" style="fill: #fdce7e"/>
      <path d="M108.9,107.7l-9,5.4-0.7-1.2,9-5.4Z" style="fill: #fdce7e"/>
      <path d="M108.6,121.2l4.1-1.8h0l-4.2.2-5.4.2-0.4-.9,4-3.4a39.9,39.9,0,0,1,3.3-2.6h0l-4.4,1.5-4.3,1.4-0.4-1.2,10-3.2,0.6,1.6-4.1,3.5-2.9,2.3h0l3.7-.3h5.4l0.6,1.6-9.5,4.5-0.5-1.2Z" style="fill: #fdce7e"/>
      <path d="M108.6,126.9l-3.4-.6-0.2-1.4,10.9,1.9,0.2,1.6-9.8,5.1-0.2-1.4,3.1-1.6Zm1.6,3.2,2.8-1.4,1.8-.8h0l-2-.2-3.1-.6Z" style="fill: #fdce7e"/>
      <path d="M115.5,135.4v-3.2h1.2v7.7h-1.2v-3.2l-9.3.2v-1.4Z" style="fill: #fdce7e"/>
      <path d="M110.1,147l0.6-4-3.7-.6-0.7,4.5-1.1-.2,0.9-5.8,10.4,1.6-0.9,5.6-1.1-.2,0.7-4.2-3.3-.5-0.6,4Z" style="fill: #fdce7e"/>
    </g>
    <g id="flying">
      <path d="M54,171.7l-0.7,4H52.8l0.7-4H54Z" style="fill: #fff"/>
      <path d="M54.6,173.7a3.9,3.9,0,0,0,.1-0.8h0.4v0.5h0a1,1,0,0,1,1-.4,1.1,1.1,0,0,1,.9,1.3l-0.2,1.7H56.4l0.2-1.7a0.7,0.7,0,0,0-.5-0.9H56a0.7,0.7,0,0,0-.8.4,0.3,0.3,0,0,0-.1.2L55,175.9H54.5Z" style="fill: #fff"/>
      <path d="M59.9,172.4v0.8h0.7v0.4H59.9v1.6c0,0.3.1,0.6,0.4,0.6h0.3v0.4H60.1a0.7,0.7,0,0,1-.6-0.2,1.1,1.1,0,0,1-.2-0.7v-1.6H58.9v-0.4h0.4v-0.7Z" style="fill: #fff"/>
      <path d="M61.1,171.9h0.5v1.8h0a0.7,0.7,0,0,1,.3-0.4l0.5-.2a1,1,0,0,1,1.1,1.2v1.7H63.2v-1.7a0.7,0.7,0,0,0-.6-0.8H62.4a0.7,0.7,0,0,0-.7.6v2H61.3Z" style="fill: #fff"/>
      <path d="M65,174.5a1,1,0,0,0,1.1.8h0.1l0.8-.3,0.2,0.3-0.9.3a1.3,1.3,0,0,1-1.6-1v-0.2a1.4,1.4,0,0,1,1-1.7h0.1a1.2,1.2,0,0,1,1.4,1.1h0v0.2Zm1.4-.6a0.7,0.7,0,0,0-.7-0.7H65.6a0.9,0.9,0,0,0-.7.9Z" style="fill: #fff"/>
      <path d="M69.4,175.1l-0.7-2.4H68.3v-0.4h0.4a1.4,1.4,0,0,1,.1-1.1,1.3,1.3,0,0,1,.8-0.5h0.9l1.1,4H71l-1-3.7H69.6a0.8,0.8,0,0,0-.6.9c0,0.1,0,.1.1,0.1h0l0.7-.2v0.4l-0.7.2,0.7,2.4Z" style="fill: #fff"/>
      <path d="M71.7,171.4l1.2,1.4,0.4,0.5h0a2.5,2.5,0,0,0-.1-0.6v-1.8l0.5-.2v2.2a4.1,4.1,0,0,1-.3,2,1.2,1.2,0,0,1-.5.6l-0.3-.4,0.3-.4a1.6,1.6,0,0,0,.2-0.7h0l-1.9-2.1Z" style="fill: #fff"/>
      <path d="M74.4,169.5a0.3,0.3,0,1,1-.4-0.2h0a0.4,0.4,0,0,1,.4.2h0Zm0.9,3.6-1.1-2.7,0.5-.2,1.1,2.7Z" style="fill: #fff"/>
      <path d="M75.8,170.6l-0.4-.7,0.4-.2,0.2,0.4h0a1,1,0,0,1,.6-0.9,1.1,1.1,0,0,1,1.4.6l0.8,1.6-0.4.2-0.7-1.5a0.7,0.7,0,0,0-.9-0.5H76.6a0.7,0.7,0,0,0-.4.8v0.2l0.8,1.6-0.4.2Z" style="fill: #fff"/>
      <path d="M80.4,167.1l0.4,0.7,0.9,1.4a1.7,1.7,0,0,1,.3,1.3,1.5,1.5,0,0,1-.7.8l-0.9.3v-0.4l0.8-.3a0.9,0.9,0,0,0,.4-1.2H81.4l-0.2-.3h0a0.9,0.9,0,0,1-.5.9,1.3,1.3,0,0,1-1.7-.5H78.9a1.4,1.4,0,0,1,.2-2h0.1a0.9,0.9,0,0,1,1-.1h0l-0.2-.4h0.4Zm0.1,1.2-0.2-.2a0.8,0.8,0,0,0-.9-0.1,1,1,0,0,0-.2,1.3h0.1a0.9,0.9,0,0,0,1.2.5h0.1a0.8,0.8,0,0,0,.3-0.8v-0.3Z" style="fill: #fff"/>
      <path d="M82.1,164.9l0.5,0.7,0.6-.4,0.2,0.3-0.6.4,0.9,1.2c0.2,0.3.4,0.4,0.7,0.2l0.2-.2,0.3,0.3-0.3.3-0.6.2a1,1,0,0,1-.6-0.4l-0.9-1.2-0.3.3-0.2-.3,0.3-.3-0.4-.6Z" style="fill: #fff"/>
      <path d="M86.8,165.8l-0.3-.2h0a1.1,1.1,0,0,1-.4.9,0.8,0.8,0,0,1-1.2,0H84.9c-0.4-.5-0.2-1.2.6-2H85.4a0.6,0.6,0,0,0-.8-0.1H84.5a1.1,1.1,0,0,0-.4.7l-0.3-.2a1.7,1.7,0,0,1,.6-0.8,1,1,0,0,1,1.4-.1l0.2,0.2,0.7,0.8,0.5,0.5Zm-1.1-1.1c-0.4.4-.8,0.9-0.5,1.3a0.4,0.4,0,0,0,.6.2H86a0.7,0.7,0,0,0,.2-0.8v-0.2Z" style="fill: #fff"/>
      <path d="M86.4,163.4l-0.7-.6,0.3-.3,0.4,0.4h0a0.9,0.9,0,0,1,.1-1h0.1l0.3,0.3H86.9a0.8,0.8,0,0,0,0,.9l0.2,0.2,1.1,1.1-0.4.4Z" style="fill: #fff"/>
      <path d="M87,160.3l0.6,0.6,0.5-.6,0.3,0.3-0.5.6,1.2,1.1c0.3,0.2.5,0.3,0.7,0.1l0.2-.3,0.3,0.2-0.3.4a0.7,0.7,0,0,1-.6.3,1,1,0,0,1-.7-0.3l-1.2-1.1-0.3.3-0.3-.3,0.3-.3-0.5-.4Z" style="fill: #fff"/>
      <path d="M88.2,158.8a0.3,0.3,0,0,1-.1.4H87.8A0.3,0.3,0,1,1,88.2,158.8Zm2.5,2.8-2.2-1.8,0.3-.4,2.2,1.8Z" style="fill: #fff"/>
      <path d="M91.7,160.4l-2-1.4-0.2.3-0.3-.2,0.2-.3H89.3a1.4,1.4,0,0,1-.6-0.9,1.5,1.5,0,0,1,.3-0.9,1.8,1.8,0,0,1,.7-0.6l3.3,2.4-0.3.4-3.1-2.2-0.3.3a0.7,0.7,0,0,0,.1,1h0.3l0.4-.6,0.3,0.2-0.4.6,2,1.4Z" style="fill: #fff"/>
      <path d="M92.6,156.8a1,1,0,0,0,1.3-.2H94a1.9,1.9,0,0,0,.3-0.8h0.4a2.5,2.5,0,0,1-.3.9,1.4,1.4,0,0,1-1.8.6H92.4a1.4,1.4,0,0,1-.7-1.8h0.1a1.2,1.2,0,0,1,1.7-.4h0.1l0.2,0.2Zm0.4-1.5a0.7,0.7,0,0,0-1,.1H91.9a0.9,0.9,0,0,0,.3,1.1Z" style="fill: #fff"/>
      <path d="M92.1,152.7l0.7,0.4,0.3-.7,0.3,0.2-0.3.7,1.4,0.7c0.3,0.2.6,0.2,0.7-.1v-0.3l0.3,0.2a1.1,1.1,0,0,1-.2.4,0.8,0.8,0,0,1-.4.4,1,1,0,0,1-.8-0.2l-1.4-.7-0.2.4-0.3-.2,0.2-.4-0.6-.3Z" style="fill: #fff"/>
      <path d="M93,151l0.8,0.3,0.3-.7,0.4,0.2-0.3.7,1.4,0.6c0.3,0.2.6,0.1,0.7-.1v-0.3h0.4a1.3,1.3,0,0,1-.1.4,0.6,0.6,0,0,1-.4.4H95.4l-1.4-.7-0.2.4-0.4-.2,0.2-.4-0.6-.3V151Z" style="fill: #fff"/>
      <path d="M95.8,150.4a0.9,0.9,0,0,0,1.2-.5h0.1a1.8,1.8,0,0,0,.1-0.8h0.4a2.6,2.6,0,0,1-.2.9,1.3,1.3,0,0,1-1.7.9H95.6a1.4,1.4,0,0,1-1.1-1.7h0.1a1.2,1.2,0,0,1,1.6-.7h0.3Zm0.2-1.6a0.7,0.7,0,0,0-1,.2v0.2a0.9,0.9,0,0,0,.5,1.1Z" style="fill: #fff"/>
      <path d="M95.6,146h2.5l-0.8-.4-1.3-.8v-0.4h2.5l-0.8-.4-1.3-.7v-0.5l2.6,1.6v0.4H96.5l0.9,0.4,1.2,0.8v0.4l-3,.2V146Z" style="fill: #fff"/>
      <path d="M98,141.9a0.9,0.9,0,0,0,1.1-.8h0a2.1,2.1,0,0,0-.1-0.8h0.4a2.7,2.7,0,0,1,.1.9,1.3,1.3,0,0,1-1.4,1.2H97.9a1.4,1.4,0,0,1-1.4-1.4h0a1.2,1.2,0,0,1,1.4-1h0.3Zm-0.2-1.6a0.7,0.7,0,0,0-.9.4,0.2,0.2,0,0,1-.1.2,0.9,0.9,0,0,0,.7.9Z" style="fill: #fff"/>
      <path d="M96.1,137h0.8v-0.7h0.4V137h1.6c0.3,0,.6-0.1.6-0.4v-0.3h0.4a1.2,1.2,0,0,1,.1.4,0.7,0.7,0,0,1-.2.6,1,1,0,0,1-.8.2H97.3V138H96.9v-0.4H96.3Z" style="fill: #fff"/>
      <path d="M97.8,135.8H96.9v-0.4h0.6a0.8,0.8,0,0,1-.7-0.8v-0.2h0.5v0.2a0.7,0.7,0,0,0,.7.7h1.8v0.5h-2Z" style="fill: #fff"/>
      <path d="M98.7,131.3h0.8v0.4H99a1.1,1.1,0,0,1-.6,2l-1.7.2v-0.4l1.6-.2c0.6-.1.9-0.3,0.8-0.7a0.9,0.9,0,0,0-.6-0.7H98.4l-1.8.2v-0.5Z" style="fill: #fff"/>
      <path d="M98.8,130.4a1.1,1.1,0,0,0,.1-0.7,0.4,0.4,0,0,0-.4-0.5H98.4a0.6,0.6,0,0,0-.4.6,1,1,0,0,1-.7.9,0.9,0.9,0,0,1-1-.8h0a1.6,1.6,0,0,1,.1-0.7h0.4a1.2,1.2,0,0,0-.1.6,0.5,0.5,0,0,0,.4.4,0.6,0.6,0,0,0,.4-0.6,1,1,0,0,1,.7-0.9,0.9,0.9,0,0,1,1.1.9,1.4,1.4,0,0,1-.1.8H98.8Z" style="fill: #fff"/>
      <path d="M95.1,128l0.8-.2-0.2-.7h0.4l0.2,0.7,1.5-.3a0.4,0.4,0,0,0,.4-0.5v-0.3h0.4a1.1,1.1,0,0,1,.2.4,0.8,0.8,0,0,1-.1.6,1,1,0,0,1-.7.4l-1.5.3v0.4H96.1v-0.4l-0.7.2Z" style="fill: #fff"/>
    </g>
    <path d="M46.6,126.2A22.2,22.2,0,0,1,43,138c-3.1-1.9-12.4-8.1-13.5-9.2s-2.5-2.7-.6-5.9c-2,.5-7.2,6.6-0.4,8.6a33.8,33.8,0,0,0,.3,19,11.4,11.4,0,0,0,1.4,1.8c-0.5-3.1-1.3-7.6,1.1-12.8l10.1,11.6a58,58,0,0,1-3.6,11.9,10.8,10.8,0,0,0,1.2,1.6c3.5-5.8,11.3-23,10.9-35.6C49,128.2,46.6,126.2,46.6,126.2Z" style="fill: #9c1c18"/>
    <path d="M43.8,122.2c-3.2-7.1-13-19.6-17.7-21.4S13.2,99.3,16.3,113c-3.3-4.7-3.6-14.2,2.9-17.6s18.4-.7,30.7,21.2C47.3,120.8,44.7,122.1,43.8,122.2Z" style="fill: #bbab9e"/>
    <path d="M61.2,115c-1.9-5.4-8.9-25.8-15.6-29.3s-12,1.3-12.8,3.9-1.4,6.7-.2,10c-0.2-4,.4-10.4,4.9-11.5s9.8,5.4,15.5,27.8C55.3,116.4,59.4,116.6,61.2,115Z" style="fill: #bbab9e"/>
    <path d="M57,136.3c-0.2,2.2-.8,8,5.4,8.5-2.3-2.2-2.3-5.2-1.4-8.5H57Z" style="fill: #1e1e1c"/>
    <g id="bouche">
      <path d="M60.6,133l6.6-3.1a1,1,0,0,1,1.3.5l0.8,1.8a1,1,0,0,1-.5,1.3l-6.6,3.1a1,1,0,0,1-1.3-.5l-0.8-1.8A1,1,0,0,1,60.6,133Z" style="fill: #9e6f3a"/>
      <path d="M68.6,132.2a0.8,0.8,0,0,1-.5,1h0l-5.5,2.6a0.7,0.7,0,0,1-1.1-.3L61,134.3a0.8,0.8,0,0,1,.5-1h0l5.5-2.6a0.7,0.7,0,0,1,1.1.3Z" style="fill: #fff"/>
      <line x1="60.8" y1="135.1" x2="68.6" y2="131.5" style="fill: none;stroke: #1e1e1c;stroke-miterlimit: 10;stroke-width: 3px"/>
      <line x1="64" y1="131.7" x2="65.5" y2="134.9" style="fill: none;stroke: #1e1e1c;stroke-miterlimit: 10;stroke-width: 3px"/>
      <line x1="62.8" y1="132.4" x2="64.3" y2="135.5" style="fill: none;stroke: #1e1e1c;stroke-miterlimit: 10;stroke-width: 3px"/>
      <line x1="61.6" y1="132.9" x2="63" y2="136" style="fill: none;stroke: #1e1e1c;stroke-miterlimit: 10;stroke-width: 3px"/>
      <line x1="66.5" y1="130.6" x2="67.9" y2="133.8" style="fill: none;stroke: #1e1e1c;stroke-miterlimit: 10;stroke-width: 3px"/>
      <line x1="65.3" y1="131.2" x2="66.7" y2="134.3" style="fill: none;stroke: #1e1e1c;stroke-miterlimit: 10;stroke-width: 3px"/>
      <path d="M69.3,132.2l-0.8-1.8a1,1,0,0,0-1.3-.6H67.1l-6.5,3a1,1,0,0,0-.6,1.3h0.1l0.8,1.8a1,1,0,0,0,1.3.6h0.1l6.5-3a1,1,0,0,0,.4-1.4h0Zm-1.2,1-5.5,2.6a0.7,0.7,0,0,1-1.1-.3L61,134.3a0.8,0.8,0,0,1,.5-1h0l5.5-2.6a0.7,0.7,0,0,1,1.1.3l0.6,1.2a0.9,0.9,0,0,1-.5,1h0Z" style="fill: #9c1c18"/>
    </g>
    <path d="M46.8,124.1c-1.2-.5-5.7-1.4-6.9,4.1C44.3,129.6,46.8,127.1,46.8,124.1Z" style="fill: #9c1c18"/>
    <path d="M67.9,115.7c-1.1-.7-5.4-2.3-7.4,3C64.5,120.7,67.3,118.6,67.9,115.7Z" style="fill: #9c1c18"/>
    <path d="M43.8,122.2c1.3-4.1,8-10.6,17.4-7.2,2.1,5.4,7.5,18.8.3,22.2S45.7,127.4,43.8,122.2Z" style="fill: #9c1c18"/>
    <path d="M47.1,121.6l-0.8-.3a4.9,4.9,0,0,1,1.9-2.2l0.3,0.8A3.8,3.8,0,0,0,47.1,121.6Z" style="fill: #1e1e1c"/>
    <path d="M57,116.7l-0.2-.8a4.9,4.9,0,0,1,2.9.3l-0.4.7A4,4,0,0,0,57,116.7Z" style="fill: #1e1e1c"/>
    <path d="M60.5,135.9H60.4v-0.4Z" style="fill: #1e1e1c"/>
    <path d="M61.6,135.4v-0.2h0V135h0v-0.3H62v-0.7H61.5v1.3h0.1Z" style="fill: #1e1e1c"/>
    <g id="oeil_droit" data-name="oeil droit">
      <circle cx="63" cy="123.7" r="3.7" style="fill: #fff"/>
      <circle cx="61.3" cy="125.7" r="0.7" style="fill: #1e1e1c"/>
    </g>
    <g id="oeil_gauche" data-name="oeil gauche">
      <circle cx="49.9" cy="129" r="3.7" style="fill: #fff"/>
      <circle cx="50.8" cy="126.3" r="0.7" style="fill: #1e1e1c"/>
    </g>
  </g>
  <g id="montagne">
    <polyline points="156.6 238.8 132.7 216 120.2 204.7 106.9 224 86.4 189 72.4 210.7 6.6 116.4 -19 238.8" style="fill: #a9d3cf;stroke: #fff;stroke-miterlimit: 10"/>
    <polygon points="19 154 41.3 166.1 6.6 116.4 -1.7 155.2 4.5 168.7 9.3 148 15.7 158.2 19 154" style="fill: #d4ebf0;stroke: #fff;stroke-miterlimit: 10"/>
    <polygon points="92.8 199.9 86.4 189 79.4 199.9 83.6 196.7 87.2 204.9 89.6 199.1 92.8 199.9" style="fill: #d4ebf0;stroke: #fff;stroke-miterlimit: 10"/>
    <polygon points="128 211.7 120.2 204.7 113.5 214.5 119.8 210.2 121.8 212.6 122.8 210.8 128 211.7" style="fill: #d4ebf0;stroke: #fff;stroke-miterlimit: 10"/>
  </g>
  <g id="edelweiss">
    <g id="tige">
      <path d="M259.3,209.8h0.9c-1.1-16.9-4.3-23.7-6-27.4l-0.7-1.4-0.8.3,0.7,1.5C255.1,186.3,258.2,193,259.3,209.8Z" style="fill: #7db29e"/>
      <path d="M258.9,186.5a81.4,81.4,0,0,0-.2,9.8c-0.2.8-.8,0.1-1.1-0.8A32.2,32.2,0,0,1,258.9,186.5Z" style="fill: #7db29e"/>
      <path d="M260.4,194.9a94.5,94.5,0,0,0-.7,9.8c-0.3.8-.8,0.1-1.1-0.9A32,32,0,0,1,260.4,194.9Z" style="fill: #7db29e"/>
      <path d="M251.9,189.5a79.4,79.4,0,0,1,6,7.7c0.7,0.6.7-.4,0.3-1.3A34.3,34.3,0,0,0,251.9,189.5Z" style="fill: #7db29e"/>
    </g>
    <path d="M246.5,180.1a7.7,7.7,0,0,1,2.3-1.4l0.6-.9a28.3,28.3,0,0,0-3.2-.4c-0.2-.1.2-0.5,1.3-0.7a7.6,7.6,0,0,1,3.9.4,8.4,8.4,0,0,1,1.8-3.1c0.8-.8,1.3-0.9,1.3-0.7s-1.3,2.1-1.4,3a5.6,5.6,0,0,0-.1.8,9.5,9.5,0,0,1,4.8-.2c1.1,0.3,1.4.8,1.2,0.9s-2.3-.2-3.2-0.1a3.1,3.1,0,0,1,1.4,1.4,2.1,2.1,0,0,1-1.3.7,8,8,0,0,1,1.5,1.6c0.6,1.1.5,1.6,0.3,1.6a20.3,20.3,0,0,0-2.6-2.4l-0.5-.2-0.4.2s0.3,1.7-.6,2-1.4-.9-1.8-1.7l-0.4.9a25.4,25.4,0,0,0-.6,3.5c-0.1.2-.6-0.2-0.7-1.4a9.2,9.2,0,0,1,.2-3c-0.9.5-1.8,0.9-2,.6a1.7,1.7,0,0,1,0-1.1,23.8,23.8,0,0,0-2.3,1.2C245.8,181.6,245.7,180.9,246.5,180.1Z" style="fill: #d4ebf0"/>
    <path d="M245.1,179.2a8.5,8.5,0,0,1,4.6-2.1l0.2,0.2h0l-1.3-.7c-0.9-.4-3.7-0.4-3.8-0.6s0.2-.6,1.5-0.8a9.4,9.4,0,0,1,4.5.4,10.3,10.3,0,0,1,2.1-3.6c0.9-1,1.5-1,1.5-.8a27.8,27.8,0,0,0-1.7,3.5,1.5,1.5,0,0,0-.1.9,11.3,11.3,0,0,1,5.6-.3c1.2,0.4,1.6.9,1.4,1s-2.8-.3-3.9,0l-2.1.8a12.8,12.8,0,0,1,4,3.4c0.6,0.9.6,1.8,0.3,1.8s-2-2.3-3-2.8a6.3,6.3,0,0,0-3-.8,6.5,6.5,0,0,0-1.4,2.2c-0.5,1-.5,3.9-0.6,4.1s-0.6-.2-0.8-1.6a9.8,9.8,0,0,1,.7-4.7l-2,.4a34.5,34.5,0,0,0-3.4,1.6C244,180.6,244.2,180.2,245.1,179.2Z" style="fill: #fff"/>
    <g>
      <ellipse cx="251.5" cy="176.9" rx="0.7" ry="0.6" transform="translate(-42.3 86.4) rotate(-18)" style="fill: #fdce7e"/>
      <ellipse cx="252.8" cy="176" rx="0.7" ry="0.6" transform="matrix(0.95, -0.31, 0.31, 0.95, -42.14, 87.1)" style="fill: #fdce7e"/>
      <ellipse cx="252.6" cy="177.6" rx="0.7" ry="0.6" transform="translate(-42.5 86.7) rotate(-18)" style="fill: #fdce7e"/>
      <ellipse cx="251" cy="178.1" rx="0.7" ry="0.6" transform="translate(-42.7 86.3) rotate(-18)" style="fill: #fdce7e"/>
      <ellipse cx="250" cy="177.2" rx="0.6" ry="0.5" transform="translate(-42.5 85.9) rotate(-18)" style="fill: #fdce7e"/>
      <ellipse cx="250.6" cy="176.1" rx="0.6" ry="0.4" transform="translate(-42.2 86) rotate(-18)" style="fill: #fdce7e"/>
      <ellipse cx="251.8" cy="175.7" rx="0.6" ry="0.4" transform="translate(-42 86.4) rotate(-18)" style="fill: #fdce7e"/>
    </g>
  </g>
  <text transform="translate(49 38.2)" style="font-size: 32.1409797668457px;fill: #1d1d1b;font-family: Yikes"><tspan style="letter-spacing: -1px">B</tspan><tspan x="16.3" y="0">o</tspan><tspan x="30.6" y="0" style="letter-spacing: -1px">rn</tspan><tspan x="58.9" y="0" style="letter-spacing: -1px">e</tspan><tspan x="72.3" y="0">s </tspan><tspan x="94.9" y="0">t</tspan><tspan x="107.8" y="0">o </tspan><tspan x="131.4" y="0" style="letter-spacing: -3px">C</tspan><tspan x="142.6" y="0">a</tspan><tspan x="159.9" y="0">t</tspan><tspan x="173.1" y="0">c</tspan><tspan x="186.9" y="0">h</tspan></text>
  <text transform="translate(89 57)" style="font-size: 10px;fill: #1d1d1b;font-family: Stamp Act Jumbled">20/21 Août 2016</text>
  <text transform="translate(113.7 74.6)" style="font-size: 11.973799705505371px;fill: #1d1d1b;font-family: Avenir LT Std">A Saint-Fer<tspan x="63" y="0">r</tspan><tspan x="67.6" y="0">eol</tspan></text>
  <g>
    <rect x="222" y="109.8" width="62" height="62" style="fill: #fff"/>
    <rect x="225.7" y="113.5" width="2.2" height="2.17" style="fill: #000100"/>
    <rect x="227.9" y="113.5" width="2.2" height="2.17" style="fill: #000100"/>
    <rect x="230.1" y="113.5" width="2.2" height="2.17" style="fill: #000100"/>
    <rect x="232.2" y="113.5" width="2.2" height="2.17" style="fill: #000100"/>
    <rect x="234.4" y="113.5" width="2.2" height="2.17" style="fill: #000100"/>
    <rect x="236.6" y="113.5" width="2.2" height="2.17" style="fill: #000100"/>
    <rect x="238.8" y="113.5" width="2.2" height="2.17" style="fill: #000100"/>
    <rect x="243.1" y="113.5" width="2.2" height="2.17" style="fill: #000100"/>
    <rect x="245.3" y="113.5" width="2.2" height="2.17" style="fill: #000100"/>
    <rect x="249.6" y="113.5" width="2.2" height="2.17" style="fill: #000100"/>
    <rect x="256.1" y="113.5" width="2.2" height="2.17" style="fill: #000100"/>
    <rect x="258.3" y="113.5" width="2.2" height="2.17" style="fill: #000100"/>
    <rect x="260.5" y="113.5" width="2.2" height="2.17" style="fill: #000100"/>
    <rect x="264.8" y="113.5" width="2.2" height="2.17" style="fill: #000100"/>
    <rect x="267" y="113.5" width="2.2" height="2.17" style="fill: #000100"/>
    <rect x="269.1" y="113.5" width="2.2" height="2.17" style="fill: #000100"/>
    <rect x="271.3" y="113.5" width="2.2" height="2.17" style="fill: #000100"/>
    <rect x="273.5" y="113.5" width="2.2" height="2.17" style="fill: #000100"/>
    <rect x="275.6" y="113.5" width="2.2" height="2.17" style="fill: #000100"/>
    <rect x="277.8" y="113.5" width="2.2" height="2.17" style="fill: #000100"/>
    <rect x="225.7" y="115.7" width="2.2" height="2.17" style="fill: #000100"/>
    <rect x="238.8" y="115.7" width="2.2" height="2.17" style="fill: #000100"/>
    <rect x="243.1" y="115.7" width="2.2" height="2.17" style="fill: #000100"/>
    <rect x="247.4" y="115.7" width="2.2" height="2.17" style="fill: #000100"/>
    <rect x="253.9" y="115.7" width="2.2" height="2.17" style="fill: #000100"/>
    <rect x="256.1" y="115.7" width="2.2" height="2.17" style="fill: #000100"/>
    <rect x="260.5" y="115.7" width="2.2" height="2.17" style="fill: #000100"/>
    <rect x="264.8" y="115.7" width="2.2" height="2.17" style="fill: #000100"/>
    <rect x="277.8" y="115.7" width="2.2" height="2.17" style="fill: #000100"/>
    <rect x="225.7" y="117.8" width="2.2" height="2.17" style="fill: #000100"/>
    <rect x="230.1" y="117.8" width="2.2" height="2.17" style="fill: #000100"/>
    <rect x="232.2" y="117.8" width="2.2" height="2.17" style="fill: #000100"/>
    <rect x="234.4" y="117.8" width="2.2" height="2.17" style="fill: #000100"/>
    <rect x="238.8" y="117.8" width="2.2" height="2.17" style="fill: #000100"/>
    <rect x="243.1" y="117.8" width="2.2" height="2.17" style="fill: #000100"/>
    <rect x="245.3" y="117.8" width="2.2" height="2.17" style="fill: #000100"/>
    <rect x="251.8" y="117.8" width="2.2" height="2.17" style="fill: #000100"/>
    <rect x="258.3" y="117.8" width="2.2" height="2.17" style="fill: #000100"/>
    <rect x="260.5" y="117.8" width="2.2" height="2.17" style="fill: #000100"/>
    <rect x="264.8" y="117.8" width="2.2" height="2.17" style="fill: #000100"/>
    <rect x="269.1" y="117.8" width="2.2" height="2.17" style="fill: #000100"/>
    <rect x="271.3" y="117.8" width="2.2" height="2.17" style="fill: #000100"/>
    <rect x="273.5" y="117.8" width="2.2" height="2.17" style="fill: #000100"/>
    <rect x="277.8" y="117.8" width="2.2" height="2.17" style="fill: #000100"/>
    <rect x="225.7" y="120" width="2.2" height="2.17" style="fill: #000100"/>
    <rect x="230.1" y="120" width="2.2" height="2.17" style="fill: #000100"/>
    <rect x="232.2" y="120" width="2.2" height="2.17" style="fill: #000100"/>
    <rect x="234.4" y="120" width="2.2" height="2.17" style="fill: #000100"/>
    <rect x="238.8" y="120" width="2.2" height="2.17" style="fill: #000100"/>
    <rect x="243.1" y="120" width="2.2" height="2.17" style="fill: #000100"/>
    <rect x="245.3" y="120" width="2.2" height="2.17" style="fill: #000100"/>
    <rect x="247.4" y="120" width="2.2" height="2.17" style="fill: #000100"/>
    <rect x="253.9" y="120" width="2.2" height="2.17" style="fill: #000100"/>
    <rect x="256.1" y="120" width="2.2" height="2.17" style="fill: #000100"/>
    <rect x="258.3" y="120" width="2.2" height="2.17" style="fill: #000100"/>
    <rect x="260.5" y="120" width="2.2" height="2.17" style="fill: #000100"/>
    <rect x="264.8" y="120" width="2.2" height="2.17" style="fill: #000100"/>
    <rect x="269.1" y="120" width="2.2" height="2.17" style="fill: #000100"/>
    <rect x="271.3" y="120" width="2.2" height="2.17" style="fill: #000100"/>
    <rect x="273.5" y="120" width="2.2" height="2.17" style="fill: #000100"/>
    <rect x="277.8" y="120" width="2.2" height="2.17" style="fill: #000100"/>
    <rect x="225.7" y="122.2" width="2.2" height="2.17" style="fill: #000100"/>
    <rect x="230.1" y="122.2" width="2.2" height="2.17" style="fill: #000100"/>
    <rect x="232.2" y="122.2" width="2.2" height="2.17" style="fill: #000100"/>
    <rect x="234.4" y="122.2" width="2.2" height="2.17" style="fill: #000100"/>
    <rect x="238.8" y="122.2" width="2.2" height="2.17" style="fill: #000100"/>
    <rect x="245.3" y="122.2" width="2.2" height="2.17" style="fill: #000100"/>
    <rect x="249.6" y="122.2" width="2.2" height="2.17" style="fill: #000100"/>
    <rect x="253.9" y="122.2" width="2.2" height="2.17" style="fill: #000100"/>
    <rect x="258.3" y="122.2" width="2.2" height="2.17" style="fill: #000100"/>
    <rect x="260.5" y="122.2" width="2.2" height="2.17" style="fill: #000100"/>
    <rect x="264.8" y="122.2" width="2.2" height="2.17" style="fill: #000100"/>
    <rect x="269.1" y="122.2" width="2.2" height="2.17" style="fill: #000100"/>
    <rect x="271.3" y="122.2" width="2.2" height="2.17" style="fill: #000100"/>
    <rect x="273.5" y="122.2" width="2.2" height="2.17" style="fill: #000100"/>
    <rect x="277.8" y="122.2" width="2.2" height="2.17" style="fill: #000100"/>
    <rect x="225.7" y="124.3" width="2.2" height="2.17" style="fill: #000100"/>
    <rect x="238.8" y="124.3" width="2.2" height="2.17" style="fill: #000100"/>
    <rect x="243.1" y="124.3" width="2.2" height="2.17" style="fill: #000100"/>
    <rect x="245.3" y="124.3" width="2.2" height="2.17" style="fill: #000100"/>
    <rect x="247.4" y="124.3" width="2.2" height="2.17" style="fill: #000100"/>
    <rect x="253.9" y="124.3" width="2.2" height="2.17" style="fill: #000100"/>
    <rect x="264.8" y="124.3" width="2.2" height="2.17" style="fill: #000100"/>
    <rect x="277.8" y="124.3" width="2.2" height="2.17" style="fill: #000100"/>
    <rect x="225.7" y="126.5" width="2.2" height="2.17" style="fill: #000100"/>
    <rect x="227.9" y="126.5" width="2.2" height="2.17" style="fill: #000100"/>
    <rect x="230.1" y="126.5" width="2.2" height="2.17" style="fill: #000100"/>
    <rect x="232.2" y="126.5" width="2.2" height="2.17" style="fill: #000100"/>
    <rect x="234.4" y="126.5" width="2.2" height="2.17" style="fill: #000100"/>
    <rect x="236.6" y="126.5" width="2.2" height="2.17" style="fill: #000100"/>
    <rect x="238.8" y="126.5" width="2.2" height="2.17" style="fill: #000100"/>
    <rect x="243.1" y="126.5" width="2.2" height="2.17" style="fill: #000100"/>
    <rect x="247.4" y="126.5" width="2.2" height="2.17" style="fill: #000100"/>
    <rect x="251.8" y="126.5" width="2.2" height="2.17" style="fill: #000100"/>
    <rect x="256.1" y="126.5" width="2.2" height="2.17" style="fill: #000100"/>
    <rect x="260.5" y="126.5" width="2.2" height="2.17" style="fill: #000100"/>
    <rect x="264.8" y="126.5" width="2.2" height="2.17" style="fill: #000100"/>
    <rect x="267" y="126.5" width="2.2" height="2.17" style="fill: #000100"/>
    <rect x="269.1" y="126.5" width="2.2" height="2.17" style="fill: #000100"/>
    <rect x="271.3" y="126.5" width="2.2" height="2.17" style="fill: #000100"/>
    <rect x="273.5" y="126.5" width="2.2" height="2.17" style="fill: #000100"/>
    <rect x="275.6" y="126.5" width="2.2" height="2.17" style="fill: #000100"/>
    <rect x="277.8" y="126.5" width="2.2" height="2.17" style="fill: #000100"/>
    <rect x="247.4" y="128.7" width="2.2" height="2.17" style="fill: #000100"/>
    <rect x="256.1" y="128.7" width="2.2" height="2.17" style="fill: #000100"/>
    <rect x="258.3" y="128.7" width="2.2" height="2.17" style="fill: #000100"/>
    <rect x="225.7" y="130.8" width="2.2" height="2.17" style="fill: #000100"/>
    <rect x="227.9" y="130.8" width="2.2" height="2.17" style="fill: #000100"/>
    <rect x="234.4" y="130.8" width="2.2" height="2.17" style="fill: #000100"/>
    <rect x="236.6" y="130.8" width="2.2" height="2.17" style="fill: #000100"/>
    <rect x="238.8" y="130.8" width="2.2" height="2.17" style="fill: #000100"/>
    <rect x="247.4" y="130.8" width="2.2" height="2.17" style="fill: #000100"/>
    <rect x="251.8" y="130.8" width="2.2" height="2.17" style="fill: #000100"/>
    <rect x="267" y="130.8" width="2.2" height="2.17" style="fill: #000100"/>
    <rect x="271.3" y="130.8" width="2.2" height="2.17" style="fill: #000100"/>
    <rect x="273.5" y="130.8" width="2.2" height="2.17" style="fill: #000100"/>
    <rect x="275.6" y="130.8" width="2.2" height="2.17" style="fill: #000100"/>
    <rect x="277.8" y="130.8" width="2.2" height="2.17" style="fill: #000100"/>
    <rect x="225.7" y="133" width="2.2" height="2.17" style="fill: #000100"/>
    <rect x="227.9" y="133" width="2.2" height="2.17" style="fill: #000100"/>
    <rect x="230.1" y="133" width="2.2" height="2.17" style="fill: #000100"/>
    <rect x="232.2" y="133" width="2.2" height="2.17" style="fill: #000100"/>
    <rect x="240.9" y="133" width="2.2" height="2.17" style="fill: #000100"/>
    <rect x="249.6" y="133" width="2.2" height="2.17" style="fill: #000100"/>
    <rect x="256.1" y="133" width="2.2" height="2.17" style="fill: #000100"/>
    <rect x="258.3" y="133" width="2.2" height="2.17" style="fill: #000100"/>
    <rect x="260.5" y="133" width="2.2" height="2.17" style="fill: #000100"/>
    <rect x="262.6" y="133" width="2.2" height="2.17" style="fill: #000100"/>
    <rect x="269.1" y="133" width="2.2" height="2.17" style="fill: #000100"/>
    <rect x="271.3" y="133" width="2.2" height="2.17" style="fill: #000100"/>
    <rect x="275.6" y="133" width="2.2" height="2.17" style="fill: #000100"/>
    <rect x="225.7" y="135.2" width="2.2" height="2.17" style="fill: #000100"/>
    <rect x="227.9" y="135.2" width="2.2" height="2.17" style="fill: #000100"/>
    <rect x="230.1" y="135.2" width="2.2" height="2.17" style="fill: #000100"/>
    <rect x="232.2" y="135.2" width="2.2" height="2.17" style="fill: #000100"/>
    <rect x="236.6" y="135.2" width="2.2" height="2.17" style="fill: #000100"/>
    <rect x="238.8" y="135.2" width="2.2" height="2.17" style="fill: #000100"/>
    <rect x="243.1" y="135.2" width="2.2" height="2.17" style="fill: #000100"/>
    <rect x="245.3" y="135.2" width="2.2" height="2.17" style="fill: #000100"/>
    <rect x="247.4" y="135.2" width="2.2" height="2.17" style="fill: #000100"/>
    <rect x="249.6" y="135.2" width="2.2" height="2.17" style="fill: #000100"/>
    <rect x="256.1" y="135.2" width="2.2" height="2.17" style="fill: #000100"/>
    <rect x="258.3" y="135.2" width="2.2" height="2.17" style="fill: #000100"/>
    <rect x="260.5" y="135.2" width="2.2" height="2.17" style="fill: #000100"/>
    <rect x="267" y="135.2" width="2.2" height="2.17" style="fill: #000100"/>
    <rect x="269.1" y="135.2" width="2.2" height="2.17" style="fill: #000100"/>
    <rect x="271.3" y="135.2" width="2.2" height="2.17" style="fill: #000100"/>
    <rect x="273.5" y="135.2" width="2.2" height="2.17" style="fill: #000100"/>
    <rect x="225.7" y="137.4" width="2.2" height="2.17" style="fill: #000100"/>
    <rect x="227.9" y="137.4" width="2.2" height="2.17" style="fill: #000100"/>
    <rect x="232.2" y="137.4" width="2.2" height="2.17" style="fill: #000100"/>
    <rect x="236.6" y="137.4" width="2.2" height="2.17" style="fill: #000100"/>
    <rect x="240.9" y="137.4" width="2.2" height="2.17" style="fill: #000100"/>
    <rect x="245.3" y="137.4" width="2.2" height="2.17" style="fill: #000100"/>
    <rect x="251.8" y="137.4" width="2.2" height="2.17" style="fill: #000100"/>
    <rect x="267" y="137.4" width="2.2" height="2.17" style="fill: #000100"/>
    <rect x="269.1" y="137.4" width="2.2" height="2.17" style="fill: #000100"/>
    <rect x="273.5" y="137.4" width="2.2" height="2.17" style="fill: #000100"/>
    <rect x="275.6" y="137.4" width="2.2" height="2.17" style="fill: #000100"/>
    <rect x="230.1" y="139.5" width="2.2" height="2.17" style="fill: #000100"/>
    <rect x="234.4" y="139.5" width="2.2" height="2.17" style="fill: #000100"/>
    <rect x="238.8" y="139.5" width="2.2" height="2.17" style="fill: #000100"/>
    <rect x="243.1" y="139.5" width="2.2" height="2.17" style="fill: #000100"/>
    <rect x="249.6" y="139.5" width="2.2" height="2.17" style="fill: #000100"/>
    <rect x="251.8" y="139.5" width="2.2" height="2.17" style="fill: #000100"/>
    <rect x="258.3" y="139.5" width="2.2" height="2.17" style="fill: #000100"/>
    <rect x="262.6" y="139.5" width="2.2" height="2.17" style="fill: #000100"/>
    <rect x="264.8" y="139.5" width="2.2" height="2.17" style="fill: #000100"/>
    <rect x="267" y="139.5" width="2.2" height="2.17" style="fill: #000100"/>
    <rect x="271.3" y="139.5" width="2.2" height="2.17" style="fill: #000100"/>
    <rect x="273.5" y="139.5" width="2.2" height="2.17" style="fill: #000100"/>
    <rect x="275.6" y="139.5" width="2.2" height="2.17" style="fill: #000100"/>
    <rect x="277.8" y="139.5" width="2.2" height="2.17" style="fill: #000100"/>
    <rect x="225.7" y="141.7" width="2.2" height="2.17" style="fill: #000100"/>
    <rect x="230.1" y="141.7" width="2.2" height="2.17" style="fill: #000100"/>
    <rect x="236.6" y="141.7" width="2.2" height="2.17" style="fill: #000100"/>
    <rect x="243.1" y="141.7" width="2.2" height="2.17" style="fill: #000100"/>
    <rect x="247.4" y="141.7" width="2.2" height="2.17" style="fill: #000100"/>
    <rect x="249.6" y="141.7" width="2.2" height="2.17" style="fill: #000100"/>
    <rect x="251.8" y="141.7" width="2.2" height="2.17" style="fill: #000100"/>
    <rect x="253.9" y="141.7" width="2.2" height="2.17" style="fill: #000100"/>
    <rect x="258.3" y="141.7" width="2.2" height="2.17" style="fill: #000100"/>
    <rect x="262.6" y="141.7" width="2.2" height="2.17" style="fill: #000100"/>
    <rect x="269.1" y="141.7" width="2.2" height="2.17" style="fill: #000100"/>
    <rect x="275.6" y="141.7" width="2.2" height="2.17" style="fill: #000100"/>
    <rect x="230.1" y="143.9" width="2.2" height="2.17" style="fill: #000100"/>
    <rect x="238.8" y="143.9" width="2.2" height="2.17" style="fill: #000100"/>
    <rect x="249.6" y="143.9" width="2.2" height="2.17" style="fill: #000100"/>
    <rect x="251.8" y="143.9" width="2.2" height="2.17" style="fill: #000100"/>
    <rect x="256.1" y="143.9" width="2.2" height="2.17" style="fill: #000100"/>
    <rect x="258.3" y="143.9" width="2.2" height="2.17" style="fill: #000100"/>
    <rect x="262.6" y="143.9" width="2.2" height="2.17" style="fill: #000100"/>
    <rect x="271.3" y="143.9" width="2.2" height="2.17" style="fill: #000100"/>
    <rect x="273.5" y="143.9" width="2.2" height="2.17" style="fill: #000100"/>
    <rect x="234.4" y="146" width="2.2" height="2.17" style="fill: #000100"/>
    <rect x="243.1" y="146" width="2.2" height="2.17" style="fill: #000100"/>
    <rect x="245.3" y="146" width="2.2" height="2.17" style="fill: #000100"/>
    <rect x="249.6" y="146" width="2.2" height="2.17" style="fill: #000100"/>
    <rect x="251.8" y="146" width="2.2" height="2.17" style="fill: #000100"/>
    <rect x="258.3" y="146" width="2.2" height="2.17" style="fill: #000100"/>
    <rect x="260.5" y="146" width="2.2" height="2.17" style="fill: #000100"/>
    <rect x="262.6" y="146" width="2.2" height="2.17" style="fill: #000100"/>
    <rect x="264.8" y="146" width="2.2" height="2.17" style="fill: #000100"/>
    <rect x="267" y="146" width="2.2" height="2.17" style="fill: #000100"/>
    <rect x="271.3" y="146" width="2.2" height="2.17" style="fill: #000100"/>
    <rect x="273.5" y="146" width="2.2" height="2.17" style="fill: #000100"/>
    <rect x="275.6" y="146" width="2.2" height="2.17" style="fill: #000100"/>
    <rect x="225.7" y="148.2" width="2.2" height="2.17" style="fill: #000100"/>
    <rect x="227.9" y="148.2" width="2.2" height="2.17" style="fill: #000100"/>
    <rect x="232.2" y="148.2" width="2.2" height="2.17" style="fill: #000100"/>
    <rect x="234.4" y="148.2" width="2.2" height="2.17" style="fill: #000100"/>
    <rect x="238.8" y="148.2" width="2.2" height="2.17" style="fill: #000100"/>
    <rect x="245.3" y="148.2" width="2.2" height="2.17" style="fill: #000100"/>
    <rect x="251.8" y="148.2" width="2.2" height="2.17" style="fill: #000100"/>
    <rect x="258.3" y="148.2" width="2.2" height="2.17" style="fill: #000100"/>
    <rect x="260.5" y="148.2" width="2.2" height="2.17" style="fill: #000100"/>
    <rect x="262.6" y="148.2" width="2.2" height="2.17" style="fill: #000100"/>
    <rect x="264.8" y="148.2" width="2.2" height="2.17" style="fill: #000100"/>
    <rect x="267" y="148.2" width="2.2" height="2.17" style="fill: #000100"/>
    <rect x="269.1" y="148.2" width="2.2" height="2.17" style="fill: #000100"/>
    <rect x="271.3" y="148.2" width="2.2" height="2.17" style="fill: #000100"/>
    <rect x="273.5" y="148.2" width="2.2" height="2.17" style="fill: #000100"/>
    <rect x="243.1" y="150.4" width="2.2" height="2.17" style="fill: #000100"/>
    <rect x="247.4" y="150.4" width="2.2" height="2.17" style="fill: #000100"/>
    <rect x="249.6" y="150.4" width="2.2" height="2.17" style="fill: #000100"/>
    <rect x="256.1" y="150.4" width="2.2" height="2.17" style="fill: #000100"/>
    <rect x="260.5" y="150.4" width="2.2" height="2.17" style="fill: #000100"/>
    <rect x="269.1" y="150.4" width="2.2" height="2.17" style="fill: #000100"/>
    <rect x="273.5" y="150.4" width="2.2" height="2.17" style="fill: #000100"/>
    <rect x="225.7" y="152.5" width="2.2" height="2.17" style="fill: #000100"/>
    <rect x="227.9" y="152.5" width="2.2" height="2.17" style="fill: #000100"/>
    <rect x="230.1" y="152.5" width="2.2" height="2.17" style="fill: #000100"/>
    <rect x="232.2" y="152.5" width="2.2" height="2.17" style="fill: #000100"/>
    <rect x="234.4" y="152.5" width="2.2" height="2.17" style="fill: #000100"/>
    <rect x="236.6" y="152.5" width="2.2" height="2.17" style="fill: #000100"/>
    <rect x="238.8" y="152.5" width="2.2" height="2.17" style="fill: #000100"/>
    <rect x="247.4" y="152.5" width="2.2" height="2.17" style="fill: #000100"/>
    <rect x="249.6" y="152.5" width="2.2" height="2.17" style="fill: #000100"/>
    <rect x="260.5" y="152.5" width="2.2" height="2.17" style="fill: #000100"/>
    <rect x="264.8" y="152.5" width="2.2" height="2.17" style="fill: #000100"/>
    <rect x="269.1" y="152.5" width="2.2" height="2.17" style="fill: #000100"/>
    <rect x="271.3" y="152.5" width="2.2" height="2.17" style="fill: #000100"/>
    <rect x="225.7" y="154.7" width="2.2" height="2.17" style="fill: #000100"/>
    <rect x="238.8" y="154.7" width="2.2" height="2.17" style="fill: #000100"/>
    <rect x="243.1" y="154.7" width="2.2" height="2.17" style="fill: #000100"/>
    <rect x="249.6" y="154.7" width="2.2" height="2.17" style="fill: #000100"/>
    <rect x="251.8" y="154.7" width="2.2" height="2.17" style="fill: #000100"/>
    <rect x="256.1" y="154.7" width="2.2" height="2.17" style="fill: #000100"/>
    <rect x="260.5" y="154.7" width="2.2" height="2.17" style="fill: #000100"/>
    <rect x="269.1" y="154.7" width="2.2" height="2.17" style="fill: #000100"/>
    <rect x="271.3" y="154.7" width="2.2" height="2.17" style="fill: #000100"/>
    <rect x="273.5" y="154.7" width="2.2" height="2.17" style="fill: #000100"/>
    <rect x="275.6" y="154.7" width="2.2" height="2.17" style="fill: #000100"/>
    <rect x="277.8" y="154.7" width="2.2" height="2.17" style="fill: #000100"/>
    <rect x="225.7" y="156.9" width="2.2" height="2.17" style="fill: #000100"/>
    <rect x="230.1" y="156.9" width="2.2" height="2.17" style="fill: #000100"/>
    <rect x="232.2" y="156.9" width="2.2" height="2.17" style="fill: #000100"/>
    <rect x="234.4" y="156.9" width="2.2" height="2.17" style="fill: #000100"/>
    <rect x="238.8" y="156.9" width="2.2" height="2.17" style="fill: #000100"/>
    <rect x="243.1" y="156.9" width="2.2" height="2.17" style="fill: #000100"/>
    <rect x="245.3" y="156.9" width="2.2" height="2.17" style="fill: #000100"/>
    <rect x="260.5" y="156.9" width="2.2" height="2.17" style="fill: #000100"/>
    <rect x="262.6" y="156.9" width="2.2" height="2.17" style="fill: #000100"/>
    <rect x="264.8" y="156.9" width="2.2" height="2.17" style="fill: #000100"/>
    <rect x="267" y="156.9" width="2.2" height="2.17" style="fill: #000100"/>
    <rect x="269.1" y="156.9" width="2.2" height="2.17" style="fill: #000100"/>
    <rect x="273.5" y="156.9" width="2.2" height="2.17" style="fill: #000100"/>
    <rect x="275.6" y="156.9" width="2.2" height="2.17" style="fill: #000100"/>
    <rect x="225.7" y="159.1" width="2.2" height="2.17" style="fill: #000100"/>
    <rect x="230.1" y="159.1" width="2.2" height="2.17" style="fill: #000100"/>
    <rect x="232.2" y="159.1" width="2.2" height="2.17" style="fill: #000100"/>
    <rect x="234.4" y="159.1" width="2.2" height="2.17" style="fill: #000100"/>
    <rect x="238.8" y="159.1" width="2.2" height="2.17" style="fill: #000100"/>
    <rect x="245.3" y="159.1" width="2.2" height="2.17" style="fill: #000100"/>
    <rect x="247.4" y="159.1" width="2.2" height="2.17" style="fill: #000100"/>
    <rect x="249.6" y="159.1" width="2.2" height="2.17" style="fill: #000100"/>
    <rect x="256.1" y="159.1" width="2.2" height="2.17" style="fill: #000100"/>
    <rect x="258.3" y="159.1" width="2.2" height="2.17" style="fill: #000100"/>
    <rect x="260.5" y="159.1" width="2.2" height="2.17" style="fill: #000100"/>
    <rect x="262.6" y="159.1" width="2.2" height="2.17" style="fill: #000100"/>
    <rect x="264.8" y="159.1" width="2.2" height="2.17" style="fill: #000100"/>
    <rect x="271.3" y="159.1" width="2.2" height="2.17" style="fill: #000100"/>
    <rect x="273.5" y="159.1" width="2.2" height="2.17" style="fill: #000100"/>
    <rect x="275.6" y="159.1" width="2.2" height="2.17" style="fill: #000100"/>
    <rect x="277.8" y="159.1" width="2.2" height="2.17" style="fill: #000100"/>
    <rect x="225.7" y="161.2" width="2.2" height="2.17" style="fill: #000100"/>
    <rect x="230.1" y="161.2" width="2.2" height="2.17" style="fill: #000100"/>
    <rect x="232.2" y="161.2" width="2.2" height="2.17" style="fill: #000100"/>
    <rect x="234.4" y="161.2" width="2.2" height="2.17" style="fill: #000100"/>
    <rect x="238.8" y="161.2" width="2.2" height="2.17" style="fill: #000100"/>
    <rect x="247.4" y="161.2" width="2.2" height="2.17" style="fill: #000100"/>
    <rect x="249.6" y="161.2" width="2.2" height="2.17" style="fill: #000100"/>
    <rect x="251.8" y="161.2" width="2.2" height="2.17" style="fill: #000100"/>
    <rect x="256.1" y="161.2" width="2.2" height="2.17" style="fill: #000100"/>
    <rect x="262.6" y="161.2" width="2.2" height="2.17" style="fill: #000100"/>
    <rect x="264.8" y="161.2" width="2.2" height="2.17" style="fill: #000100"/>
    <rect x="267" y="161.2" width="2.2" height="2.17" style="fill: #000100"/>
    <rect x="275.6" y="161.2" width="2.2" height="2.17" style="fill: #000100"/>
    <rect x="225.7" y="163.4" width="2.2" height="2.17" style="fill: #000100"/>
    <rect x="238.8" y="163.4" width="2.2" height="2.17" style="fill: #000100"/>
    <rect x="243.1" y="163.4" width="2.2" height="2.17" style="fill: #000100"/>
    <rect x="245.3" y="163.4" width="2.2" height="2.17" style="fill: #000100"/>
    <rect x="247.4" y="163.4" width="2.2" height="2.17" style="fill: #000100"/>
    <rect x="249.6" y="163.4" width="2.2" height="2.17" style="fill: #000100"/>
    <rect x="256.1" y="163.4" width="2.2" height="2.17" style="fill: #000100"/>
    <rect x="258.3" y="163.4" width="2.2" height="2.17" style="fill: #000100"/>
    <rect x="264.8" y="163.4" width="2.2" height="2.17" style="fill: #000100"/>
    <rect x="267" y="163.4" width="2.2" height="2.17" style="fill: #000100"/>
    <rect x="269.1" y="163.4" width="2.2" height="2.17" style="fill: #000100"/>
    <rect x="271.3" y="163.4" width="2.2" height="2.17" style="fill: #000100"/>
    <rect x="273.5" y="163.4" width="2.2" height="2.17" style="fill: #000100"/>
    <rect x="275.6" y="163.4" width="2.2" height="2.17" style="fill: #000100"/>
    <rect x="225.7" y="165.6" width="2.2" height="2.17" style="fill: #000100"/>
    <rect x="227.9" y="165.6" width="2.2" height="2.17" style="fill: #000100"/>
    <rect x="230.1" y="165.6" width="2.2" height="2.17" style="fill: #000100"/>
    <rect x="232.2" y="165.6" width="2.2" height="2.17" style="fill: #000100"/>
    <rect x="234.4" y="165.6" width="2.2" height="2.17" style="fill: #000100"/>
    <rect x="236.6" y="165.6" width="2.2" height="2.17" style="fill: #000100"/>
    <rect x="238.8" y="165.6" width="2.2" height="2.17" style="fill: #000100"/>
    <rect x="243.1" y="165.6" width="2.2" height="2.17" style="fill: #000100"/>
    <rect x="247.4" y="165.6" width="2.2" height="2.17" style="fill: #000100"/>
    <rect x="251.8" y="165.6" width="2.2" height="2.17" style="fill: #000100"/>
    <rect x="258.3" y="165.6" width="2.2" height="2.17" style="fill: #000100"/>
    <rect x="273.5" y="165.6" width="2.2" height="2.17" style="fill: #000100"/>
    <rect x="275.6" y="165.6" width="2.2" height="2.17" style="fill: #000100"/>
    <rect x="277.8" y="165.6" width="2.2" height="2.17" style="fill: #000100"/>
  </g>
  <text transform="translate(128 171.9)" style="font-size: 10px;fill: #1d1d1b;font-family: Avenir LT Std">Inscris-toi vite :<tspan x="0" y="12">http://tou</tspan><tspan x="47.2" y="12">r</tspan><tspan x="51.4" y="12">noi.dahultimate.com</tspan></text>
  <text transform="translate(130.2 123)" style="font-size: 10px;fill: #1d1d1b;font-family: Avenir LT Std">Le p<tspan x="20.4" y="0">r</tspan><tspan x="24.3" y="0">emier tou</tspan><tspan x="70" y="0">r</tspan><tspan x="74.2" y="0">noi </tspan><tspan x="3.3" y="12">de la </tspan><tspan x="29.3" y="12" style="letter-spacing: -1px">Y</tspan><tspan x="34.6" y="12">aute, 100%</tspan><tspan x="20.2" y="24">Savoya</tspan><tspan x="53.9" y="24">r</tspan><tspan x="57.8" y="24">d !</tspan></text>
</svg>
