<svg id="Calque_1" data-name="Calque 1" xmlns="http://www.w3.org/2000/svg" viewBox="0 0 310.5 61.8">
  <title>montagne3</title>
  <g id="montagne2">
    <polyline points="310.5 61.8 289.1 38.2 288.1 37.3 279.6 29.6 256.9 43.7 246.5 36 240.2 43.7 226 31.7 212.4 38.8 191.4 10 179.3 24.1 151.8 61.8" style="fill: #a8d3cf"/>
    <polygon points="282 37.2 282.6 34.2 285.2 34.7 279.6 29.6 268.1 36.7 274.9 35.3 275.4 40 279.5 34.6 282 37.2" style="fill: #d3ebf0"/>
    <polygon points="243.9 39.2 245.1 38.6 245.7 41.5 246.8 39.5 249.8 41.1 248.7 37.7 246.5 36 243.9 39.2" style="fill: #d3ebf0"/>
    <polygon points="226 36.5 230.5 41 229.9 36.1 232.1 37.1 231.1 36 226 31.7 221.2 34.2 223.3 34.4 223.1 37.8 226 36.5" style="fill: #d3ebf0"/>
    <polygon points="200.5 22.5 191.4 10 183.1 19.6 187.1 19 188.6 24.2 193.4 18.8 200.5 22.5" style="fill: #d3ebf0"/>
  </g>
  <g id="montagne2-2" data-name="montagne2">
    <polyline points="110.9 61.8 178 61.8 169.3 36.4 168 35.3 157 25.3 127.7 43.5 114.2 33.6 106.1 43.5 87.7 28 70.2 37.2 43 0 27.4 18.2 0 61.8" style="fill: #a8d3cf"/>
    <polygon points="160.1 35.1 160.9 31.3 164.2 31.9 157 25.3 142.1 34.5 150.9 32.7 151.6 38.8 156.9 31.8 160.1 35.1" style="fill: #d3ebf0"/>
    <polygon points="110.9 37.7 112.4 37 113.2 40.7 114.6 38.1 118.5 40.2 117.1 35.8 114.2 33.6 110.9 37.7" style="fill: #d3ebf0"/>
    <polygon points="87.7 34.2 93.6 40.1 92.8 33.7 95.6 35 94.3 33.6 87.7 28 81.5 31.3 84.2 31.5 84 35.9 87.7 34.2" style="fill: #d3ebf0"/>
    <polygon points="54.8 16.2 43 0 32.3 12.4 37.5 11.6 39.4 18.3 45.6 11.4 54.8 16.2" style="fill: #d3ebf0"/>
  </g>
</svg>
