<svg id="svg4376" xmlns="http://www.w3.org/2000/svg" xmlns:xlink="http://www.w3.org/1999/xlink" viewBox="0 0 39.4 40.3">
  <defs>
    <radialGradient id="Dégradé_sans_nom" data-name="Dégradé sans nom" cx="24.71" cy="-535.29" r="19.71" gradientTransform="matrix(1, 0, 0, -0.33, 0, -139.86)" gradientUnits="userSpaceOnUse">
      <stop offset="0"/>
      <stop offset="1" stop-opacity="0"/>
    </radialGradient>
    <radialGradient id="Dégradé_sans_nom_2" data-name="Dégradé sans nom 2" cx="-176.61" cy="175.51" r="8.9" gradientTransform="matrix(2.08, 0, 0, -2.08, 388.38, 381.86)" gradientUnits="userSpaceOnUse">
      <stop offset="0" stop-color="#fffcde"/>
      <stop offset="0.64" stop-color="#f6e76a"/>
      <stop offset="1" stop-color="#ffb738"/>
    </radialGradient>
    <radialGradient id="Dégradé_sans_nom_3" data-name="Dégradé sans nom 3" cx="-54.15" cy="501.09" r="15.76" gradientTransform="translate(-43.4 659.6) rotate(180) scale(1.25)" gradientUnits="userSpaceOnUse">
      <stop offset="0" stop-color="#777"/>
      <stop offset="1"/>
    </radialGradient>
    <radialGradient id="Dégradé_sans_nom_3-2" cx="-54.15" cy="501.09" r="15.76" gradientTransform="translate(92.5 -602.2) scale(1.25)" xlink:href="#Dégradé_sans_nom_3"/>
  </defs>
  <title>sad</title>
  <g id="layer1">
    <path id="path4563" d="M44.4,38.6c0,3.6-8.8,6.6-19.7,6.6S5,42.2,5,38.6,13.8,32,24.7,32,44.4,34.9,44.4,38.6Z" transform="translate(-5 -4.8)" style="opacity: 0.5316455960273743;isolation: isolate;fill: url(#Dégradé_sans_nom)"/>
    <path id="path4320" d="M42.3,23.1a18,18,0,1,1-36.1,0s0,0,0,0a18,18,0,1,1,36.1,0h0Z" transform="translate(-5 -4.8)" style="stroke: #9c8c0a;stroke-linecap: round;stroke-linejoin: round;stroke-width: 0.48004403710365295px;fill: url(#Dégradé_sans_nom_2)"/>
    <path id="path4322" d="M41.4,23.1a17.1,17.1,0,1,1-34.3,0s0,0,0,0a17.1,17.1,0,1,1,34.3,0h0Z" transform="translate(-5 -4.8)" style="fill: none;stroke: #fff;stroke-linecap: round;stroke-linejoin: round;stroke-width: 0.5051062703132629px;opacity: 0.6772152185440063;isolation: isolate"/>
    <path id="path1387" d="M34,32c-3.7-4.2-5.6-5.6-9.6-5.6s-6.5,1.7-9.4,6c3.4-2.3,5.3-3.6,9.1-3.6S29.9,29.8,34,32Z" transform="translate(-5 -4.8)" style="fill: #fff;opacity: 0.35999998450279236;isolation: isolate"/>
    <path id="sourire" d="M15.1,26.1c3.7,4.2,5.6,5.6,9.6,5.6s6.5-1.7,9.4-6c-3.4,2.3-5.3,3.6-9.1,3.6S19.2,28.3,15.1,26.1Z" transform="translate(-5 -4.8)" style="fill: url(#Dégradé_sans_nom_3)"/>
    <path id="pas-content" d="M34,31.3c-3.7-4.2-5.6-5.6-9.6-5.6s-6.5,1.7-9.4,6c3.4-2.3,5.3-3.6,9.1-3.6S29.9,29.1,34,31.3Z" transform="translate(-5 -4.8)" style="fill: url(#Dégradé_sans_nom_3-2)"/>
    <g id="g8666">
      <path id="path8610" d="M21.8,17.7c0,2.5-1.1,4.5-2.5,4.5s-2.6-2-2.6-4.5,1.1-4.5,2.5-4.5,2.5,2,2.5,4.5h0.1Z" transform="translate(-5 -4.8)" style="fill: #fff;opacity: 0.35999998450279236;isolation: isolate"/>
      <path id="path8612" d="M31,17.7c0,2.5-1.1,4.5-2.5,4.5s-2.5-2-2.5-4.5,1.1-4.5,2.5-4.5S31,15.2,31,17.7Z" transform="translate(-5 -4.8)" style="fill: #fff;opacity: 0.35999998450279236;isolation: isolate"/>
      <path id="path8614" d="M21.8,17.1c0,2.5-1.1,4.5-2.5,4.5s-2.5-2-2.5-4.5,1.1-4.5,2.5-4.5S21.8,14.6,21.8,17.1Z" transform="translate(-5 -4.8)"/>
      <path id="path8616" d="M31,17.1c0,2.5-1.1,4.5-2.5,4.5s-2.5-2-2.5-4.5,1.1-4.5,2.5-4.5S31,14.6,31,17.1Z" transform="translate(-5 -4.8)"/>
    </g>
  </g>
</svg>
