<svg id="Calque_2" data-name="Calque 2" xmlns="http://www.w3.org/2000/svg" viewBox="0 0 77.3 91.3">
  <title>waitGood</title>
  <circle cx="42.8" cy="56.8" r="33" style="fill: none;stroke: #9c1c18;stroke-miterlimit: 10;stroke-width: 3px"/>
  <circle cx="42.8" cy="56.8" r="30.1" style="fill: #fdce7e"/>
  <path id="tick" d="M23,53.2L37.5,68.2,64.3,41.7" transform="translate(0.8 0)" style="fill: none"/>
  <g id="Calque_1" data-name="Calque 1">
    <path d="M30.4,47.7C29,37.9,21.4,19,16.3,15.2S1,8.7,0,26.7C-2.4,19.7.6,8.1,9.7,6.2s22.8,5.7,30.1,36.9C35.2,47.3,31.6,47.9,30.4,47.7Z" transform="translate(0.8 0)" style="fill: #bbab9e"/>
    <path d="M54.4,45c-0.4-7.2-1.7-34.7-8.8-41.4S30.4,1,28.5,3.9,24.4,11.6,24.8,16c1.1-5,4.2-12.6,10.1-12.3s10.1,10,9.1,39.6C46.6,44.7,51.6,46.5,54.4,45Z" transform="translate(0.8 0)" style="fill: #bbab9e"/>
    <path d="M41.6,69.7c-1.1,2.7-3.8,9.6,3.6,12.4-2.1-3.5-1-7.3,1.3-11l-4.9-1.4h0Z" transform="translate(0.8 0)" style="fill: #1e1e1c"/>
    <path d="M33.5,51.2c-1.3-1-6.5-3.8-9.9,2.6C28.4,56.9,32.4,54.8,33.5,51.2Z" transform="translate(0.8 0)" style="fill: #9c1c18"/>
    <path d="M62.3,48.3c-1.1-1.2-5.8-4.7-10.2,1.1C56.4,53.2,60.6,51.7,62.3,48.3Z" transform="translate(0.8 0)" style="fill: #9c1c18"/>
    <path d="M30.4,47.7C33.5,43.1,44,37.4,54.4,45c0.7,7.3,2.6,25.7-7.5,27.3S30.9,54.8,30.4,47.7Z" transform="translate(0.8 0)" style="fill: #9c1c18"/>
    <path d="M34.7,48.2l-0.8-.7A6.3,6.3,0,0,1,37,45.4v1.1A4.8,4.8,0,0,0,34.7,48.2Z" transform="translate(0.8 0)" style="fill: #1e1e1c"/>
    <path d="M48.6,45.7V44.6A6.3,6.3,0,0,1,52.2,46l-0.8.7A5.1,5.1,0,0,0,48.6,45.7Z" transform="translate(0.8 0)" style="fill: #1e1e1c"/>
    <path d="M46.1,70.4l-0.7-.2,0.2,0.2v0.4h0Z" transform="translate(0.8 0)" style="fill: #1e1e1c"/>
    <path d="M47.7,70.3V70.1h0V69.7h0V69.3h0.4l0.3-.9H48l-0.2.7v0.2l-0.2.7h0.1v0.2Z" transform="translate(0.8 0)" style="fill: #1e1e1c"/>
    <g id="oeil_droit" data-name="oeil droit">
      <circle cx="53.5" cy="56.4" r="4.7" transform="translate(-14.7 92.2) rotate(-73.9)" style="fill: #fff"/>
      <circle cx="50.6" cy="58.2" r="0.9" transform="translate(-18.5 90.7) rotate(-73.9)" style="fill: #1e1e1c"/>
    </g>
    <g id="oeil_gauche" data-name="oeil gauche">
      <circle cx="35.6" cy="58.2" r="4.7" transform="translate(-29.4 76.3) rotate(-73.9)" style="fill: #fff"/>
      <circle cx="37.6" cy="55.3" r="0.9" transform="translate(-25.1 76.1) rotate(-73.9)" style="fill: #1e1e1c"/>
    </g>
  </g>
</svg>
