<?xml version="1.0" standalone="no"?>
<!DOCTYPE svg PUBLIC "-//W3C//DTD SVG 1.1//EN" "http://www.w3.org/Graphics/SVG/1.1/DTD/svg11.dtd" >
<svg xmlns="http://www.w3.org/2000/svg" xmlns:xlink="http://www.w3.org/1999/xlink" version="1.1">
<metadata></metadata>
<defs>
<font id="yikesregular" horiz-adv-x="1126" >
<font-face units-per-em="2048" ascent="1638" descent="-410" />
<missing-glyph horiz-adv-x="564" />
<glyph horiz-adv-x="0" />
<glyph unicode="&#xd;" horiz-adv-x="564" />
<glyph unicode=" "  horiz-adv-x="564" />
<glyph unicode="&#x09;" horiz-adv-x="564" />
<glyph unicode="&#xa0;" horiz-adv-x="564" />
<glyph unicode="!" horiz-adv-x="799" d="M19 169q0 76 81.5 146t160.5 70q76 0 128 -35q57 -36 57 -95q0 -86 -87 -166q-85 -75 -174 -81q-17 -1 -30 -1q-136 0 -136 162zM132 516q47 424 212 998q127 48 252 97q159 59 260 81q-18 -40 -260 -552q-171 -359 -249 -572q-43 -6 -86 -13q-77 -14 -129 -39z" />
<glyph unicode="&#x22;" horiz-adv-x="748" d="M27 1306q0 239 142 435q139 -65 196 -65q10 0 17 2q-111 -323 -111 -452q0 -107 45 -189q-67 -25 -146.5 -32.5t-90.5 -11.5q-52 167 -52 313zM396 1264q0 156 128 430q12 4 32 4q106 0 237 -61q-59 -56 -102 -174.5t-43 -234.5q0 -117 47 -184q-18 3 -86 -8 q-80 -12 -123 -12q-20 0 -36 2q-54 115 -54 238z" />
<glyph unicode="#" horiz-adv-x="1152" d="M94 811q11 61 50.5 159.5t79.5 155.5q34 8 110 16q6 137 6 195q49 47 135 73q86 24 173 49q-38 -65 -72 -298l174 14q6 98 6 142q47 43 125 57q138 25 163 32q-20 -43 -54 -208q146 17 190 37q-23 -77 -45 -152q-24 -63 -71 -114q-44 0 -119 -5q-14 -77 -31 -175 q128 11 171 29q-33 -109 -53 -148q-26 -56 -78 -111q-29 0 -81 -5q-38 -228 -49 -275q-79 -54 -197 -75q27 116 56 325q-81 -12 -170 -28q-9 -159 -9 -236q-46 -30 -120 -31q-109 0 -126 -3q19 56 35 226q-111 -24 -165 -41q37 201 102 300q33 13 85 24q5 70 9 146 q-150 -33 -230 -75zM533 765q62 5 180 11q10 85 18 171q-96 -10 -184 -22q-8 -77 -14 -160z" />
<glyph unicode="$" horiz-adv-x="719" d="M52 340q0 14 35 85.5t35 148.5q0 30 -5 64q107 -99 186 -100q42 0 42 42q0 29 -52 102q-70 99 -95 152q-53 105 -55 216q-2 96 64 171q62 72 155 95q-7 115 21 221l234 -16q-42 -121 -44 -240q39 -18 145 -71q-18 -38 -41 -131q-23 -89 -27 -133q-31 32 -61 65 q-53 47 -97 47q-24 0 -46 -10q-28 -15 -26 -40q5 -51 64 -113q88 -95 105 -121q56 -83 55 -189q0 -23 -2 -47q-21 -208 -207 -276q-1 -110 -52 -274l-204 26q52 143 55 246q-70 25 -182 80z" />
<glyph unicode="%" horiz-adv-x="1391" d="M47 1086q0 196 104 350q122 182 327 182q193 0 193 -301q0 -87 -90 -274q-110 -226 -232 -243q-99 -14 -109 -13q-193 0 -193 299zM48 -47q152 302 541 910q426 665 463 733q150 -100 377 -170q-267 -176 -616 -716q-270 -447 -539 -894q-155 21 -226 137zM255 1031 q0 -82 40 -83q68 0 128 155q54 140 54 263q-1 88 -36 88q-62 0 -125 -158q-61 -149 -61 -265zM740 102q0 223 105 400q128 215 350 215q165 0 164 -274q0 -19 -1 -37q0 -19 0 -17q0 -229 -133.5 -401t-317.5 -172q-63 0 -118 108q-49 97 -49 178zM897 103q0 -145 81 -131 q73 12 131 192q53 161 53 294q0 80 -26 80q-96 0 -171 -154q-68 -140 -68 -281z" />
<glyph unicode="&#x26;" horiz-adv-x="931" d="M150 668q0 148 40 219q33 58 141 130q-128 67 -126 171q7 194 283 257q-30 54 -30 135q0 48 14 84q67 -45 179 -40q-28 -30 -28 -79q0 -56 42 -97q72 -25 123 -76q61 -61 57 -131q-142 14 -236 -31q-7 41 -33 70.5t-60 29.5q-127 -4 -127 -88q0 -21 7 -46q11 -39 97 -70 q100 -35 117 -52q18 -74 12 -101q-18 1 -34 1q-108 0 -153 -59q-38 -50 -44 -167q-2 -34 24 -84q29 -56 65 -56q121 -4 159 151q62 -3 124 -7q86 -13 122 -63q-102 -185 -337 -228q-25 -33 -24 -67q0 -72 102 -148q-32 -100 -140 -124q-125 174 -125 266q0 34 17 62 q-110 8 -171 74q-57 63 -57 164z" />
<glyph unicode="'" horiz-adv-x="521" d="M262 1368q0 90 28 342q11 5 33 5q104 0 236 -62q-111 -275 -111 -516q0 -37 3 -73q-36 8 -166 27q-24 149 -23 277z" />
<glyph unicode="(" horiz-adv-x="921" d="M122 832q0 48 6 93q32 224 222 459q203 252 467 357q42 -106 42 -154q0 -63 -42 -140q-337 -189 -415 -575q-10 -51 -10 -101q0 -340 510 -669q-35 -111 -35 -202q0 -55 14 -138q-366 179 -575 503q-184 285 -184 567z" />
<glyph unicode=")" horiz-adv-x="980" d="M96 1575q0 81 47 166q384 -160 597 -451q187 -256 187 -527q0 -47 -6 -91q-33 -225 -229 -471q-210 -263 -472 -368q3 69 6 137q0 87 -19 132q199 112 331 309q110 165 124 300q3 34 3 68q0 210 -162 380q-103 109 -381 288q-26 67 -26 128z" />
<glyph unicode="*" horiz-adv-x="864" d="M52 1352q59 104 65 199q108 -16 261 -84q23 82 22 139q0 58 -22 135q117 -22 210 0q17 -82 16 -153q0 -70 -16 -122q113 11 260 85q55 -81 65 -199q-116 -59 -261 -86q91 -78 161 -221q-66 -84 -170 -123q-67 128 -160 222q-80 -139 -161 -222q-112 47 -170 123 q96 111 103 120q44 56 58 102q-101 62 -261 85z" />
<glyph unicode="+" horiz-adv-x="1109" d="M69 586q11 57 66 174q52 110 95 174q54 12 205 23q7 121 6 183q113 105 364 182q-29 -65 -53 -340q276 24 341 52q-77 -250 -183 -363q-62 0 -181 -7q-13 -151 -25 -205q-64 -43 -172 -95q-119 -56 -175 -66q28 89 54 342q-252 -25 -342 -54z" />
<glyph unicode="," horiz-adv-x="597" d="M96 172q0 75 83 146q80 70 160 69q75 0 129 -34q57 -37 57 -95q0 -9 -2 -18q-26 -173 -38 -211q-62 -185 -229 -310q6 7 6 12q0 16 -53 29q-95 24 -105 26q164 144 164 204q0 11 -5 21q-17 -1 -30 -1q-137 0 -137 162z" />
<glyph unicode="-" d="M72 594q10 56 66 175q51 109 94 173q58 13 442 39q346 25 417 57q-77 -251 -183 -364q-152 0 -413 -21q-319 -26 -423 -59z" />
<glyph unicode="." horiz-adv-x="580" d="M97 169q0 76 83 147q80 70 160 69q75 0 130.5 -35.5t55.5 -94.5q0 -86 -89 -166q-84 -75 -173 -81q-16 -1 -30 -1q-137 0 -137 162z" />
<glyph unicode="/" horiz-adv-x="1049" d="M-17 -176q351 983 749 1834q222 -134 393 -134q-267 -322 -501 -848q-183 -448 -367 -898q-38 0 -136.5 23t-137.5 23z" />
<glyph unicode="0" horiz-adv-x="1224" d="M60 571q0 307 71 498q81 221 296 354q180 113 349 113q176 0 303 -174q106 -146 106 -276q0 -183 -69 -417q-86 -290 -237 -468q-189 -222 -451 -222q-209 0 -301 205q-67 148 -67 387zM407 614q0 -209 46 -301q26 -55 70 -55q47 0 80 55q76 123 130 377q43 205 43 313 q0 22 3.5 82t3.5 93q0 140 -61 152q-109 21 -215 -237q-100 -245 -100 -479z" />
<glyph unicode="1" horiz-adv-x="781" d="M139 1270q279 290 390 348q58 0 147 -43q70 -37 141 -73q-151 -514 -164 -1430q-108 -66 -344 -213q16 314 41 571q60 616 154 846l-181 -190z" />
<glyph unicode="2" horiz-adv-x="1047" d="M3 263q0 151 701 864q22 23 22 62q0 108 -126 101q-113 -6 -327 -328q-20 33 -93 73q-66 31 -131 64q71 180 255 327q188 151 358 151q204 0 321 -143q96 -117 89 -246q-5 -88 -164 -259q-155 -154 -311 -309q-183 -185 -226 -287q106 46 267 88q185 47 302 47 q26 0 48 -3q-48 -238 -43 -314q-480 -55 -760 -253q-16 88 -80 191q-49 78 -98 157q-4 7 -4 17z" />
<glyph unicode="3" horiz-adv-x="1115" d="M40 205q37 37 110.5 131t114.5 135q176 -164 287 -164q77 0 151.5 74.5t74.5 151.5q0 145 -72 195q-43 30 -133 30q-77 0 -94.5 -5.5t-47.5 -35.5q-31 121 -145 229q197 108 351 337q-85 -6 -222 -57q-127 -48 -201 -96q0 32 34.5 154t34.5 188q94 0 278 39 q305 66 426 87q-3 -25 -3 -44q0 -57 22 -100q31 -50 60 -100q-242 -198 -329 -328q135 -6 227 -119q100 -122 100 -313q0 -216 -190 -433q-195 -224 -407 -224q-159 0 -427 268z" />
<glyph unicode="4" horiz-adv-x="1151" d="M37 717q0 79 66 378q72 321 127 457q95 31 226 58q142 29 208 24q-128 -211 -288 -847q62 18 240 81q18 109 28 259q11 133 17 160q140 56 301 56q-47 -198 -80 -386q154 43 231 43q12 0 23 -1q-39 -137 -39 -358q-94 11 -262 -28q-33 -330 -3 -566q-63 -79 -379 -185 q4 78 43 289q52 278 68 381q-145 -51 -329 -111q-98 86 -198 296z" />
<glyph unicode="5" horiz-adv-x="1138" d="M38 116l177 313q54 -27 108 -55q58 -26 123 -26q111 0 216 73q112 77 112 173q0 204 -205 204q-140 0 -263 -122q-114 94 -187 246q72 307 93 465q247 93 385 130q152 40 334 56v-235l-236 -40q-134 -28 -248 -84q0 -18 -6 -70.5t-6 -88.5q139 71 257 71q338 0 391 -328 q12 -70 12 -133q0 -178 -96 -358q-74 -139 -257 -238q-166 -89 -296 -90q-132 0 -408 137z" />
<glyph unicode="6" horiz-adv-x="1070" d="M85 422q0 373 110 619q64 143 112 238q110 220 188 314q204 -57 380 -57q-172 -172 -209 -215q-129 -152 -207 -326q125 93 257 93q20 0 40 -2q141 -14 212 -140q55 -99 55 -229q0 -125 -64 -293q-77 -207 -205 -334q-161 -158 -373 -155q-210 4 -279 277q-17 69 -17 210 zM354 431q0 -180 113 -185q97 -4 167 98q48 69 98 219q24 70 23 119q0 112 -115 112q-71 0 -142 -80q-59 -68 -141 -224q-3 -32 -3 -59z" />
<glyph unicode="7" horiz-adv-x="834" d="M3 1006q0 38 20 165q23 134 24 191q234 123 758 210q0 -11 40 -80q42 -73 49 -140q-194 -249 -292 -493q-77 -193 -106 -417q-2 -10 -29 -369q-282 -108 -423 -254q37 455 120 732q116 393 366 662q-115 -11 -269 -79q-25 -11 -258 -128z" />
<glyph unicode="8" horiz-adv-x="1259" d="M85 307q0 360 361 601q-200 104 -197 218q7 195 270 337q211 114 366 114q95 0 205 -83q128 -96 120 -217q-14 -215 -218 -343q220 -93 219 -298q0 -19 -1 -39q-26 -296 -277 -469q-219 -149 -499 -149q-168 0 -260 94q-88 87 -89 234zM450 353q-2 -44 21 -80 q27 -44 77 -44q102 0 219 112q124 120 124 240q0 57 -32 103.5t-143 100.5q-142 -86 -200.5 -180.5t-65.5 -251.5zM537 1126q0 -75 126 -101q76 33 132 50q95 29 96 130q0 64 -39 116t-92 51q-95 -3 -155 -59q-69 -65 -68 -187z" />
<glyph unicode="9" horiz-adv-x="1072" d="M87 812q0 124 63 293q77 207 206 334q161 158 374 154q209 -3 278 -276q17 -69 17 -210q0 -373 -110 -619q-65 -144 -112 -238q-110 -221 -188 -315q-204 58 -380 58q172 172 209 215q129 151 207 327q-125 -93 -257 -94q-21 0 -40 2q-141 14 -212 141q-55 98 -55 228z M355 847q0 -112 116 -111q71 0 140 79q59 67 142 224q3 31 3 60q0 180 -113 184q-97 4 -167 -98q-47 -69 -97 -220q-24 -69 -24 -118z" />
<glyph unicode=":" horiz-adv-x="636" d="M80 419q0 75 84 146q80 70 160 70q76 0 128 -35q57 -37 57 -95q0 -87 -88 -166q-85 -75 -174 -81q-16 -1 -29 -1q-137 0 -138 162zM180 962q0 82 61 151q67 74 162 78q14 2 32 2q166 0 165 -118q0 -24 -8 -51q-20 -75 -72 -129q-65 -67 -145 -61q-194 13 -195 128z" />
<glyph unicode=";" horiz-adv-x="584" d="M95 172q0 75 84 146q80 70 159 69q75 0 129 -34q56 -37 56 -95q0 -9 -1 -18q-26 -173 -38 -211q-63 -185 -229 -310q5 7 5 12q0 16 -52 29q-95 24 -105 26q164 144 164 204q0 11 -5 21q-17 -1 -30 -1q-137 0 -137 162zM122 778q0 82 61 151q66 74 162 77q14 2 31 2 q166 0 165 -117q1 -24 -6 -51q-21 -75 -74 -130q-65 -67 -145 -61q-194 14 -194 129z" />
<glyph unicode="&#x3c;" horiz-adv-x="1000" d="M63 850q63 79 331 357q282 288 342 361q112 -89 163 -194q-324 -279 -476 -485q220 -225 538 -361q-93 -105 -123 -225q-324 178 -775 547z" />
<glyph unicode="=" horiz-adv-x="994" d="M55 317q10 56 66 174q52 110 94 174q17 3 382 61q282 44 357 78q-77 -251 -182 -364q-108 0 -352.5 -42.5t-364.5 -80.5zM145 798q11 57 67 175q52 110 94 174q17 4 383 61q282 45 357 78q-77 -251 -183 -363q-108 0 -352.5 -42.5t-365.5 -82.5z" />
<glyph unicode="&#x3e;" horiz-adv-x="975" d="M63 1344q93 105 123 224q324 -176 775 -547q-63 -79 -331 -357q-282 -288 -342 -361q-112 89 -163 194q324 280 476 487q-221 224 -538 360z" />
<glyph unicode="?" horiz-adv-x="908" d="M51 1208q69 77 137 154q105 113 200 174q129 82 257 82q134 0 231 -66.5t97 -158.5q0 -69 -115 -193q-175 -188 -221 -256q-125 -180 -145 -377q-15 2 -31 2q-165 0 -282 -88q15 250 186 482q118 139 235 279q5 7 5 24q0 46 -49 46q-28 0 -71 -17q-57 -24 -158 -133 q-91 -98 -158 -199q0 31 -44 123t-74 122zM89 169q0 76 84 147q80 70 159 69q76 0 130.5 -35.5t54.5 -94.5q0 -86 -87 -166q-85 -75 -174 -81q-17 -1 -29 -1q-137 0 -138 162z" />
<glyph unicode="@" horiz-adv-x="1457" d="M104 858q0 298 207 539q214 248 503 248q247 0 370 -163q139 -185 157 -339q-64 -164 -154 -280q-50 -65 -152 -160q-58 -54 -118 -54q-91 0 -145 107q-100 -101 -154 -117q-32 -10 -59 -10q-64 0 -96 52q-23 37 -23 78q0 96 47 160q29 42 117 108q74 56 95 74 q66 56 106 112q7 33 7 56q0 40 -23 40q-41 0 -83 -68q-33 -55 -43 -105q-99 16 -172 -1q41 96 124 173q66 63 111 76q14 5 36 5q57 0 110 -22q62 -26 74 -67q13 -49 -5 -179q-23 -160 -23 -200q0 -101 49 -101q33 0 88 54q48 47 72 89q36 67 36 140q0 128 -111 252 q-103 115 -254 114q-186 0 -312 -171q-182 -248 -183 -459q0 -230 208 -348q105 -59 213 -58q243 0 446 286q40 53 80 105q61 84 101 168q3 -31 3 -64q0 -306 -213 -505q-181 -171 -477 -171q-171 0 -262 51q-144 80 -223 236q-75 146 -75 319zM618 857q-6 -58 54 -58 q13 0 25 3q47 13 76 104q0 81 8 174q-60 -30 -105 -87q-51 -65 -58 -136z" />
<glyph unicode="A" horiz-adv-x="1241" d="M95 141l531 1436h4q29 0 182 26q182 29 368 29q-34 -236 -34 -618q0 -217 11 -566q14 -379 15 -470q-13 2 -34 2q-101 0 -396 -39q19 55 48 446l-230 -29q-47 -175 -70 -298q-282 0 -395 81zM600 496l198 20q45 598 76 744q-125 -263 -274 -764z" />
<glyph unicode="B" horiz-adv-x="1136" d="M38 106q44 188 93 597q39 354 79 707q306 170 488 170q115 0 200 -38q103 -45 103 -126q0 -120 -98 -231q-93 -88 -185 -178q92 22 157 22q171 0 202 -135q13 -54 13 -112q0 -218 -149 -399q-101 -122 -323 -271q-170 -115 -300 -179q-62 64 -280 173zM450 336 q89 89 180 178q89 98 89 163q0 60 -48 106t-114 46q-36 0 -71 -17q-35 -364 -36 -476zM487 1019q176 169 192 263q2 12 2 22q0 75 -106 75h-3q-22 0 -51.5 -3t-33.5 -3v-354z" />
<glyph unicode="C" horiz-adv-x="922" d="M33 496q0 487 237 777q108 131 180 186q107 80 226 81q97 0 185 -94q74 -78 85 -143q-69 -49 -210 -204q-10 12 -40 111q-25 81 -55 81h-1q-135 -5 -222 -539q-20 -122 -20 -225q0 -146 37 -235q30 -72 65 -72h3q45 3 118 105t114 216q124 -248 164 -269 q-208 -298 -442 -298h-2q-234 2 -346 214q-76 143 -76 308z" />
<glyph unicode="D" horiz-adv-x="1102" d="M30 231q0 244 25.5 539.5t25.5 436.5q0 99 -6 204q120 49 289 90q161 39 228 39q202 0 342 -130.5t140 -331.5q0 -271 -210 -617q-234 -384 -576 -567q-161 137 -258 337zM341 249q288 305 353 605q38 176 39 282q-1 99 -35 126q-63 51 -155 51q-53 0 -103 -16 q1 -10 1 -27q0 -97 -43 -492q-56 -518 -57 -529z" />
<glyph unicode="E" horiz-adv-x="967" d="M22 175q55 48 64 211q11 169 21 339q26 173 50 344q30 213 30 343q163 44 325 90q238 59 405 61q-11 -46 -11 -94q0 -60 17 -126q-135 0 -230 -22q-57 -13 -195 -61q-9 -66 -34 -287q175 78 355 122q-8 -58 -8 -125.5t8 -142.5q-258 -39 -384 -124q-20 -220 -20 -349v-12 q230 112 484 149q4 -145 8 -197q11 -141 39 -192q-129 0 -340 -60q-231 -67 -324 -148q-53 26 -145 127q-89 97 -115 154z" />
<glyph unicode="F" horiz-adv-x="797" d="M-25 -104v59q0 354 65 778q66 401 132 801q122 28 366 71q225 38 316 63q-46 -180 -59 -312q-109 -12 -354 -72q-14 -74 -58 -353q273 118 365 118q-50 -100 -94 -307q-35 -3 -117 -27q-109 -31 -192 -75q-37 -323 -37 -544v-33q-106 -43 -333 -167z" />
<glyph unicode="G" horiz-adv-x="1137" d="M38 696q0 332 172 578q214 306 612 306q118 0 213 -115q82 -98 82 -175q-57 -22 -200 -123q-134 -95 -188 -148q13 55 13 122q0 89 -22.5 157t-56.5 69h-1q-88 0 -164 -245q-63 -200 -70 -356q-11 -202 -11 -247q0 -306 103 -306q126 0 220 376l-192 -34q11 23 11 52 q0 15 -3.5 46t-3.5 48q0 36 13 68q196 13 510 131q-28 -325 -108 -527q-155 -399 -486 -399q-249 0 -366 303q-77 197 -77 419z" />
<glyph unicode="H" horiz-adv-x="1084" d="M5 331q0 852 44 1123q230 0 430 40q-57 -110 -98 -555q97 16 235 93q48 210 119 583q117 -12 224 -11.5t203 11.5q-94 -199 -185 -735q-87 -521 -98 -902q-28 2 -58 2q-146 0 -324 -45q28 522 88 911q-93 -77 -220 -110q-21 -312 -21 -490q0 -89 5 -144 q-225 -69 -337 -126q-7 107 -7 355z" />
<glyph unicode="I" horiz-adv-x="495" d="M77 -22v1148q4 225 42 319q95 26 191 51q118 32 191 81q-118 -708 -118 -1544v-14q-15 3 -40 3q-92 0 -266 -44z" />
<glyph unicode="J" horiz-adv-x="1201" d="M58 442q175 78 345 214q32 -124 64 -247q44 -154 92 -154h1q114 3 171 246q49 204 49 526q0 288 -37 506q180 0 430 83q-26 -441 -53 -882q-47 -462 -210 -632q-123 -128 -352 -128q-166 0 -265.5 93t-234.5 375z" />
<glyph unicode="K" horiz-adv-x="1075" d="M-3 -63v31q0 207 47 657q52 500 52 683q0 86 -7 151q52 53 177 94q50 17 237 63q-41 -150 -67 -572q287 333 455 617q39 -37 129 -148q95 -117 133 -154q-175 -129 -522 -564q65 -152 198 -333q31 -42 244 -309q-153 -114 -261 -259q-65 58 -206 261q-123 177 -244 354 q-21 -213 -21 -374q0 -61 3 -115h-10q-89 0 -337 -83z" />
<glyph unicode="L" horiz-adv-x="847" d="M66 58q26 483 50 702q40 394 121 718q240 88 503 135q-125 -192 -247 -607q-113 -388 -113 -584v-16q77 79 153 158q86 87 159 131q38 -239 133 -382q-85 -63 -245 -217q-178 -171 -221 -242q-30 58 -127 122q-89 59 -166 82z" />
<glyph unicode="M" horiz-adv-x="1470" d="M25 251q0 415 260 1188q180 66 266 99q168 66 273 119q-73 -362 -73 -635q0 -109 14 -189q58 179 116 360q71 209 127 326q51 25 218 85q176 63 241 92q-87 -277 -87 -1211q0 -273 12 -423q-125 -35 -392 -125q-9 122 -9 250v26q0 177 17 423q17 210 33 418 q-170 -353 -259 -997q-14 4 -38 4q-97 0 -184 -44v501q-5 293 -31 500q-144 -506 -145 -815q0 -30 1 -62l-146 -40q-100 -33 -153 -86q-61 57 -61 230v6z" />
<glyph unicode="N" horiz-adv-x="1199" d="M65 -96v48q1 394 31 820q32 439 31 609v10q197 110 416 183q67 -467 68 -474q46 -294 99 -505q50 198 84 530q26 264 53 529q34 -2 70 -2q163 0 369 41q-131 -230 -219 -791q-68 -431 -74 -743q-58 -43 -153 -87q-98 -44 -197 -89q-63 435 -186 865q-71 -201 -71 -713 q0 -70 1 -145q-207 -38 -322 -86z" />
<glyph unicode="O" horiz-adv-x="1185" d="M49 630q0 42 5 83q52 403 220 625q175 230 456 239h18q380 0 380 -544q0 -32 -1.5 -77.5t-1.5 -55.5q0 -373 -152 -606q-171 -262 -483 -262q-192 0 -321 194q-120 178 -120 404zM408 637q0 -154 61 -253q48 -77 93 -77h6q52 8 101 108q59 123 84 345q13 113 13 287 q0 313 -61 313h-4q-114 -16 -202 -267q-55 -157 -81 -333q-10 -65 -10 -123z" />
<glyph unicode="P" horiz-adv-x="998" d="M75 102q0 352 53 803q69 581 74 667q126 31 251 32q193 0 331 -72q147 -77 188 -216q12 -40 12 -89q0 -168 -123 -354q-143 -219 -414 -386q12 -256 75 -412q-159 -45 -445 -133q-2 80 -2 160zM449 775q95 70 163 200q61 113 61 186q0 91 -78 115q-25 8 -108 8 q0 -35 -14 -198q-18 -188 -24 -311z" />
<glyph unicode="Q" horiz-adv-x="1181" d="M35 656q0 28 2 57q32 351 210 596q191 265 466 268h5q384 0 384 -615q0 -394 -124 -630l82 -124q46 -63 100 -102l-122 -96q-56 -49 -95 -123q-15 32 -151 265q-96 -74 -122 -86q-65 -33 -168 -34q-198 0 -337 203q-129 189 -130 421zM366 760q-1 -18 -1 -35 q0 -173 73 -298q70 -121 154 -121h10q30 3 74 43q-40 62 -82 124q-45 66 -98 111q80 73 108 106q52 62 80 143q7 -21 127 -239q24 91 27 196v33q0 174 -49 300q-62 161 -181 161q-221 0 -242 -524z" />
<glyph unicode="R" horiz-adv-x="1148" d="M85 102q0 352 53 803q69 581 75 667q224 56 416 56q389 0 414 -231q4 -35 4 -72q0 -352 -316 -648q92 -136 386 -258q-106 -77 -281 -295q-167 102 -344 375l-61 -28q-17 -73 -17 -145v1q1 0 22 -252q-130 -32 -183 -51q-90 -30 -166 -82q-2 80 -2 160zM449 742 q100 131 172 262q74 138 74 199q0 90 -60 90q-18 0 -50 -9t-40 -9q0 -45 -33 -208q-48 -232 -63 -325z" />
<glyph unicode="S" horiz-adv-x="915" d="M48 550q41 -37 112 -67q79 -33 148 -34q99 0 143 71q13 21 13 46q0 59 -78 182q-132 215 -144 236q-78 149 -81 266v14q0 162 131 278q130 117 298 117q89 0 257 -84q-23 -49 -26 -171q-2 -87 -4 -175q-27 37 -55 76q-42 50 -104 52h-11q-53 0 -84 -37q-34 -41 -34 -119 v-13q3 -77 89 -175q136 -154 158 -187q84 -130 84 -288q0 -33 -4 -67q-21 -214 -131 -347q-118 -142 -296 -143q-67 0 -178 30q-105 28 -170 61q0 264 -33 478z" />
<glyph unicode="T" horiz-adv-x="973" d="M-22 1419q41 6 213 63q199 66 328 96q209 50 377 50q59 0 112 -6q-1 -24 -1 -47q0 -159 37 -247q-151 -11 -358 -54q-55 -320 -55 -707q0 -237 19 -397q-300 -138 -495 -269q24 116 72 588q48 465 95 691q-179 -55 -333 -119q4 37 4 91q0 103 -15 267z" />
<glyph unicode="U" horiz-adv-x="1251" d="M91 688q0 307 106 668q172 20 374 95q-77 -228 -77 -733q0 -258 28 -397q8 -43 71 -43q85 0 121 49q100 140 100 565q0 201 -22 400q-21 183 -45 236q69 14 219 78q179 76 220 90q-4 -24 -4 -61q0 -40 10 -200t10 -270q0 -581 -248 -939q-143 -209 -432 -209 q-104 0 -172 45q-39 26 -111 109q-148 173 -148 517z" />
<glyph unicode="V" d="M-26 1275q68 14 187 64q134 56 220 113q0 -645 99 -1090q40 387 112 787q86 473 165 621q156 -81 450 -160q-210 -281 -365 -773q-71 -226 -184 -716q-212 -58 -378 -139q-88 294 -176 589q-120 421 -130 704z" />
<glyph unicode="W" horiz-adv-x="1371" d="M-20 1354q26 21 182 100q147 76 193 121q-32 -227 -32 -489q0 -247 29 -452q26 157 107 471q63 246 63 352q108 23 323 89q-41 -119 -41 -275q0 -211 46 -257q26 168 91 355q87 250 101 301q54 26 206 35q164 7 221 26q-255 -488 -437 -1629q-91 -84 -351 -121 q23 71 23 173v9q0 87 -28 339q-25 227 -25 373v21q-68 -208 -97 -349q-31 -146 -62 -407q-52 -67 -172 -136q-95 -51 -191 -103q1 23 1 45q0 172 -34 332q-52 244 -62 333q-14 145 -25 423q-9 216 -29 320z" />
<glyph unicode="X" horiz-adv-x="1269" d="M-7 35q73 259 402 707q-263 467 -292 568q192 92 366 266q26 -210 163 -522q327 426 362 563q41 -41 159 -107q137 -77 206 -77q-28 -114 -196 -326q-177 -209 -352 -417q97 -181 328 -564q-29 -64 -121 -152q-87 -84 -152 -116q-24 90 -280 547q-207 -284 -280 -506 q-116 47 -313 136z" />
<glyph unicode="Y" horiz-adv-x="971" d="M-2 1433q176 83 341 249q31 -250 127 -495q64 128 270 517q32 -33 129 -69q102 -37 175 -37q-528 -980 -683 -1689q-77 7 -186 71q-94 56 -161 122q82 297 277 719q-239 443 -289 612z" />
<glyph unicode="Z" horiz-adv-x="1023" d="M27 231q37 126 266 460q246 359 436 535q-7 1 -16 1q-74 0 -210 -49q-120 -44 -240 -87q54 261 60 397q261 65 316 76q224 46 410 49q0 -13 24 -77t24 -123q0 -38 -158 -243q-216 -282 -287 -389q-137 -210 -137 -317q0 -10 1 -19q100 89 410 186v-398q-119 -1 -394 -139 q-211 -106 -409 -234q-10 145 -42 228z" />
<glyph unicode="[" horiz-adv-x="790" d="M202 1129q0 295 18 583h119q48 0 184.5 13t184.5 13v-256q-162 0 -246 -15q-4 -114 -4 -253q0 -605 53 -1111q107 2 238 12l73 -246q-90 -26 -266 -29q-135 1 -270 1q-84 633 -84 1288z" />
<glyph unicode="\" horiz-adv-x="1125" d="M30 1524q48 57 191 100q130 40 203 34q396 -851 747 -1834q-38 0 -136.5 -23t-137.5 -23l-366 898q-234 527 -501 848z" />
<glyph unicode="]" horiz-adv-x="891" d="M202 -131l73 246q83 -3 238 -12q53 506 53 1111q0 139 -4 253q-84 15 -246 15v256q48 0 184.5 -13t184.5 -13h119q18 -287 18 -583q0 -655 -84 -1288q-134 0 -270 -1q-176 2 -266 29z" />
<glyph unicode="a" d="M229 307q0 179 75 273q48 61 188 134q120 63 154 84q107 68 172 149q12 60 12 101q0 90 -57 92h-3l-113 -84q-52 -78 -68 -171q-140 66 -278 95q66 155 203 238q102 62 182 62q78 0 193 -69q133 -80 156 -182q25 -118 25 -306q0 -94 -6 -206q-10 -179 -10 -307 q0 -135 11 -214q-164 0 -297 -40q-2 66 -3 156q-163 -132 -250 -133q-156 0 -233 136q-53 92 -53 192zM515 389q-1 -8 -1 -16q0 -59 40 -95q38 -34 90 -38h3q74 0 118 151q4 194 14 322q-97 -24 -170 -104q-83 -91 -94 -220z" />
<glyph unicode="b" horiz-adv-x="983" d="M90 193q0 289 22 859q18 460 18 584v28q88 7 178 15q112 14 197 62q-64 -126 -96 -346q-30 -236 -61 -474q174 277 394 277q106 0 159 -145q35 -94 39 -213v-15q0 -109 -52 -292q-64 -226 -161 -372q-120 -181 -258 -182q-79 0 -207 169q-3 -56 -3 -97t3 -68 q-50 -15 -97 -15q-37 0 -72 9q-3 94 -3 216zM326 477q25 -133 39 -175q25 -75 66 -76h4q88 0 146 207q48 176 48 365q0 110 -20 129q-25 24 -49 23q-51 0 -110 -107q-33 -59 -110 -243q-8 -64 -14 -123z" />
<glyph unicode="c" horiz-adv-x="908" d="M49 476q0 230 129 478q152 295 362 296q187 -1 350 -245q-128 -79 -187 -162q0 34 -50 96q-53 64 -93 64h-1q-119 0 -179 -200q-44 -144 -45 -312q0 -281 157 -299q6 -1 12 -1q63 0 117 79q48 69 69 160q47 -130 164 -231q-49 -108 -155 -183q-109 -77 -220 -78 q-203 0 -328 198q-102 162 -102 340z" />
<glyph unicode="d" horiz-adv-x="1021" d="M23 656q13 195 82 345q88 191 235 191h13q158 -9 277 -280q12 116 52 351q31 183 31 286q0 85 -17 167q110 -20 235 -20q78 0 163 8q-104 -179 -180 -606q-79 -446 -79 -906q0 -118 6 -228q-41 -10 -148 -13q-30 -1 -54 -1q-67 0 -94 8q22 40 40 272q-135 -266 -287 -266 h-11q-270 16 -270 521q0 75 6 171zM263 446q0 -235 92 -235h4q54 3 166 199q-6 15 -6 52q0 43 11 162t11 161q1 39 -6 52q-65 117 -126 117h-1q-29 0 -59 -27q-26 -25 -55 -178q-31 -163 -31 -303z" />
<glyph unicode="e" horiz-adv-x="935" d="M61 430q4 234 103 466q151 354 450 354q145 0 217 -149q54 -115 54 -289q-1 -170 -33 -196h-10q-23 0 -66 3q-65 4 -100 4q-187 0 -324 -91q-1 -25 -1 -46q0 -218 112 -221h3q77 0 103 51q21 57 41 114q97 -105 204 -174l-52 -96q-43 -64 -111 -101q-91 -48 -237 -56h-16 q-152 0 -253 163q-84 135 -84 258v6zM375 706q118 63 228 63q29 0 58 -4q0 149 -9 209q-19 140 -83 140h-4q-111 -9 -190 -408z" />
<glyph unicode="f" horiz-adv-x="895" d="M-6 486v106q91 85 203 122q15 665 81 768q30 49 154 129.5t187 86.5q18 2 83 16q52 11 84 11h5q52 0 80 -27q41 -39 58 -140l30 -216q-138 -34 -274 -131q0 20 6.5 93.5t6.5 110.5q0 84 -30 85q-8 0 -17 -4q-76 -37 -100 -112q-33 -115 -65 -230q-29 -87 -40 -360l-1 -31 q115 21 204 56v-105q-97 -52 -206 -80q-1 -71 -1 -159t1 -193q2 -259 2 -267q-4 1 -10 1q-32 0 -101 -20q-80 -23 -141 -55q0 575 1 633q-100 -31 -200 -88z" />
<glyph unicode="g" horiz-adv-x="1314" d="M71 -102q0 185 234 299q247 122 535 122q11 25 46 78q25 38 25 57q0 37 -75 71q-120 -75 -276 -75q-139 0 -206 48q-74 52 -74 175q0 170 214 339q197 155 338 155q98 0 223 -89q56 101 103 146q51 47 98 47q9 0 17 -2q69 -22 135 -128q-92 -54 -162 -167 q-13 40 -26.5 79.5t-38.5 67.5q-46 -11 -86 -74q65 -59 65 -119q0 -11 -2 -20q-17 -98 -40 -143q-31 -62 -115 -129q9 -48 44.5 -86.5t41.5 -65.5q1 -2 1 -4q0 -20 -38 -53q-51 -46 -69 -110q85 -16 162 -101t77 -162t-63.5 -167t-156.5 -146q-230 -138 -462 -138 q-40 0 -81 4q-349 36 -384 250q-4 21 -4 41zM406 -214q0 -96 82 -96q14 0 29 3q110 19 159 42q99 47 137 150q28 76 29 127q0 54 -29 104q-14 26 -39 32q-19 5 -52 2q-48 -5 -56 -5q-89 0 -177 -129q-83 -124 -83 -230zM563 682q0 -136 42 -137q10 0 22 13q231 264 231 384 q0 74 -40 74q-51 0 -141.5 -93t-104.5 -150q-9 -41 -9 -91z" />
<glyph unicode="h" horiz-adv-x="923" d="M74 486q0 881 62 1137q136 50 396 137q-122 -310 -149 -856q187 250 277 268q76 16 97 16q89 -1 99 -86q10 -89 10 -192q0 -180 -37 -459t-37 -339q0 -21 2 -37q-172 -32 -302 -116v7q0 56 36 361q40 342 40 449q0 57 -9 70q-8 11 -20 11q-50 0 -164 -160q-1 -55 -1 -276 v-262q-50 -8 -146 -54q-90 -43 -145 -81q-9 129 -9 405v57z" />
<glyph unicode="i" horiz-adv-x="484" d="M63 1338q0 70 101 156q99 83 171 83q71 0 125 -37q60 -41 60 -106q0 -64 -63 -120q-54 -48 -127 -70q-60 -18 -111 -18q-112 0 -150 84q-6 13 -6 28zM78 564v122q0 205 5 350l2 37q29 -5 65 -5q85 0 176 26q94 26 146 68q-10 -61 -84 -443q-53 -272 -84 -562 q-77 -33 -222 -90v-2z" />
<glyph unicode="j" horiz-adv-x="1005" d="M55 11q197 32 386 185q-14 -91 -14 -187v-34q1 -105 14 -124q18 -26 46 -26q22 0 36 16q38 44 52 107q1 3 15 119q99 54 115 100q7 19 7 58q0 66 -20 187q-98 617 -99 622q29 -5 65 -5q85 0 176 25q94 28 146 69q-17 -107 -36 -454q-16 -289 -79 -567q-17 -71 -66 -168 q-64 -128 -129 -166q-99 -58 -235 -58q-76 0 -151 17q-118 28 -169 90q-56 67 -60 194zM571 1299q0 71 100 155t173 84q71 0 124 -37q60 -41 60 -106q0 -64 -63 -120q-54 -48 -127 -70q-58 -17 -106 -17h-5q-112 0 -150 84q-6 12 -6 27z" />
<glyph unicode="k" horiz-adv-x="784" d="M40 -16q47 1212 47 1420q0 131 -4 238q20 -3 44 -3q206 0 349 102q-141 -315 -142 -727q0 -49 2 -101q178 191 258 377q0 -28 71 -94q62 -57 135 -105q-213 -319 -415 -369q139 -279 379 -518q-28 -61 -107 -128q-69 -59 -138 -95q-92 138 -102 157q-75 133 -118 302 q-9 -211 -9 -320q0 -54 2 -82q-68 -40 -252 -54z" />
<glyph unicode="l" horiz-adv-x="466" d="M24 -15q23 1011 23 1335v26q0 197 -6 264q236 42 460 125q-103 -274 -262 -1701q-78 0 -215 -49z" />
<glyph unicode="m" horiz-adv-x="1423" d="M54 1173q131 17 348 55q-5 -40 -5 -78q0 -16 1 -32q2 -40 2 -72q0 -21 -1 -39q92 124 261 189q50 20 84 20h3q77 0 87 -86q11 -91 14 -184q67 73 158 131q86 55 144 67q120 25 130 25h1h2q78 0 80 -74v-30q0 -219 -79 -552q-86 -364 -86 -426q0 -13 1 -23q-32 -6 -83 -6 h-26q-50 2 -79 2q-20 0 -31 -1q-66 -5 -100 -28q-2 41 75 399q80 367 81 462q0 39 -9.5 46t-18.5 7q-49 0 -158 -128q-3 -378 -92 -663q-83 -16 -153 -16q-46 0 -87 7q53 319 53 654q0 114 -15 136t-44 22q-70 0 -142 -100v-666q-28 4 -55 4q-97 0 -183 -48q-49 198 -65 507 q-6 126 -13 519z" />
<glyph unicode="n" horiz-adv-x="1128" d="M88 1092q90 29 162 54q172 60 218 88q2 -18 2 -59q0 -77 -8 -235q62 82 204 177q130 88 190 99q16 3 37 3q68 0 118 -28q65 -36 66 -105v-15q0 -189 -95 -600q-53 -215 -106 -431q-133 -27 -184 -41q-102 -27 -149 -62q13 87 110 462q85 328 86 453q0 123 -58 123 q-51 0 -135 -97q-75 -88 -117 -181q1 -32 1 -71q0 -97 -4 -235q-5 -203 -5 -272q-10 1 -21 1q-93 0 -257 -92q-4 288 -9 578q-8 396 -46 486z" />
<glyph unicode="o" horiz-adv-x="938" d="M77 412q2 196 111 430q152 325 407 325h2q178 0 242 -160q39 -100 46 -331v-23q0 -253 -147 -467q-160 -231 -374 -231h-4q-159 2 -233 193q-50 126 -50 259v5zM352 430q0 -250 65 -251q8 0 17 5q88 46 144 246q45 157 45 285q0 282 -46 282q-4 0 -7 -1 q-218 -74 -218 -566z" />
<glyph unicode="p" horiz-adv-x="1024" d="M70 1081q227 100 395 213q0 -68 -17 -264q125 183 247 218q29 8 55 7q85 0 148 -96q72 -110 72 -360q0 -86 -9 -143q-44 -258 -87 -371q-103 -264 -295 -264h-1q-90 0 -196 112q-6 -135 -6 -248q0 -160 12 -274q-37 -9 -80 -9q-77 0 -148 26q-25 228 -50.5 771t-39.5 682 zM423 737q-2 -23 -2 -56q0 -43 3 -102q3 -67 3 -113q0 -28 -1 -48q68 -135 121 -136q11 0 22 3q95 27 156 348q15 78 15 169q0 232 -73 233q-66 0 -148 -121q-57 -84 -96 -177z" />
<glyph unicode="q" horiz-adv-x="1062" d="M35 574q0 162 135 378q159 256 357 256q42 0 120 -64q107 -87 128 -98q32 130 31 174q69 -23 189 -44q108 -19 144 -19q-134 -226 -244 -692q-74 -362 -149 -725q75 44 147 129q11 13 100 130q9 -129 77 -254q-88 -74 -137 -98q-72 -35 -185 -44q-168 34 -200 123 q-20 52 -20 75q0 41 28 172q1 5 23 132q-84 -84 -216 -84q-172 0 -266 257q-62 171 -62 296zM363 553q0 -105 28 -198q38 -126 112 -139h2q24 0 86 101q29 170 73 402q-36 286 -127 286q-72 0 -127 -169q-47 -148 -47 -283z" />
<glyph unicode="r" horiz-adv-x="847" d="M74 927q0 136 8 230q87 74 251 90q-5 -82 -5 -162q193 167 338 167q16 0 30 -3q63 -13 90 -143l44 -218q-10 2 -21 2q-115 0 -298 -124q40 105 40 176q0 105 -57 105q-89 0 -160 -192q9 -131 50 -419q34 -247 38 -410h-14q-109 0 -326 -84q12 90 12 233q0 114 -10 372.5 t-10 379.5z" />
<glyph unicode="s" horiz-adv-x="876" d="M39 236q-6 52 221 165q51 -192 158 -202q36 -4 44 17q4 11 0 53q-3 37 -80 139q-108 141 -143 199q-77 130 -77 237q0 145 133 257q127 107 274 107h3q79 0 167 -119q90 -124 94 -252q-116 -29 -247 -78q1 15 1 34q0 90 -23 153q-28 77 -83 77q-5 0 -9 -1 q-64 -7 -64 -162q0 -39 81 -160q122 -179 150 -228q73 -131 73 -216v-11q-9 -143 -147 -255q-115 -92 -198 -92q-226 0 -328 338z" />
<glyph unicode="t" horiz-adv-x="877" d="M48 808l2 141q77 36 164 71q40 362 72 525q250 31 412 106q-62 -170 -150 -520q145 38 254 47v-106q-39 -14 -295 -107q-122 -517 -122 -726q0 -47 7 -74q23 -90 79 -90q59 0 80 58q13 35 16 109q4 83 10 109q34 7 73 7q120 0 197 -41q-17 -255 -152 -414 q-109 -128 -209 -129q-105 0 -203.5 100t-114.5 228q-8 60 -8 158q0 222 36 595q-82 -27 -148 -47z" />
<glyph unicode="u" horiz-adv-x="942" d="M66 639q0 215 49 482q113 0 355 82q-26 -79 -63 -329q-42 -283 -42 -459q0 -190 53 -190q167 0 167 348q0 88 -14 273q-11 137 -11 203q0 15 1 27q166 15 320 88q6 -112 6 -211q0 -452 -119 -696q-61 -125 -169.5 -201.5t-224.5 -76.5q-93 0 -182 127q-126 180 -126 528 v5z" />
<glyph unicode="v" horiz-adv-x="949" d="M-34 1036q82 35 164 69q120 50 194 99q-30 -116 -31 -297q0 -326 88 -564q67 482 288 902q82 11 169 11t179 -11q-193 -242 -326 -640q-77 -258 -155 -516q-117 -36 -153 -50q-116 -44 -201 -99q-60 209 -140 617q-77 400 -76 479z" />
<glyph unicode="w" horiz-adv-x="1297" d="M62 1041q77 47 191 96q148 64 157 67q-25 -256 -25 -371q0 -226 55 -403q12 50 65 327q38 205 77 300q37 35 90 46l110 16q-1 -27 -1 -53q0 -152 20 -299q2 -18 54 -331q72 377 187 728q38 -3 75 -3q150 0 274 43q-72 -214 -159 -530q-100 -364 -135 -561 q-68 -57 -190 -110q-118 -52 -193 -61q4 72 4 153q0 333 -58 579q-88 -176 -127 -543q-50 -23 -147 -84q-122 -80 -164 -104q-55 193 -112 618q-48 363 -48 468v12z" />
<glyph unicode="x" horiz-adv-x="1108" d="M56 994q79 24 161 108q108 113 153 145q29 -155 108 -400q126 275 169 381h16q118 0 228 -28q53 -15 210 -73q-249 -203 -503 -621q141 -367 238 -487q-60 -99 -146 -122q-136 179 -237 348q-90 -177 -160 -355q-35 27 -99 51q-60 22 -92 50q63 163 215 502 q-80 160 -161 320q-77 152 -100 181z" />
<glyph unicode="y" horiz-adv-x="1173" d="M67 -139q166 45 337 157q-5 -68 -5 -120q0 -157 48 -157q106 0 179 181q54 137 72 316q-136 -110 -258 -110q-175 0 -257 135q-57 91 -57 204q0 81 102 486q39 0 142 33q129 40 235 58q-37 -55 -93 -257q-62 -224 -62 -353q0 -118 57 -118q18 0 82 56q79 70 133 155 q28 283 28 444q0 38 -2 69q63 0 374 104q-21 -189 -41 -379q-26 -235 -57 -380q-70 -330 -203 -580q-65 -124 -187 -168q-94 -34 -278 -34q-243 0 -289 258z" />
<glyph unicode="z" horiz-adv-x="941" d="M60 266q0 70 240 321q202 213 381 361q-73 0 -252 -55q-185 -57 -252 -105q27 130 56 331q74 50 280 85q234 40 332 83q0 -11 23 -136t23 -175q-144 -154 -290 -308q-186 -208 -231 -367q54 38 218 121q180 91 240 128q0 -97 77 -327q-486 -195 -735 -361 q-61 277 -110 404z" />
<glyph unicode="{" horiz-adv-x="901" d="M101 768q176 182 205 285q19 67 19 150q0 48 -9 140.5t-9 137.5q0 115 41 199q30 62 270 62q44 0 110 -2t81 -2v-256q-162 0 -246 -15q-1 -40 4 -128q5 -99 5 -145q0 -110 -20 -191q-31 -133 -143 -230q123 -69 162 -198q28 -94 34 -248q7 -221 7 -224q107 2 238 12 l73 -246q-134 -39 -248 -40q-153 0 -220 76q-77 87 -77 264q0 20 1 60t1 60q0 103 -18 175.5t-116 166.5q-73 69 -145 137z" />
<glyph unicode="|" horiz-adv-x="814" d="M7 -138q0 119 42 207q80 29 182 59q23 188 45 530q16 261 30 522q-85 -26 -222 -83q-6 35 -6 71q0 30 5.5 86.5t5.5 86.5q0 59 -15 115q43 6 156 49q133 51 216 73q144 37 289 37q66 0 133 -7q-1 -22 -7 -93q-6 -62 -6 -97q0 -69 18 -111q-53 -4 -102 -18 q-77 -24 -132 -35q-74 -664 -74 -938q0 -49 2 -88q96 30 185 62q-19 -57 -15 -144q4 -107 -2 -144q-77 -17 -292 -97q-329 -123 -424 -156q-12 54 -12 113z" />
<glyph unicode="}" horiz-adv-x="959" d="M101 -131l73 246q83 -3 238 -12q0 3 7 224q6 154 34 248q39 129 162 198q-112 97 -143 230q-20 80 -20 191q0 46 5 145q5 88 4 128q-84 15 -246 15v256q15 0 81 2t110 2q239 0 270 -62q41 -84 41 -199q0 -45 -9 -137.5t-9 -140.5q0 -82 19 -150q29 -103 205 -285 q-73 -69 -145 -137q-98 -94 -116 -166.5t-18 -175.5q0 -21 1 -61t1 -59q0 -177 -77 -264q-67 -76 -220 -76q-114 0 -248 40z" />
<glyph unicode="&#xa1;" horiz-adv-x="799" d="M19 7q18 41 260 553q171 358 249 571q43 7 86 13q77 15 128 40q-46 -424 -211 -999q-127 -48 -252 -97q-159 -58 -260 -81zM429 1444q0 87 88 167q84 75 173 80q17 1 30 1q136 0 136 -162q0 -75 -82 -145.5t-160 -70.5q-76 0 -128 35q-57 37 -57 95z" />
<glyph unicode="&#xa9;" horiz-adv-x="1645" d="M141 967q0 300 213 513t514 213q300 0 513 -213t213 -513q0 -301 -213 -514t-513 -213q-301 0 -514 213t-213 514zM295 967q0 -237 168 -405t405 -168q236 0 404 168t168 405q0 236 -168 404t-404 168q-237 0 -405 -168t-168 -404zM501 963q0 156 96 293q110 156 272 156 q140 0 262 -183q-96 -59 -139 -122q0 26 -39.5 73.5t-69.5 47.5q-167 0 -167 -253q0 -210 118 -225q99 -12 133 140q30 -26 92.5 -59t72.5 -41q-37 -83 -130 -154q-97 -76 -179 -76q-152 0 -246 148q-76 122 -76 255z" />
<glyph unicode="&#xad;" d="M72 594q10 56 66 175q51 109 94 173q58 13 442 39q346 25 417 57q-77 -251 -183 -364q-152 0 -413 -21q-319 -26 -423 -59z" />
<glyph unicode="&#xae;" horiz-adv-x="1645" d="M141 967q0 300 213 513t514 213q300 0 513 -213t213 -513q0 -301 -213 -514t-513 -213q-301 0 -514 213t-213 514zM295 967q0 -237 168 -405t405 -168q236 0 404 168t168 405q0 236 -168 404t-404 168q-237 0 -405 -168t-168 -404zM640 644q0 176 27 402q34 290 37 333 q112 28 208 29q194 0 207 -116q1 -15 1 -31q0 -192 -172 -353q22 -31 86 -59q61 -23 122 -47q-38 -26 -138 -151q-47 24 -201 181l-5 -3q-10 -44 4 -198q-66 -16 -92 -26q-45 -16 -83 -40q-2 39 -1 79zM822 964q124 161 124 231q0 45 -31 45q-9 0 -25 -4.5t-20 -4.5 q0 -23 -17 -104q-24 -117 -31 -163z" />
<glyph unicode="&#xbf;" horiz-adv-x="932" d="M-31 232q0 69 114 193q175 189 222 257q125 179 144 375q14 -1 32 -1q165 0 281 89q-15 -250 -186 -483q-117 -139 -235 -279q-5 -7 -5 -24q0 -47 49 -47q28 0 72 19q57 24 157 131q92 99 159 200q0 -31 43.5 -123t74.5 -122l-138 -154q-105 -113 -201 -174 q-129 -82 -256 -82q-134 0 -230.5 66.5t-96.5 158.5zM424 1369q0 87 88 167q85 75 174 80q16 2 29 2q137 0 137 -161q0 -76 -81.5 -146.5t-161.5 -70.5q-75 0 -128 35q-57 36 -57 94z" />
<glyph unicode="&#xdc;" horiz-adv-x="2301" d="M9 1187q0 232 162 393t394 161h1171q231 0 393.5 -161t162.5 -393q0 -150 -71 -274l-589 -1014q-77 -132 -206 -209.5t-280 -77.5q-144 0 -276 75t-204 199l-586 1027q-72 127 -71 274zM142 1182q0 -173 123.5 -298t297.5 -125q175 0 297.5 123.5t122.5 299.5h-291 q-2 -55 -38.5 -93t-90.5 -38t-92 38.5t-38 92.5q0 53 38.5 94t91.5 41h639q20 95 65 162q18 26 112 132l-816 -3q-179 0 -300 -123.5t-121 -302.5zM371 671l415 -713q125 -213 365 -213q176 0 298 124t122 299q0 174 -124 298.5t-296 124.5q-110 0 -213 -55l144 -254 q36 19 69 19q52 0 91 -40t39 -93t-39 -94.5t-91 -41.5q-75 0 -117 72l-328 548q-67 -19 -143 -18q-116 0 -192 37zM840 705l31 -56q128 73 280 73q145 0 271 -73l32 59q-125 73 -198 202t-73 275l-64 -3q0 -146 -76.5 -275t-202.5 -202zM1315 1182q0 -238 208 -362l149 253 q-67 38 -66 109q0 54 38.5 94.5t91.5 40.5q58 0 94.5 -38t36.5 -97q0 -44 -148 -301q-93 -158 -185 -316q132 -128 162 -304l402 711q59 103 59 210q0 179 -121 302.5t-300 123.5q-177 0 -299 -125t-122 -301zM1705 215l6 -3l7 14l29 -16l5 9l-29 15l8 14l-6 4zM1728 257 l35 -20l4 9l-26 16l32 -6l5 8l-21 25l27 -15l5 8l-34 20l-8 -14l19 -22l-29 6zM1767 325l61 -36l37 62l-11 7l-26 -46l-16 10l23 41l-11 6l-23 -41l-14 7l26 45l-10 5zM1807 392l77 -6l10 17l-43 65l-11 -18l33 -46l-56 6zM1855 476l61 -36l9 17l-60 35zM1874 508l60 -35 l34 58l-11 6l-24 -42l-50 29zM1950 644q-22 -38 11 -56q31 -18 53 19q16 26 -1 45l-13 -13q11 -12 3 -27q-12 -20 -33 -7q-22 12 -9 33q9 14 20 10l6 18q-23 4 -37 -22zM1998 728q-23 -40 10 -59q31 -17 54 22q24 39 -9 57q-31 18 -55 -20zM2009 721q13 23 34 11 q22 -13 8 -36q-13 -23 -33 -9q-22 12 -9 34zM2029 779l61 -36l9 15l-48 28l58 -12l9 17l-39 43l47 -28l9 15l-61 35l-13 -24l33 -38l-50 9zM2084 873l61 -35l9 15l-61 36zM2099 898l44 9l16 -46l11 20l-10 29l30 7l12 20l-48 -10l-15 42l-11 -19l10 -27l-28 -5z" />
<glyph unicode="&#x2000;" horiz-adv-x="885" />
<glyph unicode="&#x2001;" horiz-adv-x="1770" />
<glyph unicode="&#x2002;" horiz-adv-x="885" />
<glyph unicode="&#x2003;" horiz-adv-x="1770" />
<glyph unicode="&#x2004;" horiz-adv-x="590" />
<glyph unicode="&#x2005;" horiz-adv-x="442" />
<glyph unicode="&#x2006;" horiz-adv-x="295" />
<glyph unicode="&#x2007;" horiz-adv-x="295" />
<glyph unicode="&#x2008;" horiz-adv-x="221" />
<glyph unicode="&#x2009;" horiz-adv-x="354" />
<glyph unicode="&#x200a;" horiz-adv-x="98" />
<glyph unicode="&#x2010;" d="M72 594q10 56 66 175q51 109 94 173q58 13 442 39q346 25 417 57q-77 -251 -183 -364q-152 0 -413 -21q-319 -26 -423 -59z" />
<glyph unicode="&#x2011;" d="M72 594q10 56 66 175q51 109 94 173q58 13 442 39q346 25 417 57q-77 -251 -183 -364q-152 0 -413 -21q-319 -26 -423 -59z" />
<glyph unicode="&#x2012;" d="M72 594q10 56 66 175q51 109 94 173q58 13 442 39q346 25 417 57q-77 -251 -183 -364q-152 0 -413 -21q-319 -26 -423 -59z" />
<glyph unicode="&#x2013;" horiz-adv-x="1131" d="M72 594q10 56 66 175q52 109 95 173q58 13 444 39q348 25 419 57q-77 -251 -184 -364q-153 0 -415 -21q-320 -26 -425 -59z" />
<glyph unicode="&#x2014;" horiz-adv-x="2155" d="M72 594q20 56 133 175q102 109 189 173q116 13 888 39q695 25 838 57q-155 -251 -368 -364q-305 0 -830 -21q-641 -26 -850 -59z" />
<glyph unicode="&#x2018;" horiz-adv-x="573" d="M219 1264q0 156 127 430q12 4 33 4q105 0 236 -61q-60 -56 -102 -174.5t-42 -234.5q0 -117 47 -184q-18 3 -87 -8q-79 -12 -122 -12q-20 0 -36 2q-54 115 -54 238z" />
<glyph unicode="&#x2019;" horiz-adv-x="467" d="M105 1039q59 56 101.5 174.5t42.5 234.5q0 117 -47 184q18 -3 86 8q79 12 123 12q19 0 36 -2q54 -115 54 -239q0 -156 -127 -429q-12 -4 -33 -4q-105 0 -236 61z" />
<glyph unicode="&#x201c;" horiz-adv-x="737" d="M35 1281q0 279 131 460q139 -65 196 -65q11 0 17 2q-100 -294 -100 -477q0 -132 48 -222q-67 -25 -146.5 -32.5t-90.5 -11.5q-55 178 -55 346zM393 1264q0 156 128 430q12 4 32 4q106 0 237 -61q-59 -56 -102 -174.5t-43 -234.5q0 -117 47 -184q-18 3 -86 -8 q-79 -12 -122 -12q-20 0 -37 2q-54 115 -54 238z" />
<glyph unicode="&#x201d;" horiz-adv-x="820" d="M103 1039q59 56 101.5 174.5t42.5 234.5q0 117 -47 184q18 -3 86 8q80 12 123 12q19 0 36 -2q54 -115 54 -239q0 -156 -127 -429q-12 -4 -33 -4q-105 0 -236 61zM514 998q101 294 101 477q0 132 -49 222q67 25 146 32.5t91 11.5q55 -178 55 -346q0 -279 -131 -460 q-139 65 -196 64q-10 0 -17 -1z" />
<glyph unicode="&#x202f;" horiz-adv-x="354" />
<glyph unicode="&#x205f;" horiz-adv-x="442" />
<glyph unicode="&#x2122;" horiz-adv-x="1227" d="M55 1603q92 27 183 56q162 48 276 48q30 0 57 -3q-17 -38 -45 -146q-25 -7 -117 -28q-27 -160 -27 -354q0 -119 9 -198q-150 -70 -248 -134q12 58 36 294q25 232 49 345q-89 -27 -167 -60q6 54 -6 180zM485 1018q0 208 130 595q95 34 270 108q-36 -181 -37 -317 q0 -54 7 -95q38 125 122 344q81 28 229 88q-44 -138 -44 -606q0 -136 6 -211q-62 -18 -195 -63q-5 68 -5 138q0 27 25 421q-84 -177 -130 -499q-47 12 -111 -20q0 376 -15 501q-77 -271 -72 -439q-36 -10 -73 -19q-50 -17 -76 -45q-31 29 -31 119z" />
<glyph unicode="&#x25fc;" horiz-adv-x="1245" d="M0 0v1246h1246v-1246h-1246z" />
</font>
</defs>
</svg>
